<svg xmlns="http://www.w3.org/2000/svg" xmlns:xlink="http://www.w3.org/1999/xlink" width="226.314" height="188.836" viewBox="0 0 226.314 188.836"><defs><style>.a{fill:url(#a);}.b{opacity:0.3;}.c{fill:#fbb549;}.d{fill:#00b3a1;}.e{fill:#f7f6f4;}.f{fill:#00adcb;}.g{fill:#e6e6e3;}.h{fill:#f26c3c;}.i{fill:#fab448;}.j{opacity:0.55;}.k{fill:#ee3f3a;}.l{opacity:0.35;}.m{fill:#00b5a3;}.n{fill:#e6e6e6;}.o{fill:#999;opacity:0.79;}.p{fill:url(#b);}.q{fill:#fff;}.r{fill:url(#c);}.s{fill:#f2f2f2;}.t{fill:url(#d);}.u{opacity:0.75;}.v{fill:url(#e);}.w{fill:url(#f);}.x{fill:#00414f;}.y{fill:#23233b;}.z{fill:#0488b2;}.aa,.ao{fill:#005679;}.ab{fill:#c080b1;}.ac{fill:#f6a9a9;}.ad{fill:#cc7f7f;}.ae,.ah,.ai{fill:#ccc;}.ae,.ao,.bb{opacity:0.5;}.af{fill:#f48254;}.ag,.an{fill:none;stroke-miterlimit:10;stroke-width:1.11px;}.ag{stroke:#f2f2f2;}.ah{opacity:0.8;}.ai{opacity:0.4;}.aj{fill:url(#g);}.ak{fill:url(#h);}.al{fill:#c1d9e5;}.am{fill:#a7c4e4;}.an{stroke:#b3b3b3;stroke-linecap:round;}.ap{fill:#231f20;}.aq{fill:url(#i);}.ar{fill:url(#j);}.as{fill:#00b2cf;}.at{fill:#10497d;}.au{fill:url(#k);}.av{fill:#fdca8d;}.aw{fill:#023444;}.ax{fill:url(#l);}.ay{fill:#115b78;}.az{fill:#09425e;}.ba{fill:#073049;}.bb{fill:#60c0fd;}.bc{fill:#00abc9;}.bd{fill:#f5a8a9;}.be{fill:#1d1e50;}.bf{fill:#006a80;}.bg{fill:#d08f8f;}</style><linearGradient id="a" x1="0.146" y1="0.854" x2="0.854" y2="0.146" gradientUnits="objectBoundingBox"><stop offset="0.15" stop-color="#f2f2f2"/><stop offset="0.41" stop-color="#f2e5d1"/><stop offset="1" stop-color="#f2ca8b"/></linearGradient><linearGradient id="b" x1="0.001" y1="0.107" x2="0.999" y2="0.893" gradientUnits="objectBoundingBox"><stop offset="0" stop-color="#005679"/><stop offset="0.1" stop-color="#005a7d"/><stop offset="0.21" stop-color="#068"/><stop offset="0.31" stop-color="#007a9b"/><stop offset="0.41" stop-color="#0095b4"/><stop offset="0.48" stop-color="#00adcb"/><stop offset="0.56" stop-color="#05aecc"/><stop offset="0.66" stop-color="#14b3ce"/><stop offset="0.77" stop-color="#2cb9d2"/><stop offset="0.88" stop-color="#4dc3d8"/><stop offset="0.97" stop-color="#6eccdd"/></linearGradient><linearGradient id="c" x1="1" y1="0.5" x2="0" y2="0.5" gradientUnits="objectBoundingBox"><stop offset="0" stop-color="#f48254"/><stop offset="1" stop-color="#fbb549"/></linearGradient><linearGradient id="d" x1="0" y1="0.5" x2="1" y2="0.5" xlink:href="#c"/><linearGradient id="e" y1="0.5" x2="1" y2="0.5" gradientUnits="objectBoundingBox"><stop offset="0" stop-color="#005679"/><stop offset="0.37" stop-color="#007c9c"/><stop offset="0.78" stop-color="#009fbe"/><stop offset="1" stop-color="#00adcb"/></linearGradient><linearGradient id="f" y1="0.499" x2="1" y2="0.499" gradientUnits="objectBoundingBox"><stop offset="0" stop-color="#005679"/><stop offset="0.25" stop-color="#007495"/><stop offset="0.56" stop-color="#0093b3"/><stop offset="0.82" stop-color="#00a6c5"/><stop offset="1" stop-color="#00adcb"/></linearGradient><linearGradient id="g" x1="-33.233" y1="2.429" x2="-33.233" y2="1.444" gradientUnits="objectBoundingBox"><stop offset="0" stop-color="#005679"/><stop offset="0.13" stop-color="#006385"/><stop offset="0.72" stop-color="#0098b7"/><stop offset="1" stop-color="#00adcb"/></linearGradient><linearGradient id="h" x1="0.5" y1="1" x2="0.5" gradientUnits="objectBoundingBox"><stop offset="0" stop-color="#007685"/><stop offset="0.42" stop-color="#00b5a3"/><stop offset="0.5" stop-color="#1bb599"/><stop offset="0.67" stop-color="#54b585"/><stop offset="0.82" stop-color="#7eb576"/><stop offset="0.93" stop-color="#97b56c"/><stop offset="1" stop-color="#a1b569"/></linearGradient><linearGradient id="i" x1="-11.31" y1="-15.837" x2="-9.348" y2="-15.837" gradientUnits="objectBoundingBox"><stop offset="0" stop-color="#005679"/><stop offset="0.18" stop-color="#005e80"/><stop offset="0.46" stop-color="#007294"/><stop offset="0.79" stop-color="#0094b4"/><stop offset="1" stop-color="#00adcb"/></linearGradient><linearGradient id="j" x1="-10.357" y1="-15.9" x2="-8.56" y2="-15.9" gradientUnits="objectBoundingBox"><stop offset="0" stop-color="#00adcb"/><stop offset="0.26" stop-color="#00aac8"/><stop offset="0.46" stop-color="#00a0bf"/><stop offset="0.65" stop-color="#0090b0"/><stop offset="0.82" stop-color="#00799a"/><stop offset="0.98" stop-color="#005b7e"/><stop offset="1" stop-color="#005679"/></linearGradient><linearGradient id="k" x1="-188.055" y1="-304.633" x2="-187.142" y2="-304.633" xlink:href="#i"/><linearGradient id="l" x1="-0.318" y1="0.5" x2="1.319" y2="0.5" gradientUnits="objectBoundingBox"><stop offset="0" stop-color="#940008"/><stop offset="0.01" stop-color="#98030a"/><stop offset="0.08" stop-color="#b31619"/><stop offset="0.16" stop-color="#c92525"/><stop offset="0.26" stop-color="#da312f"/><stop offset="0.38" stop-color="#e53935"/><stop offset="0.54" stop-color="#ec3e39"/><stop offset="1" stop-color="#ee3f3a"/></linearGradient></defs><g transform="translate(0)"><g transform="translate(0 0)"><circle class="a" cx="93.267" cy="93.267" r="93.267" transform="translate(24.725 2.303)"/><g class="b" transform="translate(146.874 112.123)"><path class="c" d="M401.818,332.565h-9.825a2.677,2.677,0,0,1-2.673-2.672h0a2.673,2.673,0,0,1,2.672-2.673h9.825Z" transform="translate(-389.32 -318.137)"/><path class="c" d="M418.81,332.553h11.959a2.673,2.673,0,0,0,2.657-2.68h0a2.669,2.669,0,0,0-2.673-2.672H418.81Z" transform="translate(-407.22 -318.125)"/><path class="c" d="M419.2,321.479h9.676a1.883,1.883,0,0,1-1.883-1.887h0a1.879,1.879,0,0,1,1.883-1.883H419.2Z" transform="translate(-407.457 -312.365)"/><path class="c" d="M424.038,321.479H414.35a1.887,1.887,0,0,0,1.887-1.887h0a1.883,1.883,0,0,0-1.887-1.883h9.688Z" transform="translate(-404.513 -312.365)"/><path class="c" d="M423.34,344.509h9.692a1.883,1.883,0,0,1-1.883-1.883h0a1.883,1.883,0,0,1,1.883-1.886H423.34Z" transform="translate(-409.97 -326.344)"/><path class="c" d="M428.18,344.509H418.5a1.887,1.887,0,0,0,1.887-1.883h0a1.887,1.887,0,0,0-1.887-1.887h9.68Z" transform="translate(-407.032 -326.344)"/><path class="c" d="M414.7,309.455h-9.825a2.676,2.676,0,0,1-2.673-2.672h0a2.673,2.673,0,0,1,2.673-2.672H414.7Z" transform="translate(-397.138 -304.11)"/><path class="c" d="M432.87,309.455H442.7a2.676,2.676,0,0,0,2.672-2.672h0a2.672,2.672,0,0,0-2.672-2.672H432.87Z" transform="translate(-415.754 -304.11)"/><path class="c" d="M423.1,355.745h-9.825a2.673,2.673,0,0,1-2.673-2.672h0a2.669,2.669,0,0,1,2.673-2.672H423.1Z" transform="translate(-402.237 -332.207)"/><path class="c" d="M441.25,355.745h9.825a2.672,2.672,0,0,0,2.672-2.672h0a2.668,2.668,0,0,0-2.672-2.672H441.25Z" transform="translate(-420.841 -332.207)"/><path class="c" d="M438.189,363.79h-6.76a.939.939,0,0,0-.939.943h0a.939.939,0,0,0,.939.939h6.76a.939.939,0,0,0,.939-.939h0a.939.939,0,0,0-.939-.943Z" transform="translate(-414.31 -340.335)"/></g><g class="b" transform="translate(140.727 116.517)"><path class="c" d="M415.72,337.76h7.97a2.162,2.162,0,0,1,2.162,2.162h0a2.166,2.166,0,0,1-2.162,2.165h-7.97Z" transform="translate(-399.198 -328.929)"/><path class="c" d="M399.326,337.76h-9.664a2.162,2.162,0,0,0-2.162,2.162h0a2.166,2.166,0,0,0,2.162,2.165h9.68Z" transform="translate(-382.069 -328.929)"/><path class="c" d="M405.183,348.7H397.35a1.525,1.525,0,0,1,1.525,1.525h0a1.525,1.525,0,0,1-1.525,1.525h7.833Z" transform="translate(-388.047 -335.569)"/><path class="c" d="M401.26,348.7H409.1a1.525,1.525,0,0,0-1.525,1.525h0a1.525,1.525,0,0,0,1.525,1.525H401.26Z" transform="translate(-390.421 -335.569)"/><path class="c" d="M401.829,330.06H394a1.525,1.525,0,0,1,1.525,1.525h0A1.525,1.525,0,0,1,394,333.11h7.833Z" transform="translate(-386.014 -324.255)"/><path class="c" d="M397.91,330.06h7.833a1.521,1.521,0,0,0-1.525,1.525h0a1.525,1.525,0,0,0,1.525,1.525H397.91Z" transform="translate(-388.387 -324.255)"/><path class="c" d="M405.28,356.46h7.955a2.165,2.165,0,0,1,2.154,2.177h0a2.162,2.162,0,0,1-2.161,2.162H405.28Z" transform="translate(-392.861 -340.28)"/><path class="c" d="M390.6,356.46h-7.943a2.166,2.166,0,0,0-2.162,2.166h0a2.162,2.162,0,0,0,2.162,2.162h7.959Z" transform="translate(-377.82 -340.28)"/><path class="c" d="M398.5,319h7.955a2.162,2.162,0,0,1,2.162,2.162h0a2.162,2.162,0,0,1-2.162,2.162H398.5Z" transform="translate(-388.745 -317.542)"/><path class="c" d="M383.8,319h-7.959a2.162,2.162,0,0,0-2.162,2.162h0a2.162,2.162,0,0,0,2.162,2.162H383.8Z" transform="translate(-373.68 -317.542)"/><path class="c" d="M391.109,316.811h5.471a.762.762,0,0,0,.762-.762h0a.758.758,0,0,0-.762-.759h-5.471a.755.755,0,0,0-.759.759h0a.759.759,0,0,0,.759.762Z" transform="translate(-383.798 -315.29)"/></g><path class="d" d="M172.7,358.782a13.462,13.462,0,0,1,1.438-2.452l1.1,5.337a25.393,25.393,0,0,1-2.535-2.885Z" transform="translate(-110.961 -223.683)"/><path class="d" d="M181,368.7a18.013,18.013,0,0,0,1.682-5.011,6.6,6.6,0,0,1,.424,4.323c-.574,3.812,1.466,2.669,1.824,2.236s1.026-2.578,2.425-1.989a1.5,1.5,0,0,1,.2.114c-.338,3.753-3.537,10.108-4.26,11.476Z" transform="translate(-115.999 -228.151)"/><path class="d" d="M173.364,377.221c-.652-.2-3.789-1.419-7.624-6.7,1.03-.967,2.46.649,2.952.892s2.834.464.755-2.786c-1.411-2.209-1.725-3.726-1.057-5.5a24.839,24.839,0,0,0,2.7,3.014Z" transform="translate(-106.737 -227.805)"/><path class="d" d="M178.4,363.9l-1.572-7.628a8.854,8.854,0,0,1,3.144,2.669A18.661,18.661,0,0,1,178.4,363.9Z" transform="translate(-113.468 -223.647)"/><path class="d" d="M191.378,376c1.045.983,1.152,3.93.393,7.762a28.175,28.175,0,0,1-.947,3.435c-.366,1.1-.786,2.177-1.211,3.234-.322.786-.656,1.572-1.014,2.358a.711.711,0,0,1-.472.318L187,387.657C187.444,386.82,190.966,380.08,191.378,376Z" transform="translate(-119.641 -235.623)"/><path class="d" d="M164.893,382.31c4.06,5.589,7.361,6.681,7.809,6.8l1.615,7.837h-.02a.653.653,0,0,1-.31-.212c-.2-.208-.421-.393-.633-.59-.354-.318-.7-.645-1.049-.975q-1.256-1.179-2.449-2.468a28.156,28.156,0,0,1-2.3-2.783l-.031-.043C165.066,386.393,163.977,383.477,164.893,382.31Z" transform="translate(-106.027 -239.453)"/><path class="e" d="M165.39,366.418l.067-.083.071-.067c3.836,5.286,6.972,6.5,7.625,6.7l-2.28-11.079a24.838,24.838,0,0,1-2.7-3.014c.027-.071.055-.145.086-.22a25.4,25.4,0,0,0,2.535,2.885l-1.1-5.337.039-.059c0-.028.035-.028.067,0l.083.051,1.572,7.628a18.657,18.657,0,0,0,1.572-4.96q.082.122.153.248a18.01,18.01,0,0,1-1.682,5.011l2.3,11.166c.711-1.368,3.93-7.723,4.26-11.476a1.541,1.541,0,0,1,.181.145c-.393,4.072-3.93,10.812-4.374,11.649l1.12,5.447a.657.657,0,0,1-.193,0l-1.615-7.837C172.751,373.087,169.45,372.006,165.39,366.418Z" transform="translate(-106.524 -223.56)"/><path class="f" d="M432.59,397.592c.924-1.446,2.091-3.015,3.278-4.512a4.6,4.6,0,0,0,3.576.083,17.559,17.559,0,0,1-1.23,2.445,11.231,11.231,0,0,1-1.179,1.623C435.53,398.158,433.109,397.7,432.59,397.592Z" transform="translate(-268.71 -245.99)"/><path class="f" d="M441.18,383.058c2.268-2.842,4.583-5.392,5.4-6.288a16.486,16.486,0,0,1-.538,2.189q-.307,1.179-.676,2.358c-.193.589-.393,1.179-.629,1.745A4.551,4.551,0,0,1,441.18,383.058Z" transform="translate(-273.924 -236.09)"/><path class="f" d="M438.8,382.822c-1.262,1.509-2.614,3.207-3.773,4.846a13.547,13.547,0,0,1,.676-5.054,12.45,12.45,0,0,1,3.718-3.144,16.271,16.271,0,0,0-.629,3.356Z" transform="translate(-270.179 -237.729)"/><path class="f" d="M445.636,377.551c.2-.106.393-.2.605-.295a7.111,7.111,0,0,1,2.582-.786c-.613.664-2.134,2.335-3.844,4.374A14.976,14.976,0,0,1,445.636,377.551Z" transform="translate(-276.231 -235.908)"/><path class="f" d="M431.416,393.21h0a27.441,27.441,0,0,0-2.075,3.356,3.143,3.143,0,0,1-.055-1.065,13.237,13.237,0,0,1,2.633-7.141A15.4,15.4,0,0,0,431.416,393.21Z" transform="translate(-266.691 -243.125)"/><path class="f" d="M434.949,404.49a8.427,8.427,0,0,1-2.036,1.572,5.329,5.329,0,0,1-2.158.66c-.578.035-.9.02-1.065-.216a20.231,20.231,0,0,1,1.049-1.847A7.473,7.473,0,0,0,434.949,404.49Z" transform="translate(-266.95 -252.916)"/><path class="g" d="M431.624,385.987h0a15.236,15.236,0,0,1,.519-4.85l.275-.354a13.547,13.547,0,0,0-.676,5.054c1.159-1.639,2.511-3.337,3.773-4.846h0a16.273,16.273,0,0,1,.629-3.356c.055-.031.11-.063.169-.09a14.977,14.977,0,0,0-.656,3.29c1.71-2.04,3.231-3.71,3.844-4.374h.071v.138c-.817.884-3.144,3.435-5.4,6.288a4.551,4.551,0,0,0,3.557,0c-.027.067-.055.13-.079.2a4.6,4.6,0,0,1-3.577-.082c-1.179,1.5-2.358,3.065-3.278,4.512.519.11,2.94.566,4.429-.362-.1.114-.2.224-.31.334a7.469,7.469,0,0,1-4.209.169,20.182,20.182,0,0,0-1.049,1.847.533.533,0,0,1-.075-.149A27.45,27.45,0,0,1,431.624,385.987Z" transform="translate(-266.883 -235.902)"/><path class="h" d="M425.46,386.666a75.226,75.226,0,0,1,2.751-7.727,10.344,10.344,0,0,0,5.852-2.279,20.741,20.741,0,0,1-.59,3.824,15.333,15.333,0,0,1-1.014,2.794C430.557,385.412,426.368,386.462,425.46,386.666Z" transform="translate(-264.382 -236.023)"/><path class="h" d="M432.66,364.431c2.052-5,4.351-9.68,5.168-11.311a17.98,17.98,0,0,1,.393,3.05c.122,1.108.212,2.224.252,3.345.027.853.024,1.71-.024,2.566A10.167,10.167,0,0,1,432.66,364.431Z" transform="translate(-268.753 -221.735)"/><path class="h" d="M427.545,366.677c-1.179,2.7-2.405,5.683-3.348,8.466-.393-.743-2.028-4-1.8-6.681a20.171,20.171,0,0,1,4.233-6.351,16.962,16.962,0,0,0,.9,4.555Z" transform="translate(-262.51 -227.192)"/><path class="h" d="M433.76,356.255c.267-.263.542-.519.821-.766a15.3,15.3,0,0,1,3.738-2.688c-.617,1.226-2.13,4.3-3.738,7.939a16.078,16.078,0,0,1-.821-4.484Z" transform="translate(-269.42 -221.541)"/><path class="h" d="M422.114,386.246h.024a35.163,35.163,0,0,0-1.442,5.5,3.329,3.329,0,0,1-.7-1.277,14.928,14.928,0,0,1,.181-10.541A16.1,16.1,0,0,0,422.114,386.246Z" transform="translate(-260.534 -238.008)"/><path class="h" d="M431.008,395.07a13.939,13.939,0,0,1-2.405,3.29,11.124,11.124,0,0,1-3.144,2.248c-.916.428-1.454.625-1.859.44a25.415,25.415,0,0,1,.652-2.971C424.881,397.947,428.811,397.051,431.008,395.07Z" transform="translate(-263.253 -247.198)"/><path class="g" d="M423.771,369.668h-.024a15.889,15.889,0,0,1-1.937-6.32c.079-.208.157-.413.244-.617-.228,2.665,1.407,5.923,1.8,6.681.943-2.783,2.165-5.769,3.348-8.465h0a16.963,16.963,0,0,1-.9-4.555c.075-.071.145-.145.22-.22a16.077,16.077,0,0,0,.81,4.488c1.607-3.643,3.121-6.713,3.738-7.939l.118-.051a1.34,1.34,0,0,1,.059.177c-.817,1.631-3.117,6.308-5.168,11.311a10.168,10.168,0,0,0,5.777-2.358v.291A10.345,10.345,0,0,1,426,364.37a75.219,75.219,0,0,0-2.751,7.727c.908-.2,5.109-1.254,6.988-3.388-.1.208-.2.413-.311.617-2.2,1.965-6.127,2.877-6.74,3.007a25.442,25.442,0,0,0-.652,2.971.784.784,0,0,1-.2-.13A35.154,35.154,0,0,1,423.771,369.668Z" transform="translate(-262.167 -221.462)"/><path class="i" d="M167.58,389.011a7.864,7.864,0,0,1,.574-1.631l1.269,3.058A15.484,15.484,0,0,1,167.58,389.011Z" transform="translate(-107.853 -242.53)"/><path class="i" d="M174.12,393.929a11.438,11.438,0,0,0,.424-3.18,4.029,4.029,0,0,1,.755,2.535c.1,2.338,1.179,1.423,1.344,1.124s.314-1.655,1.218-1.466l.134.043c.232,2.279-.951,6.438-1.218,7.334Z" transform="translate(-111.823 -244.576)"/><path class="i" d="M170.978,399.727c-.393-.043-2.421-.393-5.318-3.117.5-.7,1.541.1,1.863.193s1.745-.051.13-1.749c-1.1-1.155-1.458-2.024-1.265-3.144a15.636,15.636,0,0,0,1.965,1.49Z" transform="translate(-106.688 -245.28)"/><path class="i" d="M171.136,391.656l-1.816-4.366a5.549,5.549,0,0,1,2.193,1.226,12.053,12.053,0,0,1-.377,3.14Z" transform="translate(-108.91 -242.476)"/><path class="i" d="M182.346,396.61c.735.464,1.136,2.2,1.124,4.582a17,17,0,0,1-.165,2.158q-.141,1.049-.35,2.067c-.1.511-.208,1.018-.334,1.517a.436.436,0,0,1-.244.244l-1.3-3.117C181.245,403.511,182.57,399.086,182.346,396.61Z" transform="translate(-116.048 -248.133)"/><path class="i" d="M165.358,404.14c3.062,2.861,5.156,3.144,5.439,3.144l1.867,4.484h0a.421.421,0,0,1-.212-.09c-.145-.1-.295-.189-.444-.279-.248-.149-.5-.3-.739-.46-.59-.393-1.179-.786-1.745-1.179a17.631,17.631,0,0,1-1.69-1.391l-.024-.024C165.947,406.553,164.945,404.942,165.358,404.14Z" transform="translate(-106.449 -252.703)"/><path class="e" d="M165.5,393.906l.028-.059.035-.047c2.9,2.708,4.909,3.073,5.317,3.117l-2.637-6.339a15.638,15.638,0,0,1-1.965-1.49.255.255,0,0,1,.027-.138,15.482,15.482,0,0,0,1.843,1.427l-1.273-3.058v-.039h.039l.055.02,1.816,4.366a12.053,12.053,0,0,0,.393-3.144l.118.134a10.377,10.377,0,0,1-.424,3.179l2.657,6.391c.267-.9,1.45-5.054,1.218-7.334a.985.985,0,0,1,.126.067c.224,2.476-1.1,6.9-1.266,7.467l1.3,3.117a.366.366,0,0,1-.114.028l-1.867-4.484C170.656,397.035,168.562,396.767,165.5,393.906Z" transform="translate(-106.591 -242.469)"/><g class="j" transform="translate(163.121 47.339)"><path class="h" d="M514.28,163.39h6.8a1.851,1.851,0,0,1,1.851,1.851h0a1.851,1.851,0,0,1-1.851,1.847h-6.8Z" transform="translate(-481.416 -153.91)"/><path class="h" d="M482.565,163.39H462.835A1.851,1.851,0,0,0,461,165.241h0a1.851,1.851,0,0,0,1.851,1.847h19.73Z" transform="translate(-449.076 -153.91)"/><path class="h" d="M487.569,172.74H469.42a1.3,1.3,0,0,1,1.3,1.3h0a1.3,1.3,0,0,1-1.3,1.3h18.149Z" transform="translate(-454.187 -159.586)"/><path class="h" d="M472.77,172.74h18.169a1.3,1.3,0,0,0-1.3,1.3h0a1.3,1.3,0,0,0,1.3,1.3H472.77Z" transform="translate(-456.22 -159.586)"/><path class="h" d="M484.7,156.81H466.55a1.3,1.3,0,0,1,1.3,1.3h0a1.3,1.3,0,0,1-1.3,1.3H484.7Z" transform="translate(-452.445 -149.916)"/><path class="h" d="M469.89,156.81h18.153a1.3,1.3,0,0,0-1.3,1.3h0a1.3,1.3,0,0,0,1.3,1.3H469.89Z" transform="translate(-454.472 -149.916)"/><path class="h" d="M505.34,179.38h6.8a1.851,1.851,0,0,1,1.851,1.851h0a1.847,1.847,0,0,1-1.851,1.847h-6.8Z" transform="translate(-475.99 -163.616)"/><path class="h" d="M475.087,179.38H456.831a1.851,1.851,0,0,0-1.851,1.851h0a1.847,1.847,0,0,0,1.851,1.847h18.256Z" transform="translate(-445.422 -163.616)"/><path class="h" d="M470.4,147.38h18.255a1.851,1.851,0,0,1,1.851,1.851h0a1.851,1.851,0,0,1-1.851,1.851H470.4Z" transform="translate(-454.782 -144.193)"/><path class="h" d="M457.834,147.38h-6.8a1.851,1.851,0,0,0-1.851,1.851h0a1.851,1.851,0,0,0,1.851,1.851h6.8Z" transform="translate(-441.901 -144.193)"/><path class="h" d="M464.082,145.481H480.2a.649.649,0,0,0,.652-.648h0a.652.652,0,0,0-.652-.652H464.082a.652.652,0,0,0-.652.652h0a.648.648,0,0,0,.652.648Z" transform="translate(-450.551 -142.25)"/><path class="k" d="M439.314,158.958h-6.8a1.851,1.851,0,0,1-1.851-1.851h0a1.851,1.851,0,0,1,1.851-1.847h6.8Z" transform="translate(-430.66 -148.976)"/><path class="k" d="M451.08,158.983h19.733a1.851,1.851,0,0,0,1.851-1.835h0a1.851,1.851,0,0,0-1.847-1.847H451.08Z" transform="translate(-443.055 -149)"/><path class="k" d="M451.35,151.29H469.5a1.3,1.3,0,0,1-1.3-1.3h0a1.3,1.3,0,0,1,1.3-1.3H451.35Z" transform="translate(-443.219 -144.982)"/><path class="k" d="M466.153,151.29H448a1.3,1.3,0,0,0,1.3-1.3h0a1.3,1.3,0,0,0-1.3-1.3h18.153Z" transform="translate(-441.185 -144.982)"/><path class="k" d="M454.22,167.226h18.153a1.3,1.3,0,0,1-1.3-1.3h0a1.3,1.3,0,0,1,1.3-1.3H454.22Z" transform="translate(-444.961 -154.657)"/><path class="k" d="M469.023,167.226H450.87a1.3,1.3,0,0,0,1.3-1.3h0a1.3,1.3,0,0,0-1.3-1.3h18.153Z" transform="translate(-442.927 -154.657)"/><path class="k" d="M448.25,142.968h-6.8a1.847,1.847,0,0,1-1.847-1.851h0a1.843,1.843,0,0,1,1.847-1.847h6.8Z" transform="translate(-436.086 -139.27)"/><path class="k" d="M460.81,142.986h18.26a1.847,1.847,0,0,0,1.859-1.839h0a1.843,1.843,0,0,0-1.847-1.847H460.81Z" transform="translate(-448.961 -139.288)"/><path class="k" d="M465.5,174.962H447.241a1.851,1.851,0,0,1-1.851-1.851h0a1.851,1.851,0,0,1,1.851-1.851H465.5Z" transform="translate(-439.601 -158.687)"/><path class="k" d="M495.76,174.962h6.8a1.851,1.851,0,0,0,1.851-1.851h0a1.851,1.851,0,0,0-1.851-1.851h-6.8Z" transform="translate(-470.175 -158.687)"/><path class="k" d="M475.946,180.57H459.812a.652.652,0,0,0-.652.649h0a.652.652,0,0,0,.652.652h16.133a.648.648,0,0,0,.648-.652h0A.649.649,0,0,0,475.946,180.57Z" transform="translate(-447.959 -164.338)"/></g><g class="l" transform="translate(167.409 62.446)"><path class="h" d="M495.4,193.19h4.382a1.179,1.179,0,0,1,1.179,1.179h0a1.179,1.179,0,0,1-1.179,1.179H495.4Z" transform="translate(-474.244 -187.106)"/><path class="h" d="M474.973,193.19H462.259a1.179,1.179,0,0,0-1.179,1.179h0a1.179,1.179,0,0,0,1.179,1.179h12.714Z" transform="translate(-453.412 -187.106)"/><path class="h" d="M478.2,199.21H466.5a.841.841,0,0,1,.841.841h0a.841.841,0,0,1-.841.841h11.7Z" transform="translate(-456.702 -190.76)"/><path class="h" d="M468.66,199.21h11.692a.837.837,0,0,0-.837.841h0a.837.837,0,0,0,.837.841H468.66Z" transform="translate(-458.013 -190.76)"/><path class="h" d="M476.346,189h-11.7a.837.837,0,0,1,.841.837h0a.841.841,0,0,1-.841.841h11.7Z" transform="translate(-455.579 -184.563)"/><path class="h" d="M466.81,189H478.5a.837.837,0,0,0-.837.837h0a.837.837,0,0,0,.837.841H466.81Z" transform="translate(-456.89 -184.563)"/><path class="h" d="M489.64,203.49h4.382a1.179,1.179,0,0,1,1.179,1.179h0a1.179,1.179,0,0,1-1.179,1.179H489.64Z" transform="translate(-470.748 -193.358)"/><path class="h" d="M470.172,203.49H458.409a1.179,1.179,0,0,0-1.179,1.179h0a1.179,1.179,0,0,0,1.179,1.179h11.763Z" transform="translate(-451.075 -193.358)"/><path class="h" d="M467.13,182.88h11.763a1.179,1.179,0,0,1,1.179,1.179h0a1.179,1.179,0,0,1-1.179,1.179H467.13Z" transform="translate(-457.084 -180.848)"/><path class="h" d="M459.061,182.88h-4.382a1.179,1.179,0,0,0-1.179,1.179h0a1.179,1.179,0,0,0,1.179,1.179h4.382Z" transform="translate(-448.811 -180.848)"/><path class="h" d="M463.06,181.7h10.391a.421.421,0,0,0,.421-.421h0a.421.421,0,0,0-.421-.421H463.06a.421.421,0,0,0-.421.421h0A.421.421,0,0,0,463.06,181.7Z" transform="translate(-454.359 -179.622)"/><path class="k" d="M447.131,190.358h-4.382a1.179,1.179,0,0,1-1.179-1.179h0A1.179,1.179,0,0,1,442.749,188h4.382Z" transform="translate(-441.57 -183.956)"/><path class="k" d="M454.69,190.358h12.7a1.179,1.179,0,0,0,1.179-1.179h0A1.179,1.179,0,0,0,467.388,188h-12.7Z" transform="translate(-449.534 -183.956)"/><path class="k" d="M454.86,185.4h11.7a.841.841,0,0,1-.841-.841h0a.841.841,0,0,1,.841-.841h-11.7Z" transform="translate(-449.637 -181.358)"/><path class="k" d="M464.4,185.4H452.7a.841.841,0,0,0,.841-.841h0a.841.841,0,0,0-.841-.841h11.7Z" transform="translate(-448.326 -181.358)"/><path class="k" d="M456.71,195.658h11.7a.837.837,0,0,1-.841-.837h0a.841.841,0,0,1,.841-.841h-11.7Z" transform="translate(-450.76 -187.586)"/><path class="k" d="M466.246,195.658h-11.7a.837.837,0,0,0,.841-.837h0a.841.841,0,0,0-.841-.841h11.7Z" transform="translate(-449.449 -187.586)"/><path class="k" d="M452.881,180.068H448.5a1.179,1.179,0,0,1-1.179-1.179h0a1.179,1.179,0,0,1,1.179-1.179h4.382Z" transform="translate(-445.06 -177.71)"/><path class="k" d="M461,180.068h11.759a1.179,1.179,0,0,0,1.179-1.179h0a1.179,1.179,0,0,0-1.179-1.179H461Z" transform="translate(-453.364 -177.71)"/><path class="k" d="M464,200.678H452.229a1.179,1.179,0,0,1-1.179-1.179h0a1.179,1.179,0,0,1,1.179-1.179H464Z" transform="translate(-447.324 -190.22)"/><path class="k" d="M483.47,200.678h4.382a1.179,1.179,0,0,0,1.179-1.179h0a1.179,1.179,0,0,0-1.179-1.179H483.47Z" transform="translate(-467.003 -190.22)"/><path class="k" d="M470.732,204.25H460.357a.417.417,0,0,0-.417.421h0a.417.417,0,0,0,.417.421h10.376a.421.421,0,0,0,.421-.421h0A.421.421,0,0,0,470.732,204.25Z" transform="translate(-452.72 -193.819)"/></g><g class="j" transform="translate(170.903 18.397)"><path class="c" d="M555.83,96.77h11a3,3,0,0,1,2.995,2.995h0a3,3,0,0,1-2.995,2.995h-11Z" transform="translate(-514.418 -84.531)"/><path class="c" d="M504.447,96.77H472.495a3,3,0,0,0-2.995,2.995h0a3,3,0,0,0,2.995,2.995h31.952Z" transform="translate(-462.017 -84.531)"/><path class="c" d="M512.591,111.92h-29.4a2.111,2.111,0,0,1,2.114,2.111h0a2.111,2.111,0,0,1-2.115,2.11h29.4Z" transform="translate(-470.327 -93.727)"/><path class="c" d="M488.62,111.92h29.394a2.107,2.107,0,0,0-2.11,2.111h0a2.107,2.107,0,0,0,2.11,2.11H488.62Z" transform="translate(-473.622 -93.727)"/><path class="c" d="M507.938,86.11h-29.4a2.11,2.11,0,0,1,2.114,2.11h0a2.114,2.114,0,0,1-2.114,2.114h29.4Z" transform="translate(-467.504 -78.061)"/><path class="c" d="M484,86.11h29.394a2.106,2.106,0,0,0-2.111,2.11h0a2.11,2.11,0,0,0,2.111,2.114H484Z" transform="translate(-470.818 -78.061)"/><path class="c" d="M2.995,0H14V5.99h-11A3,3,0,0,1,0,2.995H0A3,3,0,0,1,2.995,0Z" transform="translate(49.732 28.407) rotate(180)"/><path class="c" d="M462.815,122.66h29.563v5.99H462.815a3,3,0,0,1-2.995-2.995h0A3,3,0,0,1,462.815,122.66Z" transform="translate(-456.141 -100.246)"/><path class="c" d="M484.79,70.85h29.559a3,3,0,0,1,2.995,2.995h0a3,3,0,0,1-2.995,2.995H484.79Z" transform="translate(-471.298 -68.798)"/><path class="c" d="M464.459,70.85h-11a3,3,0,0,0-2.995,2.995h0a3,3,0,0,0,2.995,2.995h11Z" transform="translate(-450.46 -68.798)"/><path class="c" d="M474.553,67.74h26.124a1.053,1.053,0,0,0,1.053-1.057h0a1.053,1.053,0,0,0-1.053-1.053H474.553a1.053,1.053,0,0,0-1.053,1.053h0a1.053,1.053,0,0,0,1.053,1.057Z" transform="translate(-464.445 -65.63)"/></g><g class="j" transform="translate(154.758 24.308)"><path class="c" d="M423.379,112.56h-11a3,3,0,0,1-2.995-2.995h0a3,3,0,0,1,2.995-2.995h11Z" transform="translate(-409.38 -96.391)"/><path class="c" d="M442.39,112.56h31.948a3,3,0,0,0,2.995-2.995h0a3,3,0,0,0-2.995-2.995H442.39Z" transform="translate(-429.417 -96.391)"/><path class="c" d="M442.82,100.135h29.394a2.111,2.111,0,0,1-2.11-2.11h0a2.11,2.11,0,0,1,2.11-2.114H442.82Z" transform="translate(-429.678 -89.92)"/><path class="c" d="M466.784,100.135H437.39a2.114,2.114,0,0,0,2.114-2.11h0a2.114,2.114,0,0,0-2.114-2.114h29.394Z" transform="translate(-426.382 -89.92)"/><path class="c" d="M447.47,125.945h29.394a2.114,2.114,0,0,1-2.114-2.114h0a2.114,2.114,0,0,1,2.114-2.111H447.47Z" transform="translate(-432.5 -105.587)"/><path class="c" d="M471.409,125.945H442a2.114,2.114,0,0,0,2.114-2.114h0A2.114,2.114,0,0,0,442,121.72h29.394Z" transform="translate(-429.18 -105.587)"/><path class="c" d="M437.809,86.66h-11a3,3,0,0,1-2.995-2.995h0A3,3,0,0,1,426.8,80.67h11Z" transform="translate(-418.139 -80.67)"/><path class="c" d="M458.14,86.66h29.567a2.995,2.995,0,0,0,3-2.995h0a3,3,0,0,0-2.995-2.995H458.14Z" transform="translate(-438.977 -80.67)"/><path class="c" d="M436.165,132.48h29.559v5.99H436.165a3,3,0,0,1-2.995-2.995h0A3,3,0,0,1,436.165,132.48Z" transform="translate(-423.82 -112.118)"/><path class="c" d="M2.995,0H14V5.99h-11A3,3,0,0,1,0,2.995H0A3,3,0,0,1,2.995,0Z" transform="translate(55.411 26.356) rotate(180)"/><path class="c" d="M482.647,147.55H456.523a1.053,1.053,0,0,0-1.053,1.053h0a1.053,1.053,0,0,0,1.053,1.053h26.124A1.053,1.053,0,0,0,483.7,148.6h0A1.053,1.053,0,0,0,482.647,147.55Z" transform="translate(-437.356 -121.265)"/></g><g class="b" transform="translate(35.753 89.757)"><path class="m" d="M126,291.438H110.734a4.154,4.154,0,0,1-4.154-4.154h0a4.154,4.154,0,0,1,4.154-4.154H126Z" transform="translate(-106.58 -269.009)"/><path class="m" d="M152.45,291.438h18.59a4.154,4.154,0,0,0,4.154-4.154h0a4.154,4.154,0,0,0-4.154-4.154H152.45Z" transform="translate(-134.422 -269.009)"/><path class="m" d="M153,274.21h15.049a2.932,2.932,0,0,1-2.932-2.932h0a2.928,2.928,0,0,1,2.932-2.928H153Z" transform="translate(-134.756 -260.038)"/><path class="m" d="M160.565,274.21H145.52a2.932,2.932,0,0,0,2.94-2.932h0a2.928,2.928,0,0,0-2.928-2.928h15.033Z" transform="translate(-130.216 -260.038)"/><path class="m" d="M159.49,310.01h15.049a2.932,2.932,0,0,1-2.932-2.928h0a2.932,2.932,0,0,1,2.932-2.932H159.49Z" transform="translate(-138.696 -281.768)"/><path class="m" d="M167.033,310.01H152a2.932,2.932,0,0,0,2.928-2.928h0A2.932,2.932,0,0,0,152,304.15h15.045Z" transform="translate(-134.149 -281.768)"/><path class="m" d="M146.079,255.512H130.8a4.158,4.158,0,0,1-4.158-4.154h0A4.158,4.158,0,0,1,130.8,247.2h15.28Z" transform="translate(-118.756 -247.2)"/><path class="m" d="M174.3,255.512h15.284a4.158,4.158,0,0,0,4.154-4.154h0a4.158,4.158,0,0,0-4.154-4.158H174.3Z" transform="translate(-147.685 -247.2)"/><path class="m" d="M159.1,327.392h-15.28a4.158,4.158,0,0,1-4.158-4.158h0a4.158,4.158,0,0,1,4.158-4.154H159.1Z" transform="translate(-126.659 -290.83)"/><path class="m" d="M187.32,327.392H202.6a4.158,4.158,0,0,0,4.154-4.158h0a4.158,4.158,0,0,0-4.154-4.154H187.32Z" transform="translate(-155.588 -290.83)"/><path class="m" d="M182.567,340H172.062a1.462,1.462,0,0,0-1.462,1.462h0a1.466,1.466,0,0,0,1.462,1.462h10.505a1.466,1.466,0,0,0,1.462-1.462h0A1.462,1.462,0,0,0,182.567,340Z" transform="translate(-145.439 -303.528)"/></g><g class="b" transform="translate(29.134 82.404)"><path class="m" d="M107.182,268.185H93.47a3.726,3.726,0,0,1-3.73-3.726h0a3.73,3.73,0,0,1,3.73-3.73h13.712Z" transform="translate(-89.74 -248.059)"/><path class="m" d="M130.9,268.185h16.684a3.726,3.726,0,0,0,3.73-3.726h0a3.73,3.73,0,0,0-3.73-3.73H130.9Z" transform="translate(-114.723 -248.059)"/><path class="m" d="M131.44,252.725h13.5a2.629,2.629,0,0,1-2.629-2.629h0a2.629,2.629,0,0,1,2.629-2.625h-13.5Z" transform="translate(-115.051 -240.011)"/><path class="m" d="M138.168,252.725H124.68a2.625,2.625,0,0,0,2.629-2.629h0a2.625,2.625,0,0,0-2.629-2.625h13.488Z" transform="translate(-110.948 -240.011)"/><path class="m" d="M137.23,284.879h13.5a2.633,2.633,0,0,1-2.629-2.629h0a2.629,2.629,0,0,1,2.629-2.629h-13.5Z" transform="translate(-118.566 -259.525)"/><path class="m" d="M143.974,284.879h-13.5a2.629,2.629,0,0,0,2.629-2.629h0a2.625,2.625,0,0,0-2.629-2.629h13.5Z" transform="translate(-114.462 -259.525)"/><path class="m" d="M125.192,235.949H111.476a3.73,3.73,0,0,1-3.726-3.73h0a3.73,3.73,0,0,1,3.726-3.73h13.716Z" transform="translate(-100.672 -228.49)"/><path class="m" d="M150.52,235.949h13.712a3.726,3.726,0,0,0,3.726-3.73h0a3.726,3.726,0,0,0-3.726-3.73H150.52Z" transform="translate(-126.632 -228.49)"/><path class="m" d="M136.872,300.479H123.16a3.73,3.73,0,0,1-3.73-3.73h0a3.73,3.73,0,0,1,3.73-3.73h13.712Z" transform="translate(-107.761 -267.659)"/><path class="m" d="M162.2,300.479h13.712a3.73,3.73,0,0,0,3.73-3.73h0a3.73,3.73,0,0,0-3.73-3.73H162.2Z" transform="translate(-133.722 -267.659)"/><path class="m" d="M157.925,311.75h-9.432a1.317,1.317,0,0,0-1.313,1.313h0a1.317,1.317,0,0,0,1.313,1.313h9.432a1.313,1.313,0,0,0,1.309-1.313h0a1.313,1.313,0,0,0-1.309-1.313Z" transform="translate(-124.605 -279.027)"/></g><g transform="translate(11.598 156.353)"><path class="n" d="M59.689,422.367H45.651a.527.527,0,0,1-.531-.531h0a.527.527,0,0,1,.531-.527H59.689Z" transform="translate(-45.12 -419.478)"/><path class="n" d="M79.5,422.367H96.007a.527.527,0,0,0,.531-.531h0a.527.527,0,0,0-.531-.527H79.5Z" transform="translate(-65.988 -419.478)"/><path class="n" d="M80,420.123H91.276c-1.21,0-2.193-.165-2.193-.369h0c0-.208.983-.373,2.193-.373H80Z" transform="translate(-66.292 -418.307)"/><path class="n" d="M85.586,420.123H74.31c1.21,0,2.2-.165,2.2-.369h0c0-.208-.986-.373-2.2-.373H85.586Z" transform="translate(-62.838 -418.307)"/><path class="n" d="M84.78,424.683H96.06c-1.214,0-2.2-.165-2.2-.369h0c0-.208.983-.373,2.2-.373H84.78Z" transform="translate(-69.193 -421.075)"/><path class="n" d="M90.42,424.683H79.14c1.214,0,2.2-.165,2.2-.369h0c0-.208-.983-.373-2.2-.373H90.42Z" transform="translate(-65.77 -421.075)"/><path class="n" d="M74.729,417.723H60.69a.531.531,0,0,1-.531-.542h0a.531.531,0,0,1,.531-.531H74.729Z" transform="translate(-54.249 -416.65)"/><path class="n" d="M95.89,417.723h14.039a.531.531,0,0,0,.546-.542h0a.531.531,0,0,0-.527-.531H95.89Z" transform="translate(-75.937 -416.65)"/><path class="n" d="M84.493,426.9H70.451a.527.527,0,0,1-.531-.531h0a.527.527,0,0,1,.531-.527H84.493Z" transform="translate(-60.173 -422.228)"/><path class="n" d="M105.64,426.9h14.039a.527.527,0,0,0,.531-.531h0a.527.527,0,0,0-.531-.527H105.64Z" transform="translate(-81.855 -422.228)"/><path class="n" d="M102.1,428.5h-7.86c-.605,0-1.1.083-1.1.185h0c0,.1.491.189,1.1.189h7.86c.605,0,1.1-.086,1.1-.189h0C103.193,428.583,102.7,428.5,102.1,428.5Z" transform="translate(-74.267 -423.843)"/></g><g transform="translate(178.96 156.762)"><path class="n" d="M487.439,424.065H471.561a.6.6,0,0,1-.6-.6h0a.6.6,0,0,1,.6-.6h15.878Z" transform="translate(-470.96 -420.834)"/><path class="n" d="M509.85,424.065h18.688a.6.6,0,0,0,.6-.6h0a.6.6,0,0,0-.6-.6H509.85Z" transform="translate(-494.566 -420.834)"/><path class="n" d="M510.36,421.585h12.757c-1.372,0-2.484-.189-2.484-.424h0c0-.232,1.112-.421,2.484-.421H510.36Z" transform="translate(-494.875 -419.541)"/><path class="n" d="M516.749,421.585H504c1.372,0,2.484-.189,2.484-.424h0c0-.232-1.112-.421-2.484-.421h12.757Z" transform="translate(-491.015 -419.541)"/><path class="n" d="M515.83,426.7h12.757c-1.372,0-2.484-.189-2.484-.42h0c0-.232,1.112-.421,2.484-.421H515.83Z" transform="translate(-498.195 -422.649)"/><path class="n" d="M522.207,426.7H509.45c1.372,0,2.484-.189,2.484-.42h0c0-.232-1.112-.421-2.484-.421h12.757Z" transform="translate(-494.323 -422.649)"/><path class="n" d="M504.459,418.889H488.577a.6.6,0,0,1-.6-.6h0a.6.6,0,0,1,.6-.6h15.882Z" transform="translate(-481.291 -417.69)"/><path class="n" d="M528.39,418.889h15.882a.6.6,0,0,0,.6-.6h0a.6.6,0,0,0-.6-.6H528.39Z" transform="translate(-505.819 -417.69)"/><path class="n" d="M515.519,429.245h-15.9a.6.6,0,0,1-.6-.6h0a.6.6,0,0,1,.6-.6h15.9Z" transform="translate(-487.992 -423.978)"/><path class="n" d="M539.43,429.245h15.882a.6.6,0,0,0,.6-.6h0a.6.6,0,0,0-.6-.6H539.43Z" transform="translate(-512.52 -423.978)"/><path class="n" d="M535.4,431.06h-8.91c-.684,0-1.238.094-1.238.208h0c0,.118.554.212,1.238.212h8.91c.684,0,1.238-.094,1.238-.212h0C536.636,431.154,536.081,431.06,535.4,431.06Z" transform="translate(-503.913 -425.805)"/></g><rect class="f" width="24.053" height="26.395" transform="translate(105.658 120.129)"/><rect class="o" width="24.053" height="9.912" transform="translate(105.658 119.937)"/><rect class="p" width="125.207" height="91.903" rx="34.87" transform="translate(55.081 34.491)"/><rect class="q" width="110.021" height="75.463" transform="translate(62.678 42.713)"/><path class="r" d="M296.518,379.218h-68.1l.5-1.458a13.693,13.693,0,0,1,12.942-9.22h41.208a13.693,13.693,0,0,1,12.942,9.221Z" transform="translate(-144.782 -231.095)"/><path class="s" d="M283.845,411.9H171.12l9.515-19.949h92.819Z" transform="translate(-110.002 -245.304)"/><path class="n" d="M286.771,411.332H186.32l7.019-15.2h86.412Z" transform="translate(-119.228 -247.841)"/><path class="s" d="M300.675,427.1h-47.3l.7-2.531h45.9Z" transform="translate(-159.933 -265.104)"/><path class="s" d="M203.022,427.1h-7.1l1.128-2.531h7.094Z" transform="translate(-125.055 -265.104)"/><path class="s" d="M216.236,418.381H199.82l1.191-2.531H217.03Z" transform="translate(-127.423 -259.811)"/><path class="s" d="M215.692,409.275H203.98l1.238-2.531,11.24,0Z" transform="translate(-129.948 -254.281)"/><path class="s" d="M405.593,409.275H393.606l-.766-2.535h11.6Z" transform="translate(-244.583 -254.281)"/><path class="s" d="M250.591,409.275H243.67l.7-2.535h6.744Z" transform="translate(-154.039 -254.281)"/><path class="s" d="M215.221,400.175H208.3l1.108-2.535h6.842Z" transform="translate(-132.57 -248.758)"/><path class="s" d="M240.661,400.175H233.74l.955-2.535H241.4Z" transform="translate(-148.011 -248.758)"/><path class="s" d="M263.911,400.175H256.99l.676-2.535h6.709Z" transform="translate(-162.124 -248.758)"/><path class="s" d="M287.621,400.175H280.7l.389-2.535H287.8Z" transform="translate(-176.515 -248.758)"/><path class="s" d="M311.1,400.175H304.18l.106-2.535h6.709Z" transform="translate(-190.767 -248.758)"/><path class="s" d="M334.532,400.175h-6.921l-.181-2.535h6.709Z" transform="translate(-204.88 -248.758)"/><path class="s" d="M357.351,400.175H350.43l-.46-2.535h6.709Z" transform="translate(-218.561 -248.758)"/><path class="s" d="M380.612,400.175h-6.921l-.751-2.535h6.709Z" transform="translate(-232.504 -248.758)"/><path class="s" d="M408.889,400.2l-6.89-.027-1.03-2.535h6.709Z" transform="translate(-249.517 -248.758)"/><path class="s" d="M274.751,409.275H267.83l.456-2.535h6.744Z" transform="translate(-168.704 -254.281)"/><path class="s" d="M299.361,409.275H292.44l.208-2.535h6.744Z" transform="translate(-183.641 -254.281)"/><path class="s" d="M323.466,409.275h-6.921l-.035-2.535h6.744Z" transform="translate(-198.252 -254.281)"/><path class="s" d="M347.47,409.275h-6.921l-.279-2.535h6.744Z" transform="translate(-212.673 -254.281)"/><path class="s" d="M371.254,409.275h-6.921l-.523-2.535h6.744Z" transform="translate(-226.962 -254.281)"/><path class="s" d="M261.779,418.381H254.06l.7-2.531h7.491Z" transform="translate(-160.345 -259.811)"/><path class="s" d="M286.835,418.381H279.56l.4-2.531h7.063Z" transform="translate(-175.824 -259.811)"/><path class="s" d="M402.98,418.381H386.564l-.794-2.531h16.063Z" transform="translate(-240.291 -259.811)"/><path class="s" d="M336.028,418.381h-7.723l-.165-2.531h7.491Z" transform="translate(-205.311 -259.811)"/><path class="s" d="M311.449,418.381H303.73l.122-2.531h7.491Z" transform="translate(-190.494 -259.811)"/><path class="s" d="M360.629,418.381h-7.275l-.464-2.531h7.062Z" transform="translate(-220.334 -259.811)"/><path class="s" d="M234.058,427.1h-7.1l1.01-2.531h6.89Z" transform="translate(-143.896 -265.104)"/><path class="s" d="M388.61,427.1h-7.1l-.8-2.531h6.89Z" transform="translate(-237.22 -265.104)"/><path class="s" d="M421.034,427.1h-6.98l-1.124-2.531h6.89Z" transform="translate(-256.777 -265.104)"/><path class="t" d="M171.14,442.52H283.88a2.46,2.46,0,0,1-2.46,2.46H173.6a2.46,2.46,0,0,1-2.46-2.46Z" transform="translate(-110.014 -275.999)"/><g class="u" transform="translate(144.716)"><path class="v" d="M385,32.756a2.847,2.847,0,0,0,1.784-1.136c.487-.892.81-5.184,2.268-5.349s1.541,2.028,1.541,2.028.161-9.48,4.779-9.48,4.716,8.426,4.716,8.426-.326-2.594,1.619-2.751,1.765,4.221,1.765,4.221.161-2.107,1.7-2.107,1.647,2.507,1.7,3.321c.134,2.107,4.618,2.916,4.618,2.916Z" transform="translate(-384.54 -18.82)"/><path class="c" d="M407.87,36.4a1.234,1.234,0,0,0,.786-.5c.208-.393.35-2.248.983-2.319s.668.876.668.876.071-4.115,2.075-4.115,2.044,3.659,2.044,3.659-.141-1.124.7-1.179.786,1.828.786,1.828.071-.916.739-.916.7,1.077.7,1.427c.059.916,2,1.269,2,1.269Z" transform="translate(-398.422 -25.819)"/><path class="k" d="M383.83,34.65a2,2,0,0,0,1.258-.786c.342-.629.57-3.659,1.6-3.773s1.085,1.431,1.085,1.431.114-6.681,3.372-6.681,3.313,5.942,3.313,5.942-.228-1.831,1.144-1.965,1.265,2.975,1.265,2.975.118-1.486,1.2-1.486,1.222,1.769,1.2,2.358c-.063,1.655,3.258,2.059,3.258,2.059Z" transform="translate(-383.83 -22.474)"/></g><g class="u" transform="translate(0 18.271)"><path class="m" d="M15.61,86.918a4.429,4.429,0,0,0,2.751-1.761c.739-1.368,1.254-8.041,3.537-8.293s2.386,3.144,2.386,3.144.252-14.7,7.412-14.7,7.283,13.064,7.283,13.064-.5-4.021,2.515-4.272,2.751,6.532,2.751,6.532.263-3.262,2.653-3.262,2.511,3.895,2.637,5.152S56.7,87.048,56.7,87.048Z" transform="translate(-15.61 -65.31)"/><path class="c" d="M31.63,99.609a4.189,4.189,0,0,0,2.448-1.246c.668-.979,1.112-5.679,3.113-5.856s2.11,2.217,2.11,2.217.224-10.383,6.563-10.383,6.445,9.232,6.445,9.232-.444-2.842,2.224-3.018,2.448,4.614,2.448,4.614.22-2.307,2.335-2.307,2.224,2.751,2.335,3.639,6.339,3.2,6.339,3.2Z" transform="translate(-25.334 -76.861)"/><path class="w" d="M79.914,100.616a4.429,4.429,0,0,1-2.751-1.761c-.739-1.368-1.254-8.041-3.537-8.293s-2.386,3.144-2.386,3.144S70.993,79,63.832,79s-7.287,13.068-7.287,13.068.5-4.021-2.515-4.272-2.751,6.532-2.751,6.532-.252-3.266-2.641-3.266S46.15,94.96,46,96.214c-.5,4.268-7.161,4.524-7.161,4.524Z" transform="translate(-29.71 -73.62)"/></g><path class="x" d="M61.646,404.62l-1.266,2.751a1.962,1.962,0,0,0,1.537,1.27l1.073-2.751A15.466,15.466,0,0,0,61.646,404.62Z" transform="translate(-42.785 -252.995)"/><path class="x" d="M64.4,410.31s-.562.9-.354,1.47.688.825,1.446,1.222c.983.519,1.466,2.751-.2,1.4a6.325,6.325,0,0,1-1.867-2.358,1.362,1.362,0,0,1,.6-1.218Z" transform="translate(-44.615 -256.448)"/><path class="y" d="M92.253,248.7a6.264,6.264,0,0,0,.1.971c.11.668.043.747-.511.578a3.112,3.112,0,0,1-1.749-1.12c-.393-.566-.44-1.179-.1-1.317,0,0-1.78-1.442-1.411-2.311a1.049,1.049,0,0,1,1.348-.593s-.593-1.214.287-1.714,1.254.35,1.737.2.318-.617.786-.719.684.786,1.085.393c1.065-1.049,2.912-.876,2.547.676-.248,1.061-.664,1.721-2.189,1.415-1.026-.208-1.3.208-1.328.975a1.537,1.537,0,0,1-.322,1.03.507.507,0,0,0-.829.393,1.018,1.018,0,0,0,.55,1.144Z" transform="translate(-59.872 -154.53)"/><path class="k" d="M101.895,263.747a13.717,13.717,0,0,1,3.144,4.653,28.916,28.916,0,0,1,1.179,5.942,32.838,32.838,0,0,0,2.24,6.992,14.986,14.986,0,0,1,1.407,5.176c.02,1.493-7.664.071-7.664.071s-3.726-.161-4.142-1.607S99.572,263,99.572,263A4.828,4.828,0,0,1,101.895,263.747Z" transform="translate(-65.619 -167.033)"/><path class="x" d="M112.8,411.87l.362,3a1.943,1.943,0,0,0,1.965.275l-.523-2.893a16.1,16.1,0,0,0-1.8-.381Z" transform="translate(-74.603 -257.395)"/><path class="x" d="M117.475,415.49s0,1.061.472,1.438,1.018.342,1.875.283c1.1-.075,2.692,1.572.558,1.3a6.164,6.164,0,0,1-2.834-1.041,1.272,1.272,0,0,1-.126-1.348Z" transform="translate(-77.324 -259.592)"/><path class="z" d="M63.61,384.926c2.1-1.714,10.273-11.956,10.273-11.956,1.572-1.938,1.666-3.506.707-4.276l-.318-.259c-.959-.766-3.828-.813-3.836-.806a70.738,70.738,0,0,0-9.33,14.687.9.9,0,0,0,.043.876C61.57,383.845,62.474,385,63.61,384.926Z" transform="translate(-43.169 -230.541)"/><path class="aa" d="M100.519,318c-.786-3.058-1.207-5.5-2.916-6.823l-9.432,1.446c-.912,3.91,2.751,7.039,5.4,14.007.452,1.2,1.67,6.151,2.358,8.886.66,2.672,3.007,3.455,4.127,3.022a3.4,3.4,0,0,0,1.965-3.093C102.37,331.467,101.2,320.671,100.519,318Z" transform="translate(-59.566 -196.278)"/><path class="aa" d="M112.281,387.176c1.714-3.836,2.169-15.2,1.851-17.383l-6.052-.393a145.326,145.326,0,0,0,1.179,16.809.979.979,0,0,0,.7.762A4.31,4.31,0,0,0,112.281,387.176Z" transform="translate(-71.738 -231.617)"/><path class="z" d="M87.926,311.9c-.609-3.113-11.307-6.265-9.57,6.968.393,3.038,1.965,14.483,3.262,16.534.523.81,2.952,1.737,3.168,1.419a8.356,8.356,0,0,0,1.006-1.67c1.179-2.669.943-7.314,1.4-10.38C87.572,322.224,88.621,315.48,87.926,311.9Z" transform="translate(-53.58 -195.056)"/><path class="k" d="M75.745,260.555c1.434,1.38,1.808,3.262.715,4.359l-.366.369c-1.089,1.1-3.144.872-4.571-.507L70.29,263.6v-.024a34.526,34.526,0,0,1-6.744-9.24c-.173-.586.7-1.655,1.3-1.5,1.1.287,6.846,4.807,9.672,5.18C74.5,258,75.745,260.555,75.745,260.555Z" transform="translate(-44.693 -160.854)"/><path class="k" d="M103.09,254.384s3.69,5.5,4.716,4.135l2.6-3.824v-.02a24.509,24.509,0,0,0,3.962-9.263c.024-.546-2.5-1.521-3.537.122C109.948,247.086,104.627,252.781,103.09,254.384Z" transform="translate(-68.709 -155.879)"/><path class="ab" d="M98.259,267.085a3.278,3.278,0,0,1-1.529-.825l.031.487,1.073,2.067.935-1.694A2.076,2.076,0,0,1,98.259,267.085Z" transform="translate(-64.849 -169.012)"/><path class="k" d="M118.642,219.725l-.546.181a1.1,1.1,0,0,0-.664,1.407c2.26,7.2,2.079,9.7,2.079,9.7.605,4.74,4.284.648,3.4-1.757,0,0-2.437-7.911-2.991-8.98A1.073,1.073,0,0,0,118.642,219.725Z" transform="translate(-77.375 -140.737)"/><path class="k" d="M71.606,228.018l.9.786a.715.715,0,0,1,.059,1.022,36.2,36.2,0,0,0-2.838,3.561,29.559,29.559,0,0,0-4.1,8.387l-2.185-2.393a1.1,1.1,0,0,1-.275-.963,12.531,12.531,0,0,1,2.814-5.825l1.085-1.144h0a34.512,34.512,0,0,1,3.639-3.427.7.7,0,0,1,.9,0Z" transform="translate(-44.464 -145.701)"/><path class="g" d="M88.185,264c.483,0,2.417,1.592,3.447,4.716.88,2.688,1.5,9.731,1.678,14.636.051,1.3-2.944,1.372-6.288,1.356-3.144,0-7.99-.157-8.037-1.332-.1-2.393,2.154-11.79,2.519-13.795,2.252-4.9,4.2-5.318,4.41-5.4Z" transform="translate(-54.075 -167.64)"/><path class="k" d="M78.646,263.141l.228-.464a4.687,4.687,0,0,0-2.7.613,22.728,22.728,0,0,1-2.5,1.073,4.981,4.981,0,0,0-2.075.456c-1.67,1.867.393,5.329.393,7.625s-.1,2.209-1.474,4.414c-3.144,5.353-5.019,10.195-4.032,10.961s3.246.637,5.656.593,1.67-1.018,1.67-1.659a17.839,17.839,0,0,1-.145-3.95,11.8,11.8,0,0,1,1.816-4.245,19.056,19.056,0,0,0,2.4-4.9c.814-2.775-.491-6.658-.491-6.658a3.607,3.607,0,0,1-.055-2.5,1.525,1.525,0,0,1,.2-.539A1.871,1.871,0,0,1,78.646,263.141Z" transform="translate(-46.329 -166.825)"/><path class="ac" d="M99.611,261.526a2.413,2.413,0,0,1-3.1-.35l.362-1.226.027-1.23,3.144,1.014S99.5,260.194,99.611,261.526Z" transform="translate(-64.715 -164.435)"/><path class="ad" d="M99.029,260.129c.24.393.558,1.14,1.014,1.328a.872.872,0,0,0,.715,0,9.1,9.1,0,0,1,.448-1.721L98.4,258.75a5.949,5.949,0,0,0,.629,1.38Z" transform="translate(-65.862 -164.454)"/><path class="ac" d="M100.312,248.571c.99,3.258-.157,4.787-.684,4.924-1.1.287-3.144-1-3.624-2.393a2.488,2.488,0,0,1,1.179-3.254C98.323,247.44,99.88,247.161,100.312,248.571Z" transform="translate(-64.3 -157.635)"/><path class="y" d="M95.059,250.225a2.436,2.436,0,0,1-.369-.947c.027-.3.118-1.155.393-.511a2.646,2.646,0,0,0,.1.578c.051.071.417-.153.271-.825s-.5-1.266-.295-1.533a1.114,1.114,0,0,0,1.419-.369,1.713,1.713,0,0,0,1.454-.436,1.01,1.01,0,0,0,1.124.193c.578-.271.366-.912.157-1.179s-2-.939-2.649.059a1.685,1.685,0,0,0-1.906.232,5.376,5.376,0,0,0-1.246,2.315,4.449,4.449,0,0,0,.511,2.488C94.336,250.614,95.059,250.225,95.059,250.225Z" transform="translate(-62.875 -155.94)"/><path class="ac" d="M85.3,224.969a6.449,6.449,0,0,1-.892.735c-.043,0-.346.2-.786-.295a.664.664,0,0,1-.185-.656,4.718,4.718,0,0,1,.715-.637.531.531,0,0,1-.051-.35,1.666,1.666,0,0,1,.428-.841A3.4,3.4,0,0,1,85.58,221.9c.417-.173.46.094.46.094a.314.314,0,0,1,.314-.051.428.428,0,0,1,.24.255.648.648,0,0,1,.369,0,.491.491,0,0,1,.212.267s.22-.169.393-.024,0,.59-.051.7l-.212.33s.464.075.393.244c-.031.09-.476.393-.656.747a1.136,1.136,0,0,1-.892.542A4.131,4.131,0,0,1,85.3,224.969Z" transform="translate(-56.764 -142.051)"/><path class="ac" d="M114.982,214.762a6.748,6.748,0,0,0,.5,1.049c.039.028.232.33.829.059a.66.66,0,0,0,.448-.515,4.624,4.624,0,0,0-.393-.876.539.539,0,0,0,.193-.3,1.627,1.627,0,0,0-.031-.943,3.364,3.364,0,0,0-.515-1.376c-.307-.334-.46-.11-.46-.11a.322.322,0,0,0-.263-.181.44.44,0,0,0-.326.13.656.656,0,0,0-.334-.153.5.5,0,0,0-.307.149s-.126-.244-.35-.189-.267.527-.252.66.051.393.051.393-.452-.13-.468.051a4.166,4.166,0,0,1,.283.955,1.12,1.12,0,0,0,.574.869A3.933,3.933,0,0,0,114.982,214.762Z" transform="translate(-74.906 -135.773)"/><path class="ae" d="M259.974,280.942l-41.911.487-.652-8.379,43.153.476Z" transform="translate(-138.099 -173.134)"/><path class="af" d="M263.7,278.456l-41.911.487-.652-8.383,43.153.479Z" transform="translate(-140.363 -171.622)"/><path class="ag" d="M258.45,279.755l-31.3.232a.967.967,0,0,1-.963-.786l-.645-3.745a.971.971,0,0,1,.955-1.155l31.559.161a.963.963,0,0,1,.955.857l.393,3.356a.967.967,0,0,1-.955,1.081Z" transform="translate(-143.025 -173.892)"/><path class="s" d="M318.921,275.73a1.572,1.572,0,0,0-1.6,1.615,1.616,1.616,0,0,0,.295.9l-1.179,1.179h0a.283.283,0,0,0,0,.393.287.287,0,0,0,.393,0h0l1.179-1.144a1.67,1.67,0,0,0,.955.3,1.572,1.572,0,0,0,1.6-1.611A1.659,1.659,0,0,0,318.921,275.73Zm.051,2.79a1.21,1.21,0,0,1-1.207-1.179,1.155,1.155,0,0,1,1.179-1.179,1.206,1.206,0,0,1,1.207,1.179,1.151,1.151,0,0,1-1.183,1.179Z" transform="translate(-198.159 -174.76)"/><path class="ah" d="M277.529,190.863l-31.921,1.765-5.958-39.722,34.715-.586Z" transform="translate(-151.599 -99.852)"/><path class="ai" d="M234.361,215.691l-23.833,11.472-8.308-13.386,26.037-10.737Z" transform="translate(-128.879 -130.639)"/><path class="ah" d="M335.906,155.045l-37.266.224L296.2,106.28h43.216Z" transform="translate(-185.924 -71.907)"/><path class="aj" d="M247.152,186.166l29.574-1.348-.244-40.878-35.643,2.621Z" transform="translate(-152.321 -94.766)"/><path class="ak" d="M332.6,148l-38.068-.173L292.99,97.3l42.383,1.14Z" transform="translate(-183.975 -66.456)"/><path class="ah" d="M309,153.772l-39.553.236L267.01,97.3h43.212Z" transform="translate(-168.206 -66.456)"/><path class="al" d="M259.236,214.323l-4.4-13.543-6.076,8.855a2.279,2.279,0,0,0,1.5,3.5Z" transform="translate(-156.899 -129.267)"/><path class="al" d="M210.579,239.432,202.22,226.6l11.932,1.545a2.318,2.318,0,0,1,1.792,3.443Z" transform="translate(-128.879 -144.939)"/><path class="am" d="M223.49,240.976l20.637-9.432-11-2.315a3.514,3.514,0,0,0-3.8,1.662Z" transform="translate(-141.79 -146.483)"/><path class="k" d="M202.21,210.9,226.8,200.75l-5.993,12.577a3.058,3.058,0,0,1-3.749,1.67Z" transform="translate(-128.873 -129.249)"/><path class="e" d="M304.034,148.8l-39.553.24L262.04,92.33h43.212Z" transform="translate(-165.189 -63.439)"/><path class="an" d="M293.67,126.528c5.958-.688,15.328-.393,24.206.216" transform="translate(-184.388 -83.956)"/><path class="an" d="M278.23,152.237a80.6,80.6,0,0,1,8.752-.574c4.822-.079,7.467-.165,11.162-.322a74.148,74.148,0,0,1,10.218.393" transform="translate(-175.016 -99.227)"/><path class="an" d="M278.23,146.25a80.607,80.607,0,0,1,8.752-.574c4.822-.079,7.467-.165,11.162-.318a72.925,72.925,0,0,1,10.218.393" transform="translate(-175.016 -95.594)"/><path class="an" d="M278.23,139.984a80.61,80.61,0,0,1,8.753-.558c4.822-.079,7.467-.165,11.162-.318a72.939,72.939,0,0,1,10.218.393" transform="translate(-175.016 -91.801)"/><path class="an" d="M308.343,133.35a80.611,80.611,0,0,0-8.752-.574c-4.818-.079-7.467-.165-11.162-.318a72.565,72.565,0,0,0-10.2.393" transform="translate(-175.016 -87.764)"/><path class="an" d="M293.67,161.73c5.958-.684,15.328-.393,24.206.216" transform="translate(-184.388 -105.325)"/><path class="an" d="M278.23,187.44a80.615,80.615,0,0,1,8.752-.574c4.822-.079,7.467-.165,11.162-.318a72.934,72.934,0,0,1,10.218.393" transform="translate(-175.016 -120.596)"/><path class="an" d="M278.23,181.455a79.89,79.89,0,0,1,8.753-.578c4.822-.079,7.467-.161,11.162-.318a73.528,73.528,0,0,1,10.218.393" transform="translate(-175.016 -116.961)"/><path class="an" d="M278.23,175.165a79.867,79.867,0,0,1,8.753-.578c4.822-.079,7.467-.161,11.162-.318a73.537,73.537,0,0,1,10.218.393" transform="translate(-175.016 -113.143)"/><path class="an" d="M308.343,168.535a79.873,79.873,0,0,0-8.752-.578c-4.818-.079-7.467-.161-11.162-.318a73.164,73.164,0,0,0-10.2.393" transform="translate(-175.016 -109.118)"/><circle class="ao" cx="16.597" cy="16.597" r="16.597" transform="translate(151.759 36.024) rotate(-45)"/><circle class="aa" cx="14.88" cy="14.88" r="14.88" transform="translate(161.738 19.124)"/><path class="q" d="M440.587,66.048a14.88,14.88,0,1,1-14.876,14.878,14.88,14.88,0,0,1,14.876-14.878m0-.928a15.807,15.807,0,1,0,15.807,15.807A15.807,15.807,0,0,0,440.587,65.12Z" transform="translate(-263.97 -46.923)"/><circle class="z" cx="10.706" cy="10.706" r="10.706" transform="matrix(0.372, -0.928, 0.928, 0.372, 162.717, 39.974)"/><circle class="g" cx="7.896" cy="7.896" r="7.896" transform="translate(168.722 26.108)"/><circle class="h" cx="4.928" cy="4.928" r="4.928" transform="translate(171.689 29.075)"/><path class="h" d="M494.948,61.85,494.28,58.4l4.873-4.873.668,3.447Z" transform="translate(-306.155 -39.888)"/><path class="h" d="M496.2,67.393l3.443.668,4.877-4.873-3.447-.668Z" transform="translate(-307.32 -45.345)"/><rect class="ap" width="0.373" height="24.414" transform="translate(193.758 16.823) rotate(45)"/><path class="aq" d="M419.647,190.175,409.48,172.69l9.126,12.632Z" transform="translate(-254.683 -112.217)"/><path class="al" d="M426.517,183.182S412.7,175.05,409.48,172.7c0,0,3.242,13.209,3.537,17.414l5.581-4.787,1.965-1.053Z" transform="translate(-254.683 -112.223)"/><path class="ar" d="M419.647,190.175l-1.041-4.854L409.48,172.69l11.1,11.578Z" transform="translate(-254.683 -112.217)"/><path class="al" d="M435.76,218.682l.248-.1a7.08,7.08,0,0,1,.267.786l-.259.075A6.569,6.569,0,0,0,435.76,218.682Z" transform="translate(-270.634 -140.071)"/><path class="al" d="M385.681,248.255l.153-.267.232.13c-.047.09-.1.177-.145.263-.2.393-.393.786-.6,1.179l-.24-.114C385.261,249.057,385.469,248.652,385.681,248.255Zm.994-1.67c.3-.464.625-.92.959-1.348l.212.165c-.326.421-.645.869-.947,1.328Zm2.024-2.614q.56-.59,1.179-1.179l.181.2c-.393.362-.786.747-1.152,1.152Zm2.441-2.228c.44-.334.9-.648,1.368-.935l.138.228c-.46.283-.912.593-1.344.92Zm2.814-1.737a16.407,16.407,0,0,1,1.517-.664l.094.248c-.507.2-1.01.417-1.493.656Zm3.034-1.277c.511-.22,1-.46,1.47-.707l.126.236c-.472.252-.971.491-1.49.719Zm8.627-14.015.263-.043a13.752,13.752,0,0,1,.177,1.647h-.267A14.064,14.064,0,0,0,405.615,224.713Zm-5.75,12.486a16.281,16.281,0,0,0,1.324-.951l.169.208a15.952,15.952,0,0,1-1.348.967Zm5.9-9.244.267.02a11.817,11.817,0,0,1-.248,1.643l-.259-.059a11.935,11.935,0,0,0,.236-1.615Zm-3.352,7.208a12.931,12.931,0,0,0,1.069-1.222l.212.161a12.5,12.5,0,0,1-1.092,1.25Zm2.645-4.048.252.094a11.629,11.629,0,0,1-.7,1.505l-.236-.13a11.087,11.087,0,0,0,.684-1.47Z" transform="translate(-239.873 -143.768)"/><path class="ac" d="M325.152,218.832l.181-.66c.039-.13.181-.393.393-.393h.134c0,.224-.13,1.045-.157,1.34a10.946,10.946,0,0,1-.99,1.745l.393.88-1.379.3-.181-.861-.393-.786-.582-1.812.079-.216a.279.279,0,0,1,.106-.138l.145-.1.13-.393a.244.244,0,0,1,.169-.157l.24-.059a.224.224,0,0,0,.134-.087l.142-.189a.142.142,0,0,1,.086-.043,1,1,0,0,1,.393.067L324,215.6a1.04,1.04,0,0,1,0-.33l.031-.138a.161.161,0,0,1,.283-.067,1.277,1.277,0,0,1,.259.558l.346,1.784A4.355,4.355,0,0,1,325.152,218.832Z" transform="translate(-201.93 -137.902)"/><path class="c" d="M330.44,254.975c.177-.161,3.808-.719,4.146-.436,1.8,1.513,9.5,5.809,9.5,5.809,1.407.861-.134,3.329-.134,3.329-.833,1.23-.762,3.1-2.169,2.24l-4.5-3.164h-.02a26.667,26.667,0,0,1-6.119-5.5,2.188,2.188,0,0,1-.424-.849C330.6,255.9,330.526,255.458,330.44,254.975Z" transform="translate(-206.707 -161.849)"/><path class="c" d="M325.054,230.942l.786-.248a.645.645,0,0,1,.719.283,81.773,81.773,0,0,1,3.6,7.621c2.252,3.537,1.234,4.056-.134,4.587l-.46.177c-1.38.534-2.751-1.116-3.431-3.573,0,0-1.242-5.9-1.529-8.108A.664.664,0,0,1,325.054,230.942Z" transform="translate(-203.16 -147.41)"/><path class="ac" d="M385.328,410.2a1.007,1.007,0,0,1,.02.5,3.191,3.191,0,0,1-1.462,1.721,2.484,2.484,0,0,0-1.045.755l2.728-.707,1.423-1.812a2.268,2.268,0,0,0,.055-1.285,8.4,8.4,0,0,0-.468-1.112l-1.666.743Z" transform="translate(-238.513 -255.204)"/><path class="x" d="M370.268,360.439c-1.234-4.641-5.691-18.511-5.828-18.865.141-1.293,1.234-6.56.971-9.735-.346-4.2-9.928-2.991-9.621.283a36.022,36.022,0,0,0,1.513,6.842c.531,1.863,1.509,5.16,1.521,5.188.311.786,6.858,13.363,9.539,17.269a3.836,3.836,0,0,0,1.246-.393A1.572,1.572,0,0,0,370.268,360.439Z" transform="translate(-222.089 -207.186)"/><path class="x" d="M359.6,322.964a25.208,25.208,0,0,1,1.1,7.577c.055,2.566.413,2.625,0,5.188-.322,2.079-1.23,4.492-1.438,6.2a36.419,36.419,0,0,1-3.144-7.416,46.454,46.454,0,0,1-1.619-11.229,13.511,13.511,0,0,1,.122-1.906C356.307,321.891,357.958,322.41,359.6,322.964Z" transform="translate(-221.31 -202.469)"/><path class="x" d="M341.939,345.744c.259-2.971,8.253-2.857,7.762-.68a31.051,31.051,0,0,1-2.437,6.634c.024.672.861,15.638.417,20.948,0,0-1.128.9-1.851.487a133.775,133.775,0,0,1-2.924-14.416v-.039l-1.112-6.025A62.364,62.364,0,0,1,341.939,345.744Z" transform="translate(-213.564 -215.876)"/><path class="k" d="M355.719,322.637c-3.694.814-7.57,1.572-11.287.758a32,32,0,0,1-3.742-1.081c0-1.729.11-3.459.2-4.928a46.135,46.135,0,0,1,1.572-9.432c.786-3.172,2.11-5.467,4.979-4.85l.161.031a3.325,3.325,0,0,1,2.425-1.643s.106-.326.762-.114c1.179.393,6.339,2.751,6.642,7.436.224,3.537-1.3,8.167-1.548,11.68C355.821,321.171,355.774,321.895,355.719,322.637Z" transform="translate(-212.928 -190.285)"/><path class="ad" d="M401.545,331.641l1.391,1.179a.278.278,0,0,0,.153.063l.444.039a.283.283,0,0,1,.122.043l.224.138a.268.268,0,0,0,.153.043h.562a.276.276,0,0,0,.185-.075l.118-.11-3.038-1.749a.275.275,0,0,0-.393.106h0A.279.279,0,0,0,401.545,331.641Z" transform="translate(-249.806 -208.411)"/><path class="ac" d="M396.472,327.522l.263.975a1.4,1.4,0,0,0,.051.138l.806,1.824a.079.079,0,0,0,.145,0l.067-.181a.719.719,0,0,0,.039-.365l-.09-.586.22-.291a.566.566,0,0,1,.44-.185l.393.185,1.474.613a1.256,1.256,0,0,0,.448.1h.208a.071.071,0,0,0,.043-.126l-1.623-1.234L397.5,327l-.892-.393-.476.424Z" transform="translate(-246.58 -205.644)"/><path class="c" d="M372.089,277.778c-.865-1.706-.562-3.675.676-4.406l.413-.244c1.234-.731,2.936.059,3.8,1.761l.747,1.47v.024a35.557,35.557,0,0,1,3.238,10.792c0,.6-.181.955-.393,1.077s-.578.09-1.053-.224a33.092,33.092,0,0,1-6.681-8.76v-.024Z" transform="translate(-231.688 -173.016)"/><path class="c" d="M390.606,310.291l-.786.3a.869.869,0,0,1-1.03-.448c-.939-1.651-2.637-5.5-2.637-5.5-1.313-2.319-1.67-5.262-.365-5.809l.44-.185c1.313-.55,2.7,1.4,3.4,3.993,0,0,1.159,4.359,1.572,6.422A1.049,1.049,0,0,1,390.606,310.291Z" transform="translate(-239.806 -188.613)"/><path class="ac" d="M354.635,246.809a8.541,8.541,0,0,0,1.458,3.714c.566.648.986.228,1.572-.031a4.072,4.072,0,0,0,2.464-3.855c-.059-1.839-1.784-3.8-3.3-3.757S354.576,244.97,354.635,246.809Z" transform="translate(-221.391 -154.82)"/><path class="ac" d="M358.573,257.994l-3.513-.413a4.492,4.492,0,0,0,.479-3.584l2.92-.287S359.183,256.689,358.573,257.994Z" transform="translate(-221.651 -161.394)"/><path class="y" d="M383.838,413.582c.373,0,.735-.743.884-.869-.031.118.153.428.295.362.605-.393.511-1.615.511-1.631h0s.448-.759.743-.849.366.047.468.181a2.044,2.044,0,0,1,.181.68l.739,2.044s-.059.546-.534.13l-.6-.766a3.031,3.031,0,0,1-.436.739,6.074,6.074,0,0,1-2.688,1.34C381.307,415.453,382.738,413.629,383.838,413.582Z" transform="translate(-238.202 -256.604)"/><path class="ac" d="M349.358,414.9s0,.727-.031,1.336a2.72,2.72,0,0,1-.366,1.144l-1.741,1.489-2.81.161a2.464,2.464,0,0,1,1.179-.535,3.274,3.274,0,0,0,1.8-1.356,1.377,1.377,0,0,0,.094-.531l-.35-1.34S348.965,415.4,349.358,414.9Z" transform="translate(-215.186 -259.234)"/><path class="y" d="M345.588,419.829c.369.059,1.03-.731,1.2-.825-.055.11-.3.479-.083.393.672-.283.955-1.317.959-1.328h0s.59-.656.892-.684.354.114.428.263a2.127,2.127,0,0,1,.043.7l.322,2.15s-.161.523-.55.024l-.452-.869a3.147,3.147,0,0,1-.57.641,5.9,5.9,0,0,1-2.9.786C342.743,421.161,344.5,419.664,345.588,419.829Z" transform="translate(-214.859 -260.74)"/><path class="c" d="M360.058,280.541s-3.71,3.91-14.318.645c0,0,2.405-9.947,2.079-11.236s-1.368-1.572-1.081-2.555a35.808,35.808,0,0,1,3.144-7.074c.546-.652,2.488-.157,3.679-.648-.1.7.295,1.266.99,1.179a2.162,2.162,0,0,0,2.04-1.851c3.317,1.124,4.677,3.462,4.559,4.61-.279,2.783-2.507,9.825-2.507,11.079C358.631,276.293,360.058,280.541,360.058,280.541Z" transform="translate(-215.994 -164.605)"/><path class="y" d="M364.318,251.537h-3.753c-1.03-1.509-2.712-2.527-3.459-4.233-.157-.362.287-1.179-.079-1.3.263-.786-.252-1.8-.244-2.834,0-.884-2.413-2.3,1.073-2.429s6.123,3.486,5.915,5.086a3.674,3.674,0,0,0,.546,2.177Z" transform="translate(-222.203 -153.523)"/><path class="y" d="M355.841,248.271s-1.277-1.572-.24-2.936,2.983-2.559,6.335.483A8.923,8.923,0,0,0,365.23,247c.719.122,2.008.621,1.379,3.624s-.951,3.777.912,5.447,3.447,3.517-.66,7.715-7.4,3.018-10.038,1.965-3.663-3.891-2.787-5.75a4.262,4.262,0,0,0-.2-4.567,5.5,5.5,0,0,1,2.008-7.161Z" transform="translate(-220.545 -155.449)"/><path class="ac" d="M358.406,249.909c-.024.786-.059,1.254-.362,1.277-.621.051-.605-.857-.562-1.4s.287-.9.586-.872S358.425,249.307,358.406,249.909Z" transform="translate(-223.11 -158.485)"/><path class="ac" d="M182.2,144.36c-.664,1.659-1.222,3.124-1.572,4.17a2.38,2.38,0,0,0,1.572.574c.578-.735,1.725-2.441,3.014-4.414Q183.715,144.541,182.2,144.36Z" transform="translate(-115.775 -95.021)"/><path class="ac" d="M180.841,151.71l-.751,1.757,1.328,2.511,2.095.511-1.073-1.356a.81.81,0,0,1-.169-.538l.118-2.142Z" transform="translate(-115.447 -99.482)"/><path class="x" d="M178.365,157.237l-.259-.189a.951.951,0,0,1-.393-.617l-.263-1.607-.837,1.148-.342-.255.629-1.521a1.356,1.356,0,0,1,.751-.739l.393-.153a.173.173,0,0,1,.228.114l.071,1.179a3.866,3.866,0,0,0,.554,1.482l.664.476c.318.161.739-.047.951.028l.676.6a1.006,1.006,0,0,1,.358.884Z" transform="translate(-113.128 -100.442)"/><path class="ac" d="M219.545,154.37l-.055,1.548,2.94,1.112-1.513-2.559Z" transform="translate(-139.362 -101.097)"/><path class="x" d="M223.461,159.151h-2.7a.88.88,0,0,1-.629-.263l-1.1-1.093v1.348h-.393l-.362-1.521a1.285,1.285,0,0,1,.169-.986l.2-.326a.165.165,0,0,1,.24-.035l1.548,1.258a2.044,2.044,0,0,0,1.041.444l.318.039a3.035,3.035,0,0,1,.676.165l.393.157a1.376,1.376,0,0,1,.189.13,1.431,1.431,0,0,1,.314.338l.157.24a.079.079,0,0,1-.067.106Z" transform="translate(-138.605 -102.23)"/><path class="ac" d="M217.14,144.525c.393,1.757.755,3.262,1.014,4.225,0,0,.845.566,1.4.087.09-.786.161-2.46.212-4.476Z" transform="translate(-137.936 -95.021)"/><path class="z" d="M186.094,96.752s1.285,9.291,3.584,14.624a15.721,15.721,0,0,0,3.219.09s-1.379-15.54-1.93-17.014a7.047,7.047,0,0,0-2.393-3.309,94.686,94.686,0,0,0-10.757-5.5c-1.93-.629-5.612.09-5.612.09s-.92,2.393-.09,3.588S186.094,96.752,186.094,96.752Z" transform="translate(-110.396 -59.223)"/><path class="as" d="M167.434,86.769a8.849,8.849,0,0,0-1.1,3.679,3.787,3.787,0,0,0,2.944,4.048c2.3.645,9.287,1.47,9.287,1.47l-6.528,15.359a5.926,5.926,0,0,0,3.4.735s5.333-8.646,7.074-11.036,1.934-5.058,1.379-6.347-7.813-6.618-9.931-7.632S167.434,86.769,167.434,86.769Z" transform="translate(-107.095 -59.906)"/><path class="y" d="M171.837,45.608s-4.59,2.287-7.322-.228-2.606-3.891-2.232-4.921c-.621-1.6,1.242-4.693,3.969-4.693,0,0,1.3-1.144,1.242-2.291s.326-3.49,2.995-3.2,2.578,1.093,2.527,1.717a2.434,2.434,0,0,0,.436,2,6.033,6.033,0,0,1,1.49,4.021C175.021,40.287,176.679,43.034,171.837,45.608Z" transform="translate(-104.518 -25.757)"/><path class="y" d="M178.528,27.008a1.8,1.8,0,0,0,.33-2.079c-.66-1.041-1.965-1.965-4.528,0a6.367,6.367,0,0,1-2.405.66c-.519.051-1.462.33-1.179,2.5s.472,2.751-.943,3.82-2.641,2.311.047,5.5,5.109,2.547,7.027,1.934,4.15-2.783,3.632-4.15-1.348-1.769-.955-2.995S180.509,28.62,178.528,27.008Z" transform="translate(-108.265 -21.828)"/><path class="k" d="M198.841,46.182a26.792,26.792,0,0,1-.44,4.752l-.232,1.572c-.346,2.358-.9,4.127-2.095,4.559a1.831,1.831,0,0,1-1.757-.55,18.789,18.789,0,0,1-4.818-5.373s-2.417-5.561-1.749-5.982a7.953,7.953,0,0,1,1.808,1.179,48.968,48.968,0,0,1,5.015,6.721c1.081,1.8,2.39-5.5,2.889-6.842C197.461,46.229,198.731,45.789,198.841,46.182Z" transform="translate(-120.025 -34.808)"/><path class="ac" d="M214.108,42.7l.118-.373a.656.656,0,0,1,.44-.46h0a1.93,1.93,0,0,0,.546-.31,1.612,1.612,0,0,0,.307-.287h0a3.49,3.49,0,0,0,.578-.688c.024-.031.1-.173.047-.224s-.11,0-.165.031c.083-.1.138-.177.161-.208s.126-.2.071-.255-.173,0-.24.051h-.024a1.46,1.46,0,0,0,.173-.2c.035-.043.1-.185.035-.263s-.185-.028-.267,0a1.207,1.207,0,0,0-.161.122c.043-.063.09-.153.043-.208s-.228,0-.314.051a5.336,5.336,0,0,0-.574.393l-.641.538c.047-.114.075-.189.075-.189l.043-.224c.051-.149,0-.369-.09-.291l-.369.413a.922.922,0,0,0-.149.216l-.444.916-.031.094-.024.122c-.031.118-.063.259-.067.283l-.067.393-.118.751S213.263,43.033,214.108,42.7Z" transform="translate(-135.423 -31.313)"/><path class="aa" d="M166.46,62.861s8.819,2.566,13.036.613c0,0-1.128-7.33-.951-8.45s1.47-1.3,1.442-2.507c-.047-1.753-2.358-4.775-3.679-6.548a6.114,6.114,0,0,0-1.089-.613,6.414,6.414,0,0,0-2.181-.122,5.633,5.633,0,0,0-4.056,2.063c-.786,2.1.578,6.288.193,10.372A47.846,47.846,0,0,0,166.46,62.861Z" transform="translate(-107.174 -34.827)"/><path class="ac" d="M184.782,33a5.279,5.279,0,0,1-2.853.047,1.081,1.081,0,0,1-.861.935s-.047-.189-.393-.024-.33,1.179.542,1.415a4.954,4.954,0,0,1,.259.825,9.462,9.462,0,0,1-.185,1.647,11.174,11.174,0,0,0,2,2.008c.59.259,2.24.943.707-1.792a2.126,2.126,0,0,1-.236-.967s1.014.071.849-1.321A9.529,9.529,0,0,1,184.782,33Z" transform="translate(-115.674 -27.427)"/><path class="ad" d="M184.52,41.72a12.911,12.911,0,0,0,1.965,1.635,2.26,2.26,0,0,1-.236-.967A4.04,4.04,0,0,1,184.52,41.72Z" transform="translate(-118.136 -32.72)"/><rect class="at" width="8.58" height="0.554" transform="translate(64.136 23.137)"/><path class="at" d="M207.513,65.377H198.45L203.3,56.44h9.66l.244.291-4.649,8.041a1.214,1.214,0,0,1-1.045.605Z" transform="translate(-126.591 -41.655)"/><path class="d" d="M208.166,65.826H199.52l4.673-8.646h9.664l-4.186,7.746a1.709,1.709,0,0,1-1.505.9Z" transform="translate(-127.24 -42.104)"/><path class="ad" d="M201.863,80.144s.786-.322.908-.346.248-.047.307,0,0,.216-.362.393a8.045,8.045,0,0,1-1.493.5s-.13-.067-.086-.185S201.51,80.254,201.863,80.144Z" transform="translate(-128.216 -55.816)"/><path class="ac" d="M194.591,77.521a2.709,2.709,0,0,1,.46-.523,7.628,7.628,0,0,0,.707-.468,2.964,2.964,0,0,1,.511-.483c.161-.09.248.248.075.5a4.956,4.956,0,0,0-.393.578c-.031.09-.083.165,0,.287a1.631,1.631,0,0,0,.633.373,1.344,1.344,0,0,0,.452.031c.039,0,.625-.342.829-.464a2.7,2.7,0,0,1,.507-.271c.126-.039.181-.063.248,0s-.043.479-1.089,1.148a2.791,2.791,0,0,1-1.057.362,3.222,3.222,0,0,1-.755-.079,6.892,6.892,0,0,0-1.124.083s-.432.063-.479.075l-.035-1.041A1.375,1.375,0,0,0,194.591,77.521Z" transform="translate(-123.938 -53.547)"/><path class="k" d="M177.632,61.28c-1.364-.177-7.577-.743-7.715-1.757-.161-1.179,1.922-7.562,1.733-8.89s-1.179-1.387-1.179-1.387a1.639,1.639,0,0,0-1.745,1.179,40.883,40.883,0,0,0-1.883,7.074c-.13,1.8-.578,3.282.81,4.366,1.655,1.293,8.336,1.041,9.987.829A4.96,4.96,0,0,1,177.632,61.28Z" transform="translate(-107.301 -37.283)"/><path class="au" d="M217.021,68.592c-.645.028-1.179-.314-1.2-.786s.487-.841,1.132-.869,1.179.314,1.2.786S217.662,68.565,217.021,68.592Z" transform="translate(-137.133 -48.026)"/><path class="av" d="M222.765,378.57l-4.795,2.661,4.787,2.676Z" transform="translate(-138.439 -237.183)"/><path class="aw" d="M219.334,383.42l-1.364.755,1.36.758Z" transform="translate(-138.439 -240.126)"/><rect class="ax" width="5.337" height="8.733" rx="2.669" transform="translate(108.031 146.754) rotate(-89.9)"/><rect class="ay" width="1.78" height="25.015" transform="translate(83.984 142.897) rotate(-90)"/><rect class="az" width="1.78" height="25.015" transform="translate(84.162 144.912) rotate(-89.9)"/><rect class="ba" width="1.78" height="25.015" transform="translate(84.158 146.696) rotate(-89.9)"/><rect class="s" width="5.357" height="1.077" transform="translate(109.804 141.402) rotate(90.1)"/><ellipse class="bb" cx="6.477" cy="3.474" rx="6.477" ry="3.474" transform="translate(88.142 149.924)"/><path class="aa" d="M244.858,408.916c-4.115,0-7.338-1.965-7.338-4.5s3.223-4.5,7.338-4.5,7.338,1.965,7.338,4.5S248.973,408.916,244.858,408.916Zm0-7.86c-3.356,0-6.19,1.533-6.19,3.348s2.834,3.352,6.19,3.352,6.19-1.537,6.19-3.352-2.834-3.337-6.19-3.337Z" transform="translate(-150.306 -250.142)"/><path class="bc" d="M244.858,406.36c-4.115,0-7.338-1.965-7.338-4.5s3.223-4.5,7.338-4.5,7.338,1.965,7.338,4.5S248.973,406.36,244.858,406.36Zm0-7.86c-3.356,0-6.19,1.533-6.19,3.348s2.834,3.348,6.19,3.348,6.19-1.533,6.19-3.348-2.834-3.337-6.19-3.337Z" transform="translate(-150.306 -248.588)"/><path class="y" d="M233.94,417.9l2.566-1.415s.287-.22.845.362a.354.354,0,0,1-.11.617l-2.751,1.482Z" transform="translate(-148.133 -260.173)"/><path class="bc" d="M226.014,420.128a1.508,1.508,0,0,0-.57-1.965,1.6,1.6,0,0,0-2.048-.193l-6.037,3.62,2.358,2.4Z" transform="translate(-138.069 -260.925)"/><path class="aa" d="M218.705,427.651c.723.6.979,1.49.57,1.965s-1.328.393-2.052-.193-.975-1.489-.566-1.965A1.529,1.529,0,0,1,218.705,427.651Z" transform="translate(-137.524 -266.667)"/><path class="q" d="M250.149,405.2c0,.31-.649.566-1.442.566s-1.446-.255-1.446-.566.648-.57,1.446-.57S250.149,404.885,250.149,405.2Z" transform="translate(-156.218 -253.001)"/><path class="q" d="M245.536,407.7c0,.181-.369.326-.833.326s-.833-.145-.833-.326.373-.326.833-.326S245.536,407.515,245.536,407.7Z" transform="translate(-154.16 -254.664)"/><path class="bd" d="M499.047,255.565l.33-.476c.071-.094.259-.275.424-.2l.1.047c-.067.177-.393.786-.507,1.03a9.676,9.676,0,0,1-.939,1.093l.063.818-1.3-.13.067-.68-.306-.786.051-1.619.122-.149a.224.224,0,0,1,.126-.079l.145-.039.208-.263a.212.212,0,0,1,.181-.075l.212.02a.173.173,0,0,0,.13-.031l.165-.11a.121.121,0,0,1,.083,0,.827.827,0,0,1,.3.165l.322-1.4a.872.872,0,0,1,.11-.255l.063-.1a.138.138,0,0,1,.244.024,1.077,1.077,0,0,1,.051.523l-.232,1.525A3.729,3.729,0,0,1,499.047,255.565Z" transform="translate(-307.794 -160.526)"/><path class="be" d="M511.147,411.14l-.755,3.9a2.131,2.131,0,0,1-2.142.047l1.026-3.494A18.647,18.647,0,0,1,511.147,411.14Z" transform="translate(-314.635 -256.952)"/><path class="be" d="M502.966,416.23s-.432,1.089-1.042,1.32-1.156.024-2.016-.314c-1.112-.432-3.27.751-.99,1.151a6.565,6.565,0,0,0,3.242-.153,1.692,1.692,0,0,0,.841-1.3Z" transform="translate(-308.36 -260.042)"/><path class="be" d="M547.356,411.5l.1,3.954a2.134,2.134,0,0,1-2.138.161l.192-3.561S547.411,411.416,547.356,411.5Z" transform="translate(-337.136 -257.165)"/><path class="be" d="M544.429,419.337c-.727-.338-2.134,1.022-.644,1.23a3.021,3.021,0,0,0,2.114-.428C546.222,419.852,544.992,419.6,544.429,419.337Z" transform="translate(-335.805 -261.895)"/><path class="x" d="M508.2,329.355s.3-7.79,1.242-14.683c.472-1.136,5.459-.983,5.459-.983,1.788.892,1.965,4.123,1.6,6.025-.393,2.071-1.525,10.871-2.118,13.083-.684,4.771-1.678,15.025-2.672,18.987a1.474,1.474,0,0,1-1.572,1.132,8.4,8.4,0,0,1-1.548-.2,1.5,1.5,0,0,1-.814-.908C507.59,348.141,508,334.818,508.2,329.355Z" transform="translate(-314.317 -197.797)"/><path class="bf" d="M520.244,314.215c-.7-3.144,7.271-3.007,7.271-3.007.523.149,2.122.578,2.284,4.681.1,2.641,1.379,11.641,1.053,15.7a87.477,87.477,0,0,1,2.162,17.984,1.231,1.231,0,0,1-.786,1.214,11.576,11.576,0,0,1-1.493.424,1.144,1.144,0,0,1-1.285-.818c-1.36-4.107-4.264-16.9-4.229-17.607a85.353,85.353,0,0,1-3.046-9.535C521.458,320.735,521.018,317.7,520.244,314.215Z" transform="translate(-321.888 -196.295)"/><path class="aa" d="M510.585,264.5c.609.248,1.073,3.447.786,4.135-.491,1.242-3.054,5.5-3.054,5.5-3.875,5.321-5.836,3.321-5.836,3.321-1.014-.955-.935-2.189,1.254-5.027Z" transform="translate(-310.752 -167.944)"/><path class="aa" d="M496.868,265.882l.542-.106a1.128,1.128,0,0,1,1.258.951,24.723,24.723,0,0,0,1.364,4.465v.024l.7,1.615c1.045,2.421,1.6,4.677.141,5.408,0,0-2.331,2.13-3.812-4.256l-.31-1.745a.051.051,0,0,1,0-.024,46.29,46.29,0,0,1-.676-5.2,1.049,1.049,0,0,1,.8-1.132Z" transform="translate(-307.238 -168.713)"/><path class="y" d="M522.248,241.664a6.975,6.975,0,0,0,.244,2.971s1.643-1.4,1.572-2.15S522.657,240.473,522.248,241.664Z" transform="translate(-323.095 -153.785)"/><path class="bd" d="M527.137,248.365l.393,1.765-.267.928c-.421.393-3.36,2.661-3.38,1.886l.432-2.358.153-1.3a1.234,1.234,0,0,1-1.034-.857c-.2-.829-.739-3.537.087-4.453a1.8,1.8,0,0,1,1.1-.821s1.776-.747,2.515.527a5.919,5.919,0,0,1,.88,2.515A3.7,3.7,0,0,1,527.137,248.365Z" transform="translate(-323.633 -154.855)"/><path class="y" d="M524.8,244.331l-.212-1.788s-2.091.692-3.451-.193c-2.673-.546-1.792-1.541-1.21-1.918.959-.617,1.776-.483,2.008-.047,0,0,4.111-1.336,4.543,2.751,0,0,.566.149.515.959s-2.016,2.649-2.016,2.649l.2-1.179s.707-.979.236-1.513S524.8,244.331,524.8,244.331Z" transform="translate(-321.346 -153.081)"/><path class="bg" d="M526.114,258.615l-.314,2.358a7.406,7.406,0,0,0,1.82-2.653A2.166,2.166,0,0,1,526.114,258.615Z" transform="translate(-325.287 -164.193)"/><path class="f" d="M524.7,263.7c-.629-1.7-2.358-2.224-3.384-2.492l-.181-.9a.224.224,0,0,0-.37-.126c-.534.491-1.749.786-3.423.275a.362.362,0,0,0-.318.393c0,.114-.039.44-.079.755l-.059.035c-1.529,1.108-1.985,2.9-2.606,4.661-1.069,3.026-3.462,16.114-1.8,16.833,1.179.527,9.483.668,12.011.46.755-.063.7-1.179.7-1.179C525.125,280.08,525.636,266.215,524.7,263.7Z" transform="translate(-316.858 -165.288)"/><path class="aa" d="M539.022,264.192c-1.989-.22-.762,2.653-.114,4.771,1.753,5.7,1.026,7.522.743,8.128-.346.747.758,3.726,1.152,3.761a3.42,3.42,0,0,0,3.05-1.757,12.894,12.894,0,0,0,.684-5.18,15.9,15.9,0,0,0-1.761-5.962C542.249,266.911,540.5,264.353,539.022,264.192Z" transform="translate(-332.654 -167.749)"/><path class="bd" d="M517.721,291c-.063.02-.295.161-.043.574s.346.464.346.464-.959,0-1.222.024a7.44,7.44,0,0,0-1.045.145c-.138.039-.393.114-.393.271s.145.157.259.181a1.89,1.89,0,0,0-.3.027c-.137.043-.318.106-.31.259s.224.244.31.255a2.8,2.8,0,0,0,.393.047h-.039c-.11.028-.315.067-.315.189s.275.2.342.208.2.039.393.063c-.094.02-.208.055-.216.137s.228.185.283.2a5.249,5.249,0,0,0,1.348.169h0a2.544,2.544,0,0,0,.629,0,2.751,2.751,0,0,0,.92-.22,3.855,3.855,0,0,0,.448-.283h.228l.028-1.356h-.307a1.319,1.319,0,0,0-.259-.295,4.478,4.478,0,0,0-.613-.314.912.912,0,0,1-.464-.358A.927.927,0,0,0,517.721,291Z" transform="translate(-318.738 -184.029)"/><path class="aa" d="M526.516,296.291c-.181-.157-.633-.48-.566-.735.145-.523.314-1.69.582-1.666.927.071,5.868,1.226,8.462,1.725a1.543,1.543,0,0,1,1.509,1.627c-.432.986-.927,2.075-2.861,1.934C533.641,299.187,528.351,297.914,526.516,296.291Z" transform="translate(-325.374 -185.783)"/><path class="y" d="M522.623,250.791a1.541,1.541,0,0,1,.786-.232c.33.039,1.25,0,1.643.578s.609.448.821.2.853-1.839,1.112-1.965-.252,1.379-.252,1.379a2.759,2.759,0,0,0-.35.6,3.145,3.145,0,0,0-.287.786,1.43,1.43,0,0,1-.417.884,1.938,1.938,0,0,1-1.533.149c-.786-.224-1.03-.283-1.254-.786a2.381,2.381,0,0,1-.271-1.588Z" transform="translate(-323.337 -158.755)"/></g></g></svg>