<svg xmlns="http://www.w3.org/2000/svg" xmlns:xlink="http://www.w3.org/1999/xlink" width="236.417" height="188.909" viewBox="0 0 236.417 188.909"><defs><style>.a{fill:#c2d4ea;}.b{fill:#2c4482;}.c{fill:#486ed1;}.d{fill:#3b65c4;}.e{fill:#e2eaf5;}.f{fill:#97caff;}.g{fill:#8db0da;}.h{fill:#dde6f5;}.i{fill:#fff;}.j{clip-path:url(#a);}.k{fill:#492817;}.l{fill:#ffaa81;}.m{fill:#f4946e;}.n{fill:#ffd22e;}.o{fill:#f4c42a;}.p{fill:#f55d34;}.q{fill:#092140;}.r{fill:#ef487c;}.s{fill:#52517b;}.t{fill:#45446c;}.u{fill:#2c2b57;}.v{fill:#f2f2f2;}.w{fill:#292951;}.x{fill:#76a2ce;}.y{fill:#60c0fd;opacity:0.5;}.z{fill:#7374a4;}</style><clipPath id="a"><ellipse class="a" cx="12.301" cy="11.818" rx="12.301" ry="11.818" transform="matrix(0.841, -0.541, 0.541, 0.841, 0, 13.302)"/></clipPath></defs><g transform="translate(0 0)"><g transform="translate(0 0)"><rect class="a" width="115.219" height="168.545" rx="6.55" transform="translate(202.48 39.334) rotate(90)"/><rect class="b" width="168.545" height="101.793" rx="5.51" transform="translate(33.934 39.334)"/><path class="c" d="M298.519,257.884H150.133a3.953,3.953,0,0,1-3.953-3.962l.218-79.36a3.953,3.953,0,0,1,3.953-3.941H298.737a3.953,3.953,0,0,1,3.953,3.962l-.218,79.36A3.953,3.953,0,0,1,298.519,257.884Z" transform="translate(-106.347 -124.57)"/><path class="d" d="M485.963,215.552a207.443,207.443,0,0,1-47.524,49.227q-4.788,3.535-9.78,6.781h68.062a3.953,3.953,0,0,0,3.941-3.929l.212-77.5a206.994,206.994,0,0,1-14.911,25.422Z" transform="translate(-304.55 -138.259)"/><path class="b" d="M249.086,638.25H12.67v2.2c0,1.232,1.032,1.143,1.032,1.143H248.054s1.032.09,1.032-1.143Z" transform="translate(-12.67 -452.684)"/><path class="e" d="M248.518,566.032H13.236a.564.564,0,0,1-.379-.984L46.57,534.556a.558.558,0,0,1,.379-.146H214.8a.567.567,0,0,1,.382.146l33.713,30.491a.564.564,0,0,1-.376.984Z" transform="translate(-12.668 -379.824)"/><path class="a" d="M361.527,608.29H294.79c-.871,0-1.217-.677-.782-1.492l3.315-6.128a2.482,2.482,0,0,1,2-1.161h57.676a2.476,2.476,0,0,1,2,1.161l3.315,6.146C362.744,607.613,362.4,608.29,361.527,608.29Z" transform="translate(-209.939 -425.502)"/><path class="a" d="M161.422,541.427h-6.564c-.916,0-1.474-.167-1.247-.376l.677-.615a4.239,4.239,0,0,1,2.023-.367h6.438c.9,0,1.471.164,1.277.367l-.6.615A3.911,3.911,0,0,1,161.422,541.427Z" transform="translate(-111.526 -383.796)"/><path class="a" d="M198.409,541.427h-6.564c-.916,0-1.492-.167-1.307-.376l.57-.615a3.888,3.888,0,0,1,1.969-.367h6.435c.9,0,1.492.164,1.337.367l-.486.615A3.614,3.614,0,0,1,198.409,541.427Z" transform="translate(-137.447 -383.796)"/><path class="a" d="M235.4,541.427h-6.564c-.916,0-1.528-.167-1.366-.376l.474-.615a3.537,3.537,0,0,1,1.909-.367h6.438c.9,0,1.522.164,1.393.367l-.391.615A3.3,3.3,0,0,1,235.4,541.427Z" transform="translate(-163.366 -383.796)"/><path class="a" d="M272.381,541.427h-6.564c-.916,0-1.554-.167-1.426-.376l.379-.615a3.205,3.205,0,0,1,1.853-.367h6.435c.9,0,1.548.164,1.45.367l-.3.615C274.109,541.26,273.294,541.427,272.381,541.427Z" transform="translate(-189.279 -383.796)"/><path class="a" d="M309.336,541.427h-6.564c-.916,0-1.581-.167-1.492-.376l.283-.615c.092-.2.9-.367,1.79-.367h6.438c.9,0,1.572.164,1.507.367l-.194.615C311.037,541.26,310.252,541.427,309.336,541.427Z" transform="translate(-215.169 -383.796)"/><path class="a" d="M346.32,541.427h-6.564c-.916,0-1.608-.167-1.545-.376l.188-.615c.06-.2.838-.367,1.736-.367h6.435c.895,0,1.6.164,1.566.367l-.1.615C348.005,541.26,347.236,541.427,346.32,541.427Z" transform="translate(-241.083 -383.796)"/><path class="a" d="M383.3,541.427h-6.564c-.913,0-1.632-.167-1.6-.376l.087-.615c.03-.2.782-.367,1.68-.367h6.438c.9,0,1.623.164,1.623.367v.615C384.959,541.26,384.216,541.427,383.3,541.427Z" transform="translate(-266.995 -383.796)"/><path class="a" d="M420.262,541.427H413.7c-.913,0-1.659-.167-1.659-.376v-.615c0-.2.725-.367,1.623-.367h6.42c.9,0,1.65.164,1.683.367l.092.615C421.895,541.26,421.178,541.427,420.262,541.427Z" transform="translate(-292.889 -383.796)"/><path class="a" d="M456.974,541.427H450.41c-.913,0-1.686-.167-1.718-.376l-.1-.615c-.033-.2.665-.367,1.563-.367h6.438c.9,0,1.674.164,1.736.367l.191.615C458.579,541.26,457.89,541.427,456.974,541.427Z" transform="translate(-318.532 -383.796)"/><path class="a" d="M493.673,541.427h-6.564c-.916,0-1.712-.167-1.79-.376l-.2-.615c-.066-.2.6-.367,1.507-.367h6.435c.9,0,1.7.164,1.79.367l.3.615C495.251,541.26,494.589,541.427,493.673,541.427Z" transform="translate(-344.162 -383.796)"/><path class="a" d="M530.417,541.427h-6.564c-.916,0-1.739-.167-1.838-.376l-.3-.615c-.1-.2.549-.367,1.447-.367H529.6a3.22,3.22,0,0,1,1.853.367l.382.615C531.968,541.26,531.341,541.427,530.417,541.427Z" transform="translate(-369.837 -383.796)"/><path class="a" d="M567.136,541.427h-6.564a3.29,3.29,0,0,1-1.9-.376l-.394-.615c-.128-.2.5-.367,1.393-.367h6.435a3.55,3.55,0,0,1,1.912.367l.477.615C568.66,541.26,568.052,541.427,567.136,541.427Z" transform="translate(-395.487 -383.796)"/><path class="a" d="M603.848,541.427h-6.564a3.635,3.635,0,0,1-1.957-.376l-.489-.615c-.161-.2.436-.367,1.333-.367h6.435a3.885,3.885,0,0,1,1.972.367l.573.615C605.346,541.26,604.764,541.427,603.848,541.427Z" transform="translate(-421.131 -383.796)"/><path class="a" d="M640.528,541.427h-6.564a3.985,3.985,0,0,1-2.017-.376l-.6-.615c-.194-.2.379-.367,1.274-.367h6.438a4.3,4.3,0,0,1,2.026.367l.671.615C642,541.26,641.444,541.427,640.528,541.427Z" transform="translate(-446.743 -383.796)"/><path class="a" d="M154.1,547.445h-8.488c-.212,0-.337-.039-.3-.089l2.115-1.954a.943.943,0,0,1,.462-.087h8.24c.2,0,.334.039.3.087l-1.868,1.954a.9.9,0,0,1-.462.09Z" transform="translate(-105.734 -387.475)"/><path class="a" d="M203.144,555.923h-8.792c-.221,0-.361-.045-.313-.1l1.79-2.088a.864.864,0,0,1,.462-.092h8.527c.215,0,.355.042.319.092l-1.519,2.088A.808.808,0,0,1,203.144,555.923Z" transform="translate(-139.92 -393.318)"/><path class="a" d="M204.331,564.989h-9.117c-.227,0-.373-.048-.325-.1l1.844-2.252a.868.868,0,0,1,.477-.1h8.837c.221,0,.37.045.331.1l-1.557,2.252A.821.821,0,0,1,204.331,564.989Z" transform="translate(-140.518 -399.555)"/><path class="a" d="M217.881,574.768H208.4c-.236,0-.391-.051-.343-.113l1.79-2.426a.821.821,0,0,1,.489-.107h9.171c.23,0,.385.048.349.107l-1.492,2.426A.8.8,0,0,1,217.881,574.768Z" transform="translate(-149.759 -406.282)"/><path class="a" d="M111.451,585.691h-9.845c-.263,0-.412-.057-.334-.131l3.237-2.984a1.134,1.134,0,0,1,.6-.122h9.476c.254,0,.406.054.34.122l-2.855,2.984A1.074,1.074,0,0,1,111.451,585.691Z" transform="translate(-74.823 -413.532)"/><path class="a" d="M155.516,585.69H145.67c-.263,0-.421-.057-.355-.131l2.775-2.983a1.027,1.027,0,0,1,.57-.122h9.47c.251,0,.412.054.358.122l-2.387,2.983A.977.977,0,0,1,155.516,585.69Z" transform="translate(-105.73 -413.532)"/><path class="a" d="M198.242,585.688H188.4c-.263,0-.43-.057-.373-.131l2.327-2.983a.921.921,0,0,1,.549-.122h9.475c.254,0,.421.054.379.122l-1.945,2.983A.877.877,0,0,1,198.242,585.688Z" transform="translate(-135.699 -413.53)"/><path class="a" d="M244.556,585.681h-13c-.3,0-.5-.066-.448-.149l1.85-2.954a.985.985,0,0,1,.6-.137h12.5c.3,0,.492.063.456.137l-1.363,2.954C245.129,585.615,244.855,585.681,244.556,585.681Z" transform="translate(-165.932 -413.522)"/><path class="a" d="M510.086,585.69h-13c-.3,0-.564-.066-.6-.149l-.925-2.954c-.024-.075.188-.137.477-.137h12.51a.915.915,0,0,1,.6.137l1.414,2.954C510.594,585.624,510.385,585.69,510.086,585.69Z" transform="translate(-351.493 -413.532)"/><path class="a" d="M560.66,585.7h-9.714c-.26,0-.5-.057-.537-.128l-1.519-2.984c-.033-.066.143-.119.394-.119h9.341a.851.851,0,0,1,.528.119l1.894,2.984C561.093,585.644,560.92,585.7,560.66,585.7Z" transform="translate(-388.908 -413.543)"/><path class="a" d="M346.391,585.711H286.423c-.629,0-1.077-.14-1-.3l1.152-2.634c.072-.161.618-.3,1.223-.3h57.682c.6,0,1.134.131,1.193.3l.779,2.634C347.489,585.571,347.021,585.711,346.391,585.711Z" transform="translate(-204.04 -413.553)"/><path class="a" d="M259.108,574.766h-9.478c-.236,0-.4-.051-.361-.113l1.426-2.426a.756.756,0,0,1,.477-.107h9.171c.227,0,.391.048.364.107l-1.119,2.426C259.558,574.712,259.343,574.766,259.108,574.766Z" transform="translate(-178.676 -406.28)"/><path class="a" d="M300.331,574.776h-9.478c-.236,0-.406-.051-.379-.113l1.059-2.426c.027-.06.233-.107.46-.107h9.171c.23,0,.4.048.382.107l-.752,2.426C300.772,574.723,300.567,574.776,300.331,574.776Z" transform="translate(-207.589 -406.291)"/><path class="a" d="M341.549,574.776h-9.478c-.236,0-.412-.051-.394-.113l.692-2.426c.018-.06.215-.107.445-.107h9.171c.227,0,.406.048.4.107L342,574.663C341.985,574.723,341.788,574.776,341.549,574.776Z" transform="translate(-236.501 -406.291)"/><path class="a" d="M382.76,574.776h-9.47c-.236,0-.421-.051-.412-.113l.325-2.426c0-.06.2-.107.43-.107H382.8c.23,0,.415.048.415.107l-.018,2.426C383.2,574.723,383.005,574.776,382.76,574.776Z" transform="translate(-265.411 -406.291)"/><path class="a" d="M423.89,574.776h-9.478c-.236,0-.43-.051-.43-.113l-.042-2.426c0-.06.182-.107.412-.107h9.171c.227,0,.421.048.427.107l.352,2.426C424.311,574.723,424.126,574.776,423.89,574.776Z" transform="translate(-294.222 -406.291)"/><path class="a" d="M464.245,574.776h-9.478c-.239,0-.439-.051-.448-.113l-.409-2.426c0-.06.167-.107.4-.107h9.177c.23,0,.43.048.445.107l.719,2.426C464.656,574.723,464.48,574.776,464.245,574.776Z" transform="translate(-322.267 -406.291)"/><path class="a" d="M504.573,574.776h-9.487c-.236,0-.442-.051-.462-.113l-.776-2.426c-.018-.06.149-.107.379-.107H503.4c.227,0,.433.048.459.107l1.086,2.426C504.978,574.723,504.808,574.776,504.573,574.776Z" transform="translate(-350.288 -406.291)"/><path class="a" d="M544.943,574.766h-9.479c-.236,0-.45-.051-.48-.113l-1.143-2.426c-.03-.06.134-.107.364-.107h9.168a.756.756,0,0,1,.477.107l1.453,2.426C545.34,574.712,545.179,574.766,544.943,574.766Z" transform="translate(-378.349 -406.28)"/><path class="a" d="M603.636,589.477H596.1a3.248,3.248,0,0,1-2.047-.48l-.5-.761c-.17-.257.457-.465,1.4-.465h7.384a3.508,3.508,0,0,1,2.065.465l.6.761C605.2,589.262,604.593,589.477,603.636,589.477Z" transform="translate(-420.229 -417.265)"/><path class="a" d="M646.441,589.477H638.9a3.6,3.6,0,0,1-2.118-.48l-.615-.761c-.209-.257.385-.465,1.325-.465h7.384a3.888,3.888,0,0,1,2.136.465l.713.761C647.974,589.262,647.4,589.477,646.441,589.477Z" transform="translate(-450.122 -417.265)"/><path class="a" d="M641.168,583.269H633.8a3.577,3.577,0,0,1-2.065-.456l-.6-.728c-.2-.248.388-.444,1.3-.444h7.223a3.854,3.854,0,0,1,2.088.444l.683.728C642.675,583.063,642.111,583.269,641.168,583.269Z" transform="translate(-446.594 -412.964)"/><path class="a" d="M689.249,589.477H681.7a4,4,0,0,1-2.193-.48l-.728-.761c-.248-.257.316-.465,1.253-.465h7.387a4.289,4.289,0,0,1,2.2.465l.826.761C690.741,589.262,690.2,589.477,689.249,589.477Z" transform="translate(-480.009 -417.265)"/><path class="a" d="M244.364,564.987h-9.123c-.227,0-.379-.048-.343-.1l1.492-2.253a.791.791,0,0,1,.465-.1h8.837c.218,0,.373.045.343.1l-1.211,2.253A.749.749,0,0,1,244.364,564.987Z" transform="translate(-168.593 -399.553)"/><path class="a" d="M284.413,564.985H275.29c-.227,0-.388-.048-.358-.1l1.155-2.252a.719.719,0,0,1,.451-.1h8.837c.221,0,.382.045.361.1l-.871,2.252C284.843,564.937,284.64,564.985,284.413,564.985Z" transform="translate(-196.684 -399.552)"/><path class="a" d="M324.455,565h-9.123c-.227,0-.4-.048-.376-.1l.811-2.253c.021-.054.215-.1.436-.1h8.837c.221,0,.388.045.376.1l-.525,2.253C324.876,564.948,324.682,565,324.455,565Z" transform="translate(-224.768 -399.562)"/><path class="a" d="M364.253,565H355.13c-.227,0-.4-.048-.391-.1l.471-2.253c0-.054.2-.1.418-.1h8.84c.218,0,.394.045.388.1l-.182,2.253C364.662,564.948,364.48,565,364.253,565Z" transform="translate(-252.683 -399.562)"/><path class="a" d="M404.3,565h-9.123c-.227,0-.409-.048-.406-.1l.125-2.253c0-.054.185-.1.406-.1h8.837c.221,0,.4.045.406.1l.158,2.253C404.708,564.948,404.526,565,404.3,565Z" transform="translate(-280.771 -399.562)"/><path class="a" d="M442.147,565h-9.123c-.227,0-.415-.048-.421-.1l-.2-2.253c0-.054.17-.1.391-.1h8.837c.221,0,.409.045.418.1l.489,2.253C442.55,564.948,442.374,565,442.147,565Z" transform="translate(-307.174 -399.562)"/><path class="a" d="M481.02,565H471.9c-.227,0-.421-.048-.435-.1l-.543-2.253c-.015-.054.152-.1.373-.1h8.837c.221,0,.415.045.436.1l.829,2.253C481.414,564.948,481.247,565,481.02,565Z" transform="translate(-334.2 -399.562)"/><path class="a" d="M519.865,564.985h-9.123c-.227,0-.43-.048-.451-.1l-.895-2.252c-.021-.054.14-.1.361-.1h8.837a.719.719,0,0,1,.451.1l1.17,2.252C520.253,564.937,520.094,564.985,519.865,564.985Z" transform="translate(-361.197 -399.552)"/><path class="a" d="M558.528,564.987h-9.135a.749.749,0,0,1-.469-.1L547.7,562.63c-.03-.054.125-.1.346-.1h8.837a.8.8,0,0,1,.466.1l1.506,2.252C558.9,564.939,558.743,564.987,558.528,564.987Z" transform="translate(-388.073 -399.554)"/><path class="a" d="M597.153,564.989h-9.123a.833.833,0,0,1-.486-.1l-1.557-2.252c-.039-.054.11-.1.331-.1h8.837a.868.868,0,0,1,.477.1l1.85,2.252C597.526,564.941,597.379,564.989,597.153,564.989Z" transform="translate(-414.934 -399.555)"/><path class="a" d="M584.9,574.768h-9.478a.784.784,0,0,1-.5-.113l-1.507-2.425c-.039-.06.119-.107.346-.107h9.171a.837.837,0,0,1,.492.107l1.814,2.425C585.287,574.715,585.135,574.768,584.9,574.768Z" transform="translate(-406.115 -406.283)"/><path class="a" d="M645.925,565H628.308a1.264,1.264,0,0,1-.689-.143l-1.847-2.175c-.062-.075.128-.134.433-.134h17.063a1.4,1.4,0,0,1,.7.134l2.369,2.178C646.418,564.93,646.236,565,645.925,565Z" transform="translate(-442.846 -399.562)"/><path class="a" d="M640.262,574.769H615.717a1.38,1.38,0,0,1-.815-.179l-1.772-2.3c-.072-.092.164-.167.525-.167H637.4a1.666,1.666,0,0,1,.838.167l2.5,2.3C640.849,574.688,640.634,574.769,640.262,574.769Z" transform="translate(-433.975 -406.283)"/><path class="a" d="M143.925,564.988H126.116c-.3,0-.5-.066-.412-.143l2.357-2.175a1.37,1.37,0,0,1,.7-.137h17.25c.3,0,.5.06.436.137l-1.829,2.175A1.266,1.266,0,0,1,143.925,564.988Z" transform="translate(-91.967 -399.555)"/><path class="a" d="M139.459,574.768h-24.9c-.376,0-.6-.081-.486-.179l2.494-2.3a1.645,1.645,0,0,1,.841-.17H141.5c.364,0,.6.075.531.17l-1.751,2.3A1.42,1.42,0,0,1,139.459,574.768Z" transform="translate(-83.799 -406.283)"/><path class="a" d="M241.543,555.921h-8.789c-.218,0-.367-.045-.328-.1l1.468-2.089a.777.777,0,0,1,.448-.092h8.53c.212,0,.361.042.331.092l-1.193,2.089A.726.726,0,0,1,241.543,555.921Z" transform="translate(-166.857 -393.316)"/><path class="a" d="M279.717,555.929h-8.792c-.218,0-.373-.045-.343-.1l1.152-2.088c.027-.051.221-.093.433-.093h8.53c.212,0,.367.042.346.093l-.9,2.088C280.131,555.885,279.952,555.929,279.717,555.929Z" transform="translate(-193.631 -393.324)"/><path class="a" d="M318.119,555.929h-8.8c-.218,0-.379-.045-.358-.1l.832-2.088c.021-.051.209-.093.424-.093h8.527c.212,0,.373.042.358.093l-.564,2.088C318.522,555.885,318.337,555.929,318.119,555.929Z" transform="translate(-220.565 -393.324)"/><path class="a" d="M356.523,555.929h-8.792c-.221,0-.388-.045-.373-.1l.513-2.088c0-.051.2-.093.409-.093H356.8c.212,0,.379.042.373.093l-.248,2.088C356.926,555.885,356.744,555.929,356.523,555.929Z" transform="translate(-247.504 -393.324)"/><path class="a" d="M394.69,555.929h-8.8c-.218,0-.391-.045-.385-.1l.2-2.088c0-.051.182-.093.394-.093h8.527c.212,0,.388.042.388.093l.069,2.088C395.084,555.885,394.9,555.929,394.69,555.929Z" transform="translate(-274.273 -393.324)"/><path class="a" d="M431.725,555.929h-8.792c-.221,0-.4-.045-.4-.1l-.11-2.088c0-.051.167-.093.379-.093h8.527c.215,0,.394.042.4.093l.376,2.088C432.113,555.885,431.946,555.929,431.725,555.929Z" transform="translate(-300.172 -393.324)"/><path class="a" d="M469.683,555.929h-8.8c-.218,0-.4-.045-.415-.1l-.433-2.088c0-.051.155-.093.367-.093h8.527c.212,0,.4.042.415.093l.7,2.088C470.064,555.885,469.9,555.929,469.683,555.929Z" transform="translate(-326.568 -393.324)"/><path class="a" d="M507.181,555.929h-8.8c-.218,0-.412-.045-.43-.1l-.749-2.088c-.018-.051.137-.093.352-.093h8.536c.212,0,.406.042.43.093l1.014,2.088C507.553,555.885,507.4,555.929,507.181,555.929Z" transform="translate(-352.645 -393.324)"/><path class="a" d="M544.052,555.921h-8.792c-.221,0-.421-.045-.448-.1l-1.059-2.088c-.027-.051.125-.092.337-.092h8.53a.746.746,0,0,1,.442.092l1.328,2.088C544.422,555.876,544.267,555.921,544.052,555.921Z" transform="translate(-378.287 -393.315)"/><path class="a" d="M582.447,555.922h-8.8a.785.785,0,0,1-.463-.1l-1.384-2.089c-.033-.051.114-.092.325-.092h8.527a.82.82,0,0,1,.456.092l1.653,2.089C582.811,555.877,582.668,555.922,582.447,555.922Z" transform="translate(-404.981 -393.317)"/><path class="a" d="M619.192,555.923h-8.8a.862.862,0,0,1-.477-.1l-1.695-2.088c-.039-.051.1-.092.3-.092h8.53a.894.894,0,0,1,.468.092l1.963,2.088C619.547,555.879,619.41,555.923,619.192,555.923Z" transform="translate(-430.538 -393.318)"/><path class="a" d="M656.986,555.925h-8.792a.938.938,0,0,1-.489-.1l-2.017-2.088c-.048-.051.086-.093.3-.093h8.527a.982.982,0,0,1,.483.093l2.282,2.088C657.335,555.88,657.206,555.925,656.986,555.925Z" transform="translate(-456.821 -393.319)"/><path class="a" d="M191.749,547.444h-8.473c-.212,0-.346-.039-.3-.089l1.814-1.954a.863.863,0,0,1,.45-.086h8.237c.206,0,.343.039.3.086l-1.566,1.954a.83.83,0,0,1-.462.09Z" transform="translate(-132.159 -387.473)"/><path class="a" d="M228.2,547.443h-8.488c-.212,0-.349-.039-.3-.089l1.522-1.954a.793.793,0,0,1,.439-.086h8.237c.206,0,.346.039.316.086l-1.274,1.954A.753.753,0,0,1,228.2,547.443Z" transform="translate(-157.725 -387.472)"/><path class="a" d="M265.552,547.441h-8.488c-.212,0-.358-.039-.325-.089l1.223-1.954a.715.715,0,0,1,.424-.087h8.24c.206,0,.352.039.328.087l-.976,1.954C265.955,547.4,265.764,547.441,265.552,547.441Z" transform="translate(-183.918 -387.47)"/><path class="a" d="M301.992,547.45H293.5c-.212,0-.364-.039-.34-.09l.931-1.954c.024-.048.206-.086.412-.086h8.24c.206,0,.358.039.34.086l-.683,1.954C302.389,547.411,302.2,547.45,301.992,547.45Z" transform="translate(-209.477 -387.48)"/><path class="a" d="M339.568,547.45H331.08c-.209,0-.367-.039-.352-.09l.629-1.954c.015-.048.194-.086.4-.086H340c.2,0,.364.039.355.086l-.385,1.954C339.959,547.411,339.78,547.45,339.568,547.45Z" transform="translate(-235.835 -387.48)"/><path class="a" d="M375.684,547.45H367.2c-.212,0-.376-.039-.367-.09l.34-1.954c0-.048.182-.086.388-.086h8.237c.206,0,.37.039.37.086l-.1,1.954C376.069,547.411,375.893,547.45,375.684,547.45Z" transform="translate(-261.166 -387.48)"/><path class="a" d="M413.2,547.45h-8.488c-.212,0-.382-.039-.382-.09l.042-1.954c0-.048.167-.086.373-.086h8.24c.2,0,.376.039.379.086l.209,1.954C413.576,547.411,413.409,547.45,413.2,547.45Z" transform="translate(-287.479 -387.48)"/><path class="a" d="M449.062,547.45h-8.488c-.209,0-.388-.039-.394-.09l-.251-1.954c0-.048.155-.086.361-.086h8.24c.2,0,.379.039.391.086l.5,1.954C449.435,547.411,449.274,547.45,449.062,547.45Z" transform="translate(-312.458 -387.48)"/><path class="a" d="M485.793,547.45h-8.482c-.212,0-.394-.039-.409-.09l-.552-1.954c0-.048.143-.086.349-.086h8.237c.206,0,.388.039.409.086l.8,1.954C486.163,547.411,486.007,547.45,485.793,547.45Z" transform="translate(-338.012 -387.48)"/><path class="a" d="M522.475,547.44H514c-.212,0-.4-.039-.424-.09l-.85-1.954c-.021-.048.131-.087.334-.087h8.24a.7.7,0,0,1,.421.087l1.1,1.954C522.836,547.4,522.687,547.44,522.475,547.44Z" transform="translate(-363.534 -387.47)"/><path class="a" d="M558.756,547.443h-8.482a.729.729,0,0,1-.436-.09l-1.146-1.954c-.027-.048.116-.087.322-.087h8.24a.776.776,0,0,1,.433.087l1.393,1.954C559.111,547.4,558.967,547.443,558.756,547.443Z" transform="translate(-388.769 -387.472)"/><path class="a" d="M593.611,547.444h-8.485a.8.8,0,0,1-.451-.09l-1.429-1.954c-.036-.048.1-.086.3-.086h8.24a.835.835,0,0,1,.444.086l1.68,1.954C593.961,547.4,593.823,547.444,593.611,547.444Z" transform="translate(-413.013 -387.473)"/><path class="a" d="M635,547.45H622.3a2.426,2.426,0,0,1-1.286-.251l-1.447-1.641c-.116-.131.251-.239.82-.239h12.322a2.685,2.685,0,0,1,1.292.239l1.79,1.641C635.937,547.337,635.585,547.45,635,547.45Z" transform="translate(-438.487 -387.48)"/><path class="a" d="M150.351,555.915H137.2c-.6,0-.97-.122-.809-.272l1.9-1.757a2.712,2.712,0,0,1,1.343-.256h12.757c.6,0,.967.113.841.256l-1.545,1.757A2.484,2.484,0,0,1,150.351,555.915Z" transform="translate(-99.453 -393.31)"/><path class="f" d="M420.38,16.27H343.242A5.245,5.245,0,0,0,338,21.515v54.55a5.245,5.245,0,0,0,5.245,5.245h60.209c8.055,0,11.68-6.522,11.68-14.568V21.515A5.248,5.248,0,0,1,420.38,16.27Z" transform="translate(-240.938 -16.27)"/><path class="g" d="M535.474,120.718V85.155a5.245,5.245,0,0,0-5.245-5.245h-.364a5.245,5.245,0,0,0-5.245,5.245v40.808h16.111a5.245,5.245,0,0,1-5.257-5.245Z" transform="translate(-371.881 -60.923)"/><path class="g" d="M607.263,62.323V21.515a5.248,5.248,0,0,0-5.248-5.245h-.364a5.245,5.245,0,0,0-5.251,5.245V62.323Z" transform="translate(-422.245 -16.27)"/><path class="f" d="M566.37,16.27h-.107A5.245,5.245,0,0,0,561,21.515v54.55a5.245,5.245,0,0,0,5.245,5.245h.125a5.248,5.248,0,0,0,5.248-5.245V21.515A5.248,5.248,0,0,0,566.37,16.27Z" transform="translate(-397.407 -16.27)"/><path class="h" d="M335.472,79.91H252.815a5.245,5.245,0,0,0-5.245,5.245l.8,109.082h82.642l-.782-109.082A5.245,5.245,0,0,1,335.472,79.91Z" transform="translate(-177.488 -60.923)"/><ellipse class="a" cx="11.865" cy="12.008" rx="11.865" ry="12.008" transform="translate(79.181 31.794) rotate(-7.17)"/><path class="i" d="M415.226,133.87H385.6a1.8,1.8,0,0,1-1.79-1.805h0a1.79,1.79,0,0,1,1.79-1.8h29.623a1.8,1.8,0,0,1,1.79,1.8h0a1.79,1.79,0,0,1-1.787,1.805Z" transform="translate(-273.081 -96.251)"/><path class="a" d="M415.306,161.435H385.68a1.8,1.8,0,0,1-1.79-1.79h0a1.79,1.79,0,0,1,1.79-1.8H415.3a1.8,1.8,0,0,1,1.79,1.8h0A1.79,1.79,0,0,1,415.306,161.435Z" transform="translate(-273.137 -115.603)"/><ellipse class="a" cx="12.301" cy="11.818" rx="12.301" ry="11.818" transform="matrix(0.841, -0.541, 0.541, 0.841, 73.95, 38.613)"/><g class="j" transform="translate(73.95 25.311)"><path class="k" d="M304.182,144.246a2.429,2.429,0,0,0,.7,1.241,3.482,3.482,0,0,0,2.181.51,4.282,4.282,0,0,0,2.575-.522,2.732,2.732,0,0,0,.835-1.146,5.421,5.421,0,0,0-.1-4.6,1.979,1.979,0,0,0-.522-.7,2.157,2.157,0,0,0-1.143-.367,4.991,4.991,0,0,0-3.019.719,4.311,4.311,0,0,0-1.832,2.253A4.861,4.861,0,0,0,304.182,144.246Z" transform="translate(-290.868 -127.452)"/><path class="l" d="M311.564,164.4c-.433.277-1.659.1-2.071.334a4.767,4.767,0,0,1-2.163.191c.072-1.975,1.065-3.974,1.152-5.791.746,1.671,1.629.755,2.494-.391C310.9,160.515,311.605,162.61,311.564,164.4Z" transform="translate(-293.369 -141.546)"/><path class="m" d="M310.753,160.538a2.518,2.518,0,0,0,.268.555,1.549,1.549,0,0,0,.9.659,1.465,1.465,0,0,0,1.271-.388c.113-.093.227-.194.334-.3a11.824,11.824,0,0,1-.2-2.336c-.865,1.146-1.748,2.062-2.494.391a1.368,1.368,0,0,1-.045.486c-.021.182-.06.358-.087.54a.977.977,0,0,0,.057.391Z" transform="translate(-295.729 -141.539)"/><path class="n" d="M304.862,177.741c-.066-.68-.131-1.36-.206-2.041-.06-.552-.125-1.1-.194-1.65s-.137-1.143-.215-1.721a20.342,20.342,0,0,0-1.041-5.126.8.8,0,0,1-.042-.137,24.7,24.7,0,0,0-3.121-.916c0,.54-.474,1.808-1.545,1.79-.671,0-1.441-.976-1.444-1.79a18.269,18.269,0,0,0-3.192.931c-.531.11-.988,3.159-1.065,3.556-.334,1.713-.7,3.392-.991,5.111v.048c-.107.65-.215,1.3-.316,1.945Z" transform="translate(-282.254 -146.745)"/><path class="o" d="M285.281,169.31h.027a16.257,16.257,0,0,0-2.264,1.161,6.82,6.82,0,0,0-2.411,2.351,13.128,13.128,0,0,0-1.372,2.951,3.764,3.764,0,0,0,1.155,1.3,13.3,13.3,0,0,0,2.235,1.056c.34-.6.644-.955.782-1.271.239-1.253.54-2.724.785-3.983C284.293,172.469,284.75,169.42,285.281,169.31Z" transform="translate(-273.673 -148.962)"/><path class="o" d="M335.076,172.632a6.137,6.137,0,0,0-2.235-2.387c-.612-.352-2.259-1.014-2.223-1.005s.871,3.637,1.083,5.263c.078.579.072.6.143,1.158a7.492,7.492,0,0,0,1.146,2.494,10.523,10.523,0,0,0,2.121-1.023,3.32,3.32,0,0,0,1.1-1.059A16.215,16.215,0,0,0,335.076,172.632Z" transform="translate(-309.709 -148.913)"/><path class="l" d="M305.143,140.879a5.584,5.584,0,0,0,.758,2.44,2.73,2.73,0,0,0,2.127,1.3,3.168,3.168,0,0,0,2.685-1.757,8.032,8.032,0,0,0,.773-3.207,4.982,4.982,0,0,0-.266-2.736,1.975,1.975,0,0,0-.65-.758,2.386,2.386,0,0,0-.662-.283,4.049,4.049,0,0,0-3.046.334C305.048,137.216,304.937,139.089,305.143,140.879Z" transform="translate(-291.781 -125.398)"/><path class="k" d="M309.871,131.481a1.662,1.662,0,0,0,.513-1.059c0-.131-.078-.313-.2-.257-.024.084-.051.167-.078.251-.182.051-.346-.1-.465-.233s-.3-.322-.427-.489a3.579,3.579,0,0,0-.3-.385l-.054-.081a5.315,5.315,0,0,0-.492-.749,3.027,3.027,0,0,0-2.408-.674,4.729,4.729,0,0,0-1.59.274,1.987,1.987,0,0,0-1.152,1.086.969.969,0,0,0-.051.182,3.483,3.483,0,0,0-1.611,3.58,3.14,3.14,0,0,1,.194,1.363c.027.263.045.528.057.794a.5.5,0,0,0,.707.134.773.773,0,0,0,.182-.561c.033-.6.063-1.193.092-1.766a.745.745,0,0,1,.069-.322.9.9,0,0,1,.274-.236,3.127,3.127,0,0,0,.922-1.035,3.831,3.831,0,0,0,1.193.782,5.487,5.487,0,0,0,2.551.227,6.359,6.359,0,0,0,.713-.122c.021.817.039,1.635.06,2.455,0,.3.066.671.358.758a.534.534,0,0,0,.546-.23,1.446,1.446,0,0,0,.215-.582,9.062,9.062,0,0,0,.194-3.034C309.88,131.529,309.874,131.5,309.871,131.481Z" transform="translate(-289.269 -119.836)"/><path class="m" d="M304.023,150.772c-.021-.456-.11-.94-.1-1.4a.37.37,0,0,0-.2-.057.355.355,0,0,0-.227.039.564.564,0,0,0-.206.364,2.74,2.74,0,0,0-.033,1.387,1.426,1.426,0,0,0,.812.99.19.19,0,0,0,.14,0,6.276,6.276,0,0,1-.185-1.328Z" transform="translate(-290.459 -134.933)"/><path class="m" d="M325.528,149.721a.5.5,0,0,0-.179-.364.34.34,0,0,0-.224-.039.737.737,0,0,0-.465.254.166.166,0,0,0-.051.027c0,.266,0,.534-.021.808a8.48,8.48,0,0,1-.11,1.372,3.9,3.9,0,0,1-.107.376.576.576,0,0,0,.2-.057,1.581,1.581,0,0,0,.895-.99A2.768,2.768,0,0,0,325.528,149.721Z" transform="translate(-305.325 -134.932)"/></g><path class="g" d="M292.317,242.194H287.31a2.643,2.643,0,0,1-2.64-2.637v-5.009a2.64,2.64,0,0,1,2.64-2.637h5.006a2.637,2.637,0,0,1,2.637,2.637v5.009A2.64,2.64,0,0,1,292.317,242.194Zm-5.006-9.216a1.572,1.572,0,0,0-1.569,1.569v5.009a1.572,1.572,0,0,0,1.569,1.569h5.006a1.572,1.572,0,0,0,1.569-1.569v-5.009a1.572,1.572,0,0,0-1.569-1.569Z" transform="translate(-203.519 -167.574)"/><path class="g" d="M292.317,292.731H287.31a2.64,2.64,0,0,1-2.64-2.637v-5.006a2.64,2.64,0,0,1,2.64-2.637h5.006a2.637,2.637,0,0,1,2.637,2.637v5.006A2.637,2.637,0,0,1,292.317,292.731Zm-5.006-9.222a1.572,1.572,0,0,0-1.569,1.569v5.006a1.572,1.572,0,0,0,1.569,1.569h5.006a1.572,1.572,0,0,0,1.569-1.569v-5a1.572,1.572,0,0,0-1.569-1.578Z" transform="translate(-203.519 -203.036)"/><path class="g" d="M292.317,342.564H287.31a2.643,2.643,0,0,1-2.64-2.637v-5.009a2.643,2.643,0,0,1,2.64-2.637h5.006a2.64,2.64,0,0,1,2.637,2.637v5.009A2.64,2.64,0,0,1,292.317,342.564Zm-5.006-9.216a1.572,1.572,0,0,0-1.569,1.569v5.009a1.572,1.572,0,0,0,1.569,1.569h5.006a1.572,1.572,0,0,0,1.569-1.569v-5.009a1.572,1.572,0,0,0-1.569-1.569Z" transform="translate(-203.519 -237.999)"/><rect class="i" width="38.024" height="1.044" rx="0.522" transform="translate(106.501 65.914)"/><rect class="i" width="44.624" height="1.044" rx="0.522" transform="translate(99.902 68.954)"/><rect class="i" width="40.223" height="1.044" rx="0.522" transform="translate(99.902 71.994)"/><rect class="i" width="38.024" height="1.044" rx="0.522" transform="translate(106.501 80.494)"/><rect class="i" width="44.624" height="1.044" rx="0.522" transform="translate(99.902 83.534)"/><rect class="i" width="18.226" height="1.044" rx="0.522" transform="translate(99.902 86.577)"/><rect class="i" width="38.024" height="1.044" rx="0.522" transform="translate(106.501 95.859)"/><rect class="i" width="44.624" height="1.044" rx="0.522" transform="translate(99.902 98.902)"/><path class="i" d="M347.994,359a.477.477,0,0,1-.474-.477v-.092a.474.474,0,0,1,.474-.474h34.874a.474.474,0,0,1,.474.474v.092a.477.477,0,0,1-.474.477" transform="translate(-247.618 -256.018)"/><path class="i" d="M350.035,392.694H288.772a.522.522,0,0,1-.522-.522h0a.522.522,0,0,1,.522-.522h61.263a.525.525,0,0,1,.522.522h0a.522.522,0,0,1-.522.522Z" transform="translate(-206.031 -279.656)"/><path class="i" d="M321.2,402.884H288.772a.522.522,0,0,1-.522-.522h0a.522.522,0,0,1,.522-.522H321.2a.525.525,0,0,1,.522.522h0A.522.522,0,0,1,321.2,402.884Z" transform="translate(-206.031 -286.806)"/><path class="i" d="M321.2,423.714H288.772a.522.522,0,0,1-.522-.522h0a.522.522,0,0,1,.522-.522H321.2a.525.525,0,0,1,.522.522h0A.522.522,0,0,1,321.2,423.714Z" transform="translate(-206.031 -301.422)"/><path class="i" d="M346.43,413.053H288.772a.522.522,0,0,1-.522-.522h0a.522.522,0,0,1,.522-.531H346.43a.525.525,0,0,1,.522.522h0a.522.522,0,0,1-.522.531Z" transform="translate(-206.031 -293.935)"/><path class="p" d="M296.979,229.409a.9.9,0,0,1-.6-.224l-2.882-2.518a.9.9,0,0,1,1.193-1.354l2.217,1.936,8.252-9.073a.9.9,0,0,1,1.334,1.211l-8.849,9.726A.9.9,0,0,1,296.979,229.409Z" transform="translate(-209.501 -157.731)"/><path class="p" d="M296.977,278.279a.9.9,0,0,1-.6-.221L293.5,275.54a.9.9,0,0,1,1.193-1.358l2.217,1.939,8.252-9.076a.9.9,0,1,1,1.334,1.211l-8.849,9.729A.9.9,0,0,1,296.977,278.279Z" transform="translate(-209.498 -192.02)"/><path class="p" d="M296.993,328.091a.9.9,0,0,1-.6-.224l-2.876-2.53a.9.9,0,0,1,1.193-1.355l2.217,1.936,8.252-9.073a.9.9,0,0,1,1.334,1.211l-8.849,9.726A.9.9,0,0,1,296.993,328.091Z" transform="translate(-209.514 -226.963)"/><path class="f" d="M509.563,548.11l-7.682,4.266,7.671,4.287Z" transform="translate(-355.925 -389.437)"/><path class="q" d="M503.712,558.34l-1.832,1.214,1.829,1.217Z" transform="translate(-355.925 -396.615)"/><rect class="r" width="8.557" height="13.995" rx="4.278" transform="translate(207.631 158.726) rotate(90.1)"/><rect class="s" width="42.21" height="2.852" transform="translate(153.637 158.691)"/><rect class="t" width="42.21" height="2.852" transform="translate(153.631 161.543)"/><rect class="u" width="42.21" height="2.852" transform="translate(153.625 164.395)"/><rect class="v" width="8.557" height="1.724" transform="translate(196.484 158.706) rotate(90.1)"/><path class="l" d="M420.684,264.906s7.134-3.962,8.381-4.982,1.7-1.811,1.244-5.209-1.056-7.095-1.4-7.587A4.564,4.564,0,0,0,426.875,246c-.943-.376-2.339-1.134-1.811-1.283a2.84,2.84,0,0,1,1.7.227,5.473,5.473,0,0,0,1.095.376s.3-.794-.039-1.131-2.3-.379-2.527-.418-.453-.528.641-.755a2.779,2.779,0,0,1,1.886,0,7.7,7.7,0,0,1,2,1.322c.266.34.227,1.736.376,2.264s2.342,6.039,2.87,8,2.3,3.965-.68,7.324-12.3,12-12.3,12-2.491-2.089-2.643-4.493S420.684,264.906,420.684,264.906Z" transform="translate(-296.673 -175.256)"/><path class="n" d="M429.349,310.038a1.127,1.127,0,0,1-.113-.128c-.155-.185-.313-.37-.477-.549a15.392,15.392,0,0,0-1.134-1.116l-.122-.1-.134-.092c-.185-.119-.376-.233-.564-.349-.072-.045-.388-.185-.421-.212l-.4-.119c-.116-.033-.224-.072-.328-.11-2.342,1.375-4.97,2.834-4.97,2.834s-3.4,2.115-3.246,4.529,2.643,4.493,2.643,4.493,5.463-5.072,9.362-8.95Z" transform="translate(-296.673 -220.444)"/><path class="k" d="M388.224,592.46a43.3,43.3,0,0,0-.352,5.558l.352.143c-.131,1.116-.179,2.234-.239,3.356a14.338,14.338,0,0,1-2.032-.447c-.516-1.217-.743-5.117-.794-8.306C386.142,593.015,387.245,592.529,388.224,592.46Z" transform="translate(-274.028 -420.556)"/><path class="k" d="M413.5,590.49a52.061,52.061,0,0,0-.868,6.044s3.738,1.847,4.177,2.6-.066,1.038-2,1.158a11.842,11.842,0,0,1-4.335-.874c-.412-1.253-.316-5.159-.1-8.339C411.321,591.406,412.515,590.481,413.5,590.49Z" transform="translate(-291.585 -419.173)"/><path class="k" d="M392.369,404.774a3.634,3.634,0,0,0-2.608.967,3.682,3.682,0,0,0-2.452-.94c-4.988-.176-6.787,3.374-6.647,7.16.015.421.257,29.868,1.28,49.165.764-.021,2.426-.042,3.189-.051.3-5.669,2.244-22.8,3.929-35.306.382,12.513.489,29.536.6,35.2.764.036,2.19.116,2.951.167,3.258-17.391,6.122-48.553,6.155-48.974C399.032,408.393,397.364,404.78,392.369,404.774Z" transform="translate(-270.867 -288.863)"/><path class="l" d="M397.1,409.456a29.029,29.029,0,0,1-4.445-.976A9.637,9.637,0,0,1,393,410.9c.955.075,1.757.1,2.279.14,2.112.143,4.419.17,5.072.191a23.994,23.994,0,0,1-1.715-2.3C397.958,409.112,397.1,409.456,397.1,409.456Z" transform="translate(-279.284 -291.465)"/><path class="l" d="M368.422,359.953a6.368,6.368,0,0,0-.576-2.154c-2.983-.755-7.1-2.3-7.581-5.191-.492-2.96,2.667-12.08,3.95-16.015-.531-.131-1.068-.245-1.617-.337a35.143,35.143,0,0,1-3.717-.525c-.9,2.452-4.332,12.286-3.207,17.764C356.864,359.284,365.078,359.774,368.422,359.953Z" transform="translate(-253.182 -240.42)"/><path class="l" d="M389.333,290.907q.018-.131.045-.26c-.081-.134-.155-.272-.224-.415a4.224,4.224,0,0,1,.248-3.971c.865-1.352,3.4-2.646,4.711-1.178a6.676,6.676,0,0,1,1.053,6.325,2.456,2.456,0,0,1-.6.9,1.99,1.99,0,0,1-1.062.483c-.075.838-.254,1.733-.3,2.5a4.614,4.614,0,0,1-.6,2.512c-.37.424-.823.242-1.214.045a4.091,4.091,0,0,1-2.342-2.33,3.581,3.581,0,0,1-.221-1.053,7.056,7.056,0,0,1,.125-1.387C389.1,292.36,389.216,291.629,389.333,290.907Z" transform="translate(-276.563 -204.428)"/><path class="k" d="M387.882,281.394a8.854,8.854,0,0,1,1.143-.152.654.654,0,0,0,.424-.245,1.745,1.745,0,0,0,.245-1.871c-.17-.418-.5-.752-.668-1.167a2.386,2.386,0,0,1-.1-1.128,2.788,2.788,0,0,0-.221-1.319.62.62,0,0,0-.6-.328h0a7.574,7.574,0,0,0-1.721.4.63.63,0,0,1-.3.027c-2.294-.373-5.331.776-6.053,2.157a1.4,1.4,0,0,0-.146.433.6.6,0,0,1-.149.331,1.512,1.512,0,0,0-.367.65c-.337,1.357,1.6,2.551,1.859,3.938.063.325.027.656.081.982.191,1.161,1.638,2.184,3.213,2.27s3.082-.773,3.347-1.909a.767.767,0,0,0-.033-.534c-.122-.233-.409-.4-.618-.6A1.138,1.138,0,0,1,387.882,281.394Z" transform="translate(-269.937 -197.938)"/><path class="n" d="M381.491,324.737a20.739,20.739,0,0,0-.725-2.22c.34-.042-.979-4.568-1.584-6.862-1.93-.212-3.682-.421-4.52-.424l-.048-.021-.221-.027c.072-.415,0-.743-.9-.85a20.255,20.255,0,0,0-5.278.34c-.439.1-.4.394-.3.764l-.042-.054-.1.081s-6.307-.268-8.029,12.074c.659,1.6,4.1,2.088,4.9,2.163a10.246,10.246,0,0,0,.382-1.3c.462,3.031.683,3.822,1.164,9.481-.3,4.311-.445,7.6-.209,7.757.635.451,14.121.3,17.039-.829l.275-.039c1.51-.227.5-2.417.427-2.784C382.639,336.34,382.97,330.3,381.491,324.737Z" transform="translate(-256.199 -225.363)"/><path class="o" d="M394.8,369.847a17.16,17.16,0,0,1-11.934-5.039c-2.849-3-4.556-7.014-5.967-10.839-.343-.922-.653-1.865-.94-2.819l-.078.072c.462,3.019,1.169,6.928,1.644,12.531-.3,4.311-.444,7.6-.209,7.757.635.451,14.121.3,17.039-.829l.274-.039a.874.874,0,0,0,.809-.811A4.62,4.62,0,0,1,394.8,369.847Z" transform="translate(-267.517 -251.239)"/><path class="t" d="M393.465,315.184c.072-.415,0-.743-.9-.85a20.256,20.256,0,0,0-5.278.34c-.412.1-.406.361-.3.7C389.11,315.867,393.489,315.187,393.465,315.184Z" transform="translate(-275.272 -225.363)"/><path class="w" d="M388.96,607.887a8.867,8.867,0,0,0-1.492-2.685c0-.445,0-.9.033-1.322a8.709,8.709,0,0,1-2.637.042c.033.635.036,1.259.033,1.847-.119.549-.173,1.125-.236,1.671a2.384,2.384,0,0,0,.3,1.936,1.775,1.775,0,0,0,1.447.412c.516-.039,1.936-.036,2.1-.113a.639.639,0,0,0,.263-.257A2,2,0,0,0,388.96,607.887Z" transform="translate(-273.634 -428.568)"/><path class="w" d="M415.792,607.911c-.3-.534-2.285-1.62-3.4-2.2a5.671,5.671,0,0,0-.713-1.053q.063-.746.152-1.477A8.655,8.655,0,0,1,409.2,603c-.018.579-.03,1.149-.03,1.689,0,.036-.027.069-.039.107a12.943,12.943,0,0,0-.319,2.029,2.384,2.384,0,0,0,.3,1.936,1.785,1.785,0,0,0,1.45.412c.516-.039,1.933-.036,2.1-.113l.042-.027a6.354,6.354,0,0,0,1.086.036C415.727,608.949,416.228,608.668,415.792,607.911Z" transform="translate(-290.578 -427.951)"/><path class="i" d="M432.286,241.762l-.746-.9,1.158-.161Z" transform="translate(-306.571 -173.742)"/><path class="q" d="M431.707,241.331l-.167-.239.283-.063Z" transform="translate(-306.571 -173.973)"/><rect class="w" width="1.137" height="1.862" rx="0.568" transform="translate(134.486 71.434) rotate(-68.78)"/><path class="g" d="M434.177,243.07l9.052,3.529-.137.352-9.052-3.526Z" transform="translate(-308.325 -175.405)"/><path class="x" d="M434.637,241.89l9.052,3.526-.137.355-9.052-3.529Z" transform="translate(-308.648 -174.577)"/><path class="g" d="M435.1,240.7l9.052,3.529-.137.352-9.052-3.526Z" transform="translate(-308.971 -173.742)"/><rect class="v" width="1.137" height="0.23" transform="translate(134.628 71.49) rotate(-68.78)"/><path class="l" d="M445.75,244.167a.222.222,0,0,1,.086.018c.677.3,1.384.525,2.088.788h.021a1.626,1.626,0,0,0-.188-.677,7.729,7.729,0,0,0-2-1.322,2.782,2.782,0,0,0-1.886,0c-1.092.224-.868.719-.644.755s2.19.078,2.53.418Z" transform="translate(-314.641 -175.228)"/><path class="l" d="M447.847,250.668l-.734-.427a3.925,3.925,0,0,0-.913-.492.239.239,0,0,1-.069-.03l-.582-.137a5.473,5.473,0,0,1-1.095-.376,2.84,2.84,0,0,0-1.7-.227c-.528.149.868.9,1.811,1.283a4.713,4.713,0,0,1,2.038,1.131,3.232,3.232,0,0,1,.277.832c.471-.078.94-.161,1.411-.251-.218-.573-.37-.985-.406-1.11A1.861,1.861,0,0,1,447.847,250.668Z" transform="translate(-314.361 -179.522)"/><ellipse class="y" cx="9.595" cy="5.149" rx="9.595" ry="5.149" transform="translate(57.76 160.445)"/><path class="s" d="M212.539,566.657c-6.1,0-10.869-2.927-10.869-6.662s4.774-6.665,10.869-6.665,10.869,2.927,10.869,6.665S218.634,566.657,212.539,566.657Zm0-11.635c-4.97,0-9.168,2.27-9.168,4.961s4.2,4.962,9.168,4.962,9.168-2.273,9.168-4.962S217.506,555.022,212.539,555.022Z" transform="translate(-145.282 -393.1)"/><path class="g" d="M212.539,561.657c-6.1,0-10.869-2.927-10.869-6.665s4.774-6.662,10.869-6.662,10.869,2.927,10.869,6.662S218.634,561.657,212.539,561.657Zm0-11.636c-4.97,0-9.168,2.274-9.168,4.962s4.2,4.962,9.168,4.962,9.168-2.27,9.168-4.962-4.2-4.947-9.168-4.947Z" transform="translate(-145.282 -389.591)"/><path class="z" d="M194.69,587.764l3.8-2.089s.427-.328,1.25.534a.525.525,0,0,1-.161.913l-4.09,2.187Z" transform="translate(-140.384 -415.752)"/><path class="g" d="M175.136,591.555c.6-.728.23-2.041-.841-2.93a2.381,2.381,0,0,0-3.034-.3l-8.95,5.37,3.52,3.562Z" transform="translate(-117.665 -417.365)"/><path class="s" d="M163.915,607.186c1.071.895,1.447,2.2.841,2.93s-1.966.6-3.034-.3-1.447-2.2-.841-2.933S162.847,606.291,163.915,607.186Z" transform="translate(-116.46 -430.346)"/><path class="i" d="M224.938,563.378c0,.465-.958.841-2.139.841s-2.139-.376-2.139-.841.958-.838,2.139-.838S224.938,562.916,224.938,563.378Z" transform="translate(-158.606 -399.562)"/><path class="i" d="M216.54,568.353c0,.268-.555.486-1.235.486s-1.235-.218-1.235-.486.552-.483,1.235-.483S216.54,568.088,216.54,568.353Z" transform="translate(-153.982 -403.302)"/></g></g></svg>