<svg xmlns="http://www.w3.org/2000/svg" width="291.258" height="188.313" viewBox="0 0 291.258 188.313"><defs><style>.a{fill:#d1e7f4;}.b{fill:#a7c4e4;}.c{fill:#2c4482;}.d{fill:#4367c7;}.e{fill:#355baf;}.f{fill:#8db0da;}.g{fill:#6792b7;}.h{fill:#52517b;}.i{fill:#092140;}.j{fill:#292951;}.k{fill:#f7e2a6;}.l{fill:#ffd22e;}.m{fill:#f0a32f;}.n{fill:#f2f2f2;}.o{fill:#ffaa81;}.p{fill:#d64377;}.q{fill:#fe912a;}.r{fill:#fcbd24;}.s{fill:#f8c22e;}.t{fill:#45446c;}.u{fill:#bc9371;}.v{fill:#ceab8b;}.w{fill:#bc4074;}.x{fill:#492817;}.y{fill:#4040a0;}.z{fill:#60c0fd;}.aa{fill:#fff;}.ab{fill:#34b2e4;}.ac{fill:#7a8eff;}.ad{fill:#1f4a6f;}.ae{fill:#bd0006;}.af{fill:gray;}</style></defs><g transform="translate(0 0)"><ellipse class="a" cx="126.451" cy="6.554" rx="126.451" ry="6.554" transform="translate(13.655 175.205)"/><path class="b" d="M190.659,377.316H45.963a4.464,4.464,0,0,1-4.347-3.44l-22.25-93.8a4.464,4.464,0,0,1,4.35-5.5h144.7a4.464,4.464,0,0,1,4.347,3.438l22.239,93.8a4.464,4.464,0,0,1-4.347,5.5Z" transform="translate(-19.244 -200.931)"/><path class="c" d="M202.789,377.316H55.115a3.03,3.03,0,0,1-2.944-2.327L29.249,278.3a3.025,3.025,0,0,1,2.941-3.722H179.864a3.025,3.025,0,0,1,2.944,2.328l22.939,96.683a3.027,3.027,0,0,1-2.958,3.725Z" transform="translate(-26.399 -200.931)"/><path class="d" d="M219.065,381.778H78.194L57.63,293.37H198.5Z" transform="translate(-46.919 -214.478)"/><path class="e" d="M57.63,293.37l20.564,88.408h72.417C132.53,363.822,57.63,293.37,57.63,293.37Z" transform="translate(-46.919 -214.478)"/><path class="f" d="M115.712,634.82H339.385a2.422,2.422,0,0,1,2.422,2.422v2.748a2.422,2.422,0,0,1-2.422,2.422H115.712a2.9,2.9,0,0,1-2.9-2.9v-1.791A2.9,2.9,0,0,1,115.712,634.82Z" transform="translate(-86.702 -460.653)"/><path class="g" d="M104.252,634.82h73.519a2.38,2.38,0,0,1,2.38,2.38v2.832a2.38,2.38,0,0,1-2.38,2.38H104.252a2.9,2.9,0,0,1-2.9-2.9v-1.791A2.9,2.9,0,0,1,104.252,634.82Z" transform="translate(-78.44 -460.653)"/><path class="h" d="M149.031,645.842H141.11a1.635,1.635,0,0,1-1.63-1.63h0a1.635,1.635,0,0,1,1.63-1.632h7.922a1.635,1.635,0,0,1,1.632,1.632h0A1.635,1.635,0,0,1,149.031,645.842Z" transform="translate(-105.931 -466.248)"/><path class="h" d="M197.816,643.889a1.632,1.632,0,1,1-1.281-1.281A1.632,1.632,0,0,1,197.816,643.889Z" transform="translate(-145.658 -466.245)"/><path class="h" d="M215.346,643.889a1.632,1.632,0,1,1-1.281-1.281A1.632,1.632,0,0,1,215.346,643.889Z" transform="translate(-158.297 -466.245)"/><path class="g" d="M641.809,647.14H604.765a.82.82,0,0,1-.815-.815h0a.817.817,0,0,1,.815-.815h37.044a.815.815,0,0,1,.815.815h0A.817.817,0,0,1,641.809,647.14Z" transform="translate(-440.8 -468.361)"/><path class="a" d="M843.306,49.95A25.036,25.036,0,0,1,839.4,39.394c-.656-6.976,2.919-13.82,7.921-18.728a36.08,36.08,0,0,1,35.294-8.5c10.492,3.284,19.683,12.95,19.114,23.927a29.043,29.043,0,0,1-2.472,9.585A33.21,33.21,0,0,1,892.334,56.6c-5.469,5.416-12.52,8.164-20.16,9.085a195.535,195.535,0,0,1-23.793,1.219,11.054,11.054,0,0,0,5.422-2.648c1.922-2.3.734-2.216-1.479-4.063a42.375,42.375,0,0,1-9.018-10.246Z" transform="translate(-610.496 -10.633)"/><path class="a" d="M428.1,589.04l-8.764,5.8,8.745,5.829Z" transform="translate(-307.701 -427.647)"/><path class="i" d="M421.829,603.92l-2.489,1.649,2.483,1.655Z" transform="translate(-307.701 -438.375)"/><rect class="j" width="11.63" height="19.024" rx="5.815" transform="translate(168.57 161.466) rotate(90.1)"/><rect class="k" width="3.876" height="32.144" transform="translate(120.405 165.277) rotate(-89.9)"/><rect class="l" width="3.876" height="32.144" transform="translate(120.399 169.154) rotate(-89.9)"/><rect class="m" width="3.876" height="32.144" transform="translate(120.391 173.028) rotate(-89.9)"/><rect class="n" width="11.63" height="2.347" transform="translate(153.42 161.44) rotate(90.1)"/><path class="o" d="M795.085,245.29a.235.235,0,0,0-.154.19.038.038,0,0,0,0,.031c0,.022.039.028.064.036.128.036.2.173.243.279.025.064.05.126.078.19a.469.469,0,0,0,.05.1.4.4,0,0,0,.229.109.257.257,0,0,0,.209-.02c.073-.059.05-.167.02-.251a1.04,1.04,0,0,0-.3-.522C795.423,245.362,795.228,245.239,795.085,245.29Z" transform="translate(-578.49 -179.805)"/><path class="p" d="M778.143,262.906a22.764,22.764,0,0,0-1.426-3.845c-.8-1.842-3.184-5.581-4.333-7.671.081.154-1.953.837-1.934.89.952,2.3,3.086,8.078,3.022,9.88a.237.237,0,0,1-.321.237c-4.579-1.836-9.038-3.985-13.485-6.094l-1.953-.932a5.577,5.577,0,0,0,.343,3.329,14.59,14.59,0,0,0,2.79,4.01,29.068,29.068,0,0,0,5.042,2.492c1.189.452,8.605,2.628,10.511,1.953C778.516,266.407,778.4,264.334,778.143,262.906Z" transform="translate(-551.577 -184.212)"/><path class="o" d="M800.141,242.524c0-.092.022-.187.031-.279a1.751,1.751,0,0,0-.223-.879,11.548,11.548,0,0,0-.628-1.138.928.928,0,0,0-.377-.385.427.427,0,0,0-.536.179c-.243-.246-.583-.056-.72.154-.092-.117-.179-.151-.419-.025a.6.6,0,0,0-.232.3.424.424,0,0,0-.524.162,1.338,1.338,0,0,0-.142.756,3.636,3.636,0,0,0,.24.879,2.71,2.71,0,0,0,.184.424c.061.12.12.279.237.321a3.5,3.5,0,0,0,.4.067,1.117,1.117,0,0,1,.522.279,1.7,1.7,0,0,1,.421.527c.028.075.073.254.209.279a2.588,2.588,0,0,0,1.789-.8.365.365,0,0,0-.048-.3,1.162,1.162,0,0,1-.19-.525Z" transform="translate(-579.524 -175.862)"/><path class="q" d="M795.39,234.524l-4.6,1.253a.893.893,0,0,1-1.094-.6l-.645-2.246a.863.863,0,0,1,.617-1.063l4.6-1.253a.893.893,0,0,1,1.094.6l.645,2.252a.862.862,0,0,1-.617,1.058Zm-5.539-2.056a.234.234,0,0,0-.167.279l.645,2.249a.243.243,0,0,0,.3.165l4.6-1.253a.235.235,0,0,0,.168-.279l-.645-2.249a.243.243,0,0,0-.3-.165Z" transform="translate(-574.23 -169.21)"/><path class="r" d="M819.573,202.89l-1.063.555,2.578,8.985,1.2-.073Z" transform="translate(-595.491 -149.245)"/><path class="s" d="M770.231,231.414a9.08,9.08,0,0,1-.773-2.7c-.028-.3,0-.491.073-.519l-.4.14c-.164.056-.073.893.209,1.87s.645,1.738.815,1.7l.416-.092C770.488,231.836,770.368,231.682,770.231,231.414Z" transform="translate(-559.83 -167.492)"/><path class="q" d="M771.3,229.955c.279,1.01.385,1.856.218,1.892s-.533-.734-.815-1.724-.385-1.836-.223-1.889S771.012,228.948,771.3,229.955Z" transform="translate(-560.809 -167.514)"/><path class="q" d="M771.18,229.411l.407,1.429a7.364,7.364,0,0,1-.279-1.49Z" transform="translate(-561.368 -168.321)"/><path class="q" d="M773.089,236.277h.179a6.377,6.377,0,0,1-.628-1.557Z" transform="translate(-562.42 -172.193)"/><path class="s" d="M784.241,207.71l-11.161,5.821v.179a9.086,9.086,0,0,0,.815,2.76,1.62,1.62,0,0,0,.184.3l1.828-.109,7.961-.48,2.757-.167a24.361,24.361,0,0,1-2.372-8.3Z" transform="translate(-562.738 -152.72)"/><path class="q" d="M778.619,223.1l-.081.042-1.858.971v.2a9.233,9.233,0,0,0,.326,1.607,8.726,8.726,0,0,0,.578,1.537,2.067,2.067,0,0,0,.206.338l2.087-.126a12.938,12.938,0,0,1-1.259-4.573Z" transform="translate(-565.333 -163.815)"/><path class="q" d="M814.6,204.88l-1.515.79a24.359,24.359,0,0,0,2.372,8.3l1.722-.1Z" transform="translate(-591.577 -150.679)"/><path class="s" d="M772.355,230.194a7.731,7.731,0,0,1-.279-1.4v-.179l-.034.02-.382.2a7.385,7.385,0,0,0,.279,1.49,6.389,6.389,0,0,0,.628,1.557l.388-.025h.095a1.6,1.6,0,0,1-.184-.3A7.8,7.8,0,0,1,772.355,230.194Z" transform="translate(-561.714 -167.795)"/><path class="s" d="M820.93,195.75l.271.938.117.413,2.715,9.467.206.717.181.636,2.26-.318-.338-1.175-2.983-10.394-.335-1.175Z" transform="translate(-597.236 -143.455)"/><path class="s" d="M822.851,203.6c1,3.479,1.035,6.418.114,6.538s-2.336-2.414-3.267-5.664-1.044-6.161-.223-6.507S821.86,200.121,822.851,203.6Z" transform="translate(-595.789 -145.672)"/><path class="s" d="M830.433,200.64c1.046,3.65,1.046,6.727.039,6.867s-2.511-2.511-3.493-5.91-1.063-6.451-.162-6.833S829.386,196.993,830.433,200.64Z" transform="translate(-601.027 -143.359)"/><path class="m" d="M831.14,201.469c.977,3.4,1.175,6.245.461,6.351s-1.992-2.436-2.919-5.667-1.169-6.063-.522-6.334S830.166,198.068,831.14,201.469Z" transform="translate(-602.186 -144.132)"/><path class="o" d="M799.625,241.823a3.205,3.205,0,0,0-.22-.784l-.028-.059a8.874,8.874,0,0,1-2.829.876v.014a.561.561,0,0,1-.047.279c.125.234.257.463.4.675a.84.84,0,0,0,.349.343.4.4,0,0,0,.494-.159.447.447,0,0,0,.667-.137c.087.106.165.134.388.022a.533.533,0,0,0,.215-.279.4.4,0,0,0,.486-.142A1.146,1.146,0,0,0,799.625,241.823Z" transform="translate(-579.623 -176.706)"/><path class="t" d="M714.631,618.157a2.7,2.7,0,0,0,2.26-.767v.349s4.531,1.789,5.109,2.62.025,1.217-2.232,1.543a22.034,22.034,0,0,1-5.974-.466,5.923,5.923,0,0,1,.279-3.164C714.263,618.339,714.43,618.118,714.631,618.157Z" transform="translate(-519.909 -448.087)"/><path class="u" d="M754.2,370.088s-1.409,23.731-2.062,29.46-1.886,34.6-1.886,34.6l-1.872.645-1.7-.645s-1.206-21.12-1.822-25.713-3.016-30.579-3.186-35.2S750.413,354.759,754.2,370.088Z" transform="translate(-540.093 -264.725)"/><path class="v" d="M722.715,371.446s-2.626,21.382-3.627,27.066-4.211,35.267-4.211,35.267l-1.412.943-1.415-.463s-.4-23.687-.75-28.307-.488-31.782-.385-36.4S719.844,355.9,722.715,371.446Z" transform="translate(-517.895 -264.475)"/><path class="t" d="M759.76,618.782a9.329,9.329,0,0,0,3.535-.952c.025.126,0,.954,0,.954a37.674,37.674,0,0,1,7.1,1.2c3.608,1.007,6.281,2.469-1.018,2.285s-9.4-.4-9.529-1.716C759.8,620.163,759.76,619.359,759.76,618.782Z" transform="translate(-553.134 -448.404)"/><path class="o" d="M736.837,254.454c-.589.134-1.189.151-1.75.26a6,6,0,0,1-1.674.167c0-.938-.058-1.953-.036-2.827,1.133.8,2.322.36,3.474-.184C736.828,252.713,736.806,253.606,736.837,254.454Z" transform="translate(-534.109 -184.558)"/><path class="p" d="M711.612,286.613c1.161-4.425,1.549-10.282.508-13.552-2.076-6.515-1.019-11.114,2.389-13.1a11.285,11.285,0,0,1,2.09-.951c.059-.151.117-.3.162-.458a5.186,5.186,0,0,0,.209-1.247c0-.212.558,0,.725,0a7.922,7.922,0,0,0,.89.075,7.252,7.252,0,0,0,2.232-.329,4.8,4.8,0,0,0,.365,1.529v.022a10.915,10.915,0,0,1,4.465,1.881c3.867,3.563,2.4,10.43,4.464,19.412,2.45,10.726,1.856,13.753,1.856,13.753s-14.23,2.9-21.089-.279A19.58,19.58,0,0,1,711.612,286.613Z" transform="translate(-517.855 -188.292)"/><path class="w" d="M719.471,302.49c-3.5-2.67-4.568-6.624-4.584-10.882,0-1.736.162-3.463.251-5.193a9.9,9.9,0,0,0-.43-4.1c-.968-3.736-2.213-7.606-1.434-11.44-2.4,2.313-2.955,6.515-1.155,12.163,1.041,3.27.653,9.127-.508,13.553a19.668,19.668,0,0,0-.737,6.744c3.348,1.549,8.4,1.66,12.732,1.367A16.152,16.152,0,0,1,719.471,302.49Z" transform="translate(-517.853 -198.256)"/><path class="o" d="M730.76,211.707a26.248,26.248,0,0,0,.279,4.2c.321,1.867,1.116,6.513-2.048,6.719s-4.688-.067-5.4-.859-3.469-5.631-2.126-8.136S728.5,207.714,730.76,211.707Z" transform="translate(-525.259 -154.281)"/><path class="x" d="M718.56,210.15c0-1.4.5-3.033,1.831-3.449.279-.092,1.029-1.457,1.364-1.744a5.622,5.622,0,0,1,2.059-1.116,7.8,7.8,0,0,1,3.906-.251,2.79,2.79,0,0,1,1.906,2.333c.243,1.953-1.568,2.232-3.1,2.232a7.624,7.624,0,0,0-2.729.366,3.183,3.183,0,0,0-1.953,1.836,4.889,4.889,0,0,0,.042,2.511,9.889,9.889,0,0,0,.792,1.789,1.9,1.9,0,0,0,1.535.421c.8-.1,3.348-.993,4.73-.756l.413-.114a.4.4,0,0,1,.343,0c.31.209.321,1.172.209,1.518a2.89,2.89,0,0,1-.53.893,3.1,3.1,0,0,1-2.545,1.4,5.427,5.427,0,0,1-2.511.059,1.289,1.289,0,0,1-.661-.949,6.25,6.25,0,0,1-.661-.815q-.527-.645-1.01-1.328a3.819,3.819,0,0,1-.592-1.08,4.33,4.33,0,0,1-.126-.731c-.014-.106-.025-.212-.036-.315a1.534,1.534,0,0,1-.047-.24c-.05-.463-.109-1.046-.558-1.2a3,3,0,0,0,.165,2.648l.117.279a.582.582,0,0,1,.226.148,1.625,1.625,0,0,1,.3.469,9.969,9.969,0,0,1,.854,2.377.279.279,0,0,1-.031.257c-.1.112-.279.014-.4-.084a7.994,7.994,0,0,1-1.086-1.085,1.181,1.181,0,0,1-.078-.092A9.987,9.987,0,0,1,718.56,210.15Z" transform="translate(-523.43 -149.635)"/><path class="o" d="M763.22,615.71c0,.441-.02.714-.017.823a2.715,2.715,0,0,1-3.544.72c0-.14-.034-.873-.039-1.013A4.356,4.356,0,0,0,763.22,615.71Z" transform="translate(-553.033 -446.876)"/><path class="o" d="M717.866,616.7c0,.072-.022.469-.019.542a3.31,3.31,0,0,1-2.364.681c-.154-.042-.3-.1-.455-.148-.022-.209,0-.494-.028-.714A4.082,4.082,0,0,0,717.866,616.7Z" transform="translate(-520.864 -447.589)"/><path class="p" d="M689.113,268.223c1.22,2.028-.536,6.493-3.435,8.63-.254.187-1.289,1.1-2.274,2.059h0a25.576,25.576,0,0,0-5.212,7.185c-1.9,5.109,7.456,12.233,7.456,12.233a6.915,6.915,0,0,1,.9,1.063c.586.837.575,2.017-.131,1.588-.993-.606-2.288-1.409-3.491-2.213-2.556-1.708-12.247-7.313-9.9-14.44.9-2.743,3.259-6.139,5.748-8.887,1.267-1.864,2.419-3.747,3.3-4.763C685.212,267.079,688.03,266.415,689.113,268.223Z" transform="translate(-490.336 -195.648)"/><path class="o" d="M721.818,382.628a.645.645,0,0,0,.542.019.494.494,0,0,0,.1-.056.238.238,0,0,0,.081-.293c-.02-.059-.064-.109-.087-.165.061,0,.117.042.181.05a.46.46,0,0,0,.229-.034.279.279,0,0,0,.173-.162c.039-.145-.115-.279-.2-.388a2.35,2.35,0,0,0-.318-.3.559.559,0,0,0,.193-.031.22.22,0,0,0,.092-.36,1.842,1.842,0,0,0-.765-.837c-.343-.212-.661-.463-1.007-.672a3.557,3.557,0,0,0-.491-.3,1.633,1.633,0,0,0-.647-.073,9.829,9.829,0,0,0-2.249.24c-.078.02-.154.042-.223.064l-1-.667-1.074,1.49,1.052.675v.028a1.117,1.117,0,0,0,.494.739,2.624,2.624,0,0,0,.8.338,1.954,1.954,0,0,0,.419.07,4.992,4.992,0,0,0,.912-.056,2.546,2.546,0,0,1,.408-.047.335.335,0,0,1,.279.106,4.747,4.747,0,0,0,.628.449.5.5,0,0,0,.129.061,2.232,2.232,0,0,0,.938.2.506.506,0,0,0,.237-.075c.036-.025.056-.07.109-.059A.209.209,0,0,1,721.818,382.628Z" transform="translate(-521.116 -275.97)"/><path class="p" d="M151.812,194.149H63.435L62.3,190.156a2.76,2.76,0,0,1,2.651-3.516h84.724Z" transform="translate(-50.208 -137.529)"/><path class="b" d="M181.85,309.27H93.471L64.7,206.71h88.377Z" transform="translate(-52.016 -151.999)"/><path class="y" d="M188.425,100.681H80.206L78.9,96.1a3.122,3.122,0,0,1,3.011-3.979H182.138a5.112,5.112,0,0,1,4.914,3.708Z" transform="translate(-62.168 -69.383)"/><path class="b" d="M192.4,123.825H84.184L82.15,116.69H190.366Z" transform="translate(-64.597 -87.097)"/><path class="m" d="M198.826,146.361H90.61l-2.62-9.191H196.206Z" transform="translate(-68.808 -101.862)"/><path class="a" d="M233.606,268.346H125.387L94.99,161.74H203.209Z" transform="translate(-73.855 -119.577)"/><path class="l" d="M245.378,190.98H175.107l-8.337-29.24h70.271Z" transform="translate(-125.606 -119.577)"/><path class="p" d="M102.98,99.533a1.146,1.146,0,0,1-1.141,1.543,2.232,2.232,0,0,1-2.023-1.543,1.146,1.146,0,0,1,1.141-1.543A2.232,2.232,0,0,1,102.98,99.533Z" transform="translate(-77.291 -73.615)"/><path class="z" d="M121.03,99.533a1.146,1.146,0,0,1-1.141,1.543,2.232,2.232,0,0,1-2.023-1.543,1.146,1.146,0,0,1,1.141-1.543A2.232,2.232,0,0,1,121.03,99.533Z" transform="translate(-90.304 -73.615)"/><path class="m" d="M139.917,99.533a1.146,1.146,0,0,1-1.141,1.543,2.232,2.232,0,0,1-2.02-1.543A1.146,1.146,0,0,1,137.9,97.99,2.232,2.232,0,0,1,139.917,99.533Z" transform="translate(-103.924 -73.615)"/><path class="aa" d="M214.012,217.645H192.158L187.49,201.28h21.856Z" transform="translate(-140.544 -148.084)"/><path class="f" d="M217.5,220.144H199.144l-3.764-13.2h18.357Z" transform="translate(-146.233 -152.164)"/><path class="aa" d="M227.509,230.888h0c-.48-.583-4.138-4.5-4.59-4.989s-.929-1.019-1.035-.614-.114.539-.642.089c-2.31-2.648-2.64-1.616-3.516.765s-1.551,2.2-1.978,1.794c-2.843-3.488-3.664,1.886-3.8,2.958Z" transform="translate(-158.179 -164.329)"/><ellipse class="aa" cx="1.44" cy="1.911" rx="1.44" ry="1.911" transform="matrix(0.622, -0.783, 0.783, 0.622, 53.07, 59.454)"/><path class="z" d="M397.971,306.087h-3.985a.407.407,0,0,1-.349-.3c-.045-.165.033-.3.179-.3H397.8a.407.407,0,0,1,.346.3C398.194,305.953,398.113,306.087,397.971,306.087Z" transform="translate(-289.162 -223.216)"/><path class="ab" d="M426.183,306.087h-7.492a.407.407,0,0,1-.346-.3c-.047-.165.034-.3.176-.3h7.492a.4.4,0,0,1,.346.3C426.406,305.953,426.331,306.087,426.183,306.087Z" transform="translate(-306.974 -223.216)"/><path class="q" d="M446.255,301.387h-3.984a.407.407,0,0,1-.346-.3c-.047-.165.033-.3.179-.3h3.984a.407.407,0,0,1,.346.3C446.481,301.253,446.4,301.387,446.255,301.387Z" transform="translate(-323.975 -219.827)"/><path class="ac" d="M440.683,312.007h-7.5a.4.4,0,0,1-.346-.3c-.048-.165.031-.3.176-.3H440.5a.4.4,0,0,1,.346.3C440.9,311.873,440.817,312.007,440.683,312.007Z" transform="translate(-317.42 -227.484)"/><path class="ad" d="M373.76,336.744h-3.99a.4.4,0,0,1-.346-.3c-.047-.165.031-.3.176-.3h3.984a.4.4,0,0,1,.346.3C373.978,336.61,373.9,336.744,373.76,336.744Z" transform="translate(-271.704 -245.321)"/><path class="ab" d="M377.262,336.744H369.77a.4.4,0,0,1-.346-.3c-.047-.165.031-.3.176-.3h7.492a.4.4,0,0,1,.346.3C377.485,336.61,377.407,336.744,377.262,336.744Z" transform="translate(-271.704 -245.321)"/><path class="ae" d="M377.262,336.744H369.77a.4.4,0,0,1-.346-.3c-.047-.165.031-.3.176-.3h7.492a.4.4,0,0,1,.346.3C377.485,336.61,377.407,336.744,377.262,336.744Z" transform="translate(-271.704 -245.321)"/><path class="z" d="M371.67,283.924H354.71a.4.4,0,0,1-.346-.3c-.048-.165.031-.3.176-.3H371.5a.4.4,0,0,1,.349.3C371.893,283.8,371.815,283.924,371.67,283.924Z" transform="translate(-260.846 -207.239)"/><path class="z" d="M366.256,289.087H356.211a.407.407,0,0,1-.346-.3c-.047-.165.033-.3.176-.3h10.045a.407.407,0,0,1,.349.3C366.479,288.953,366.4,289.087,366.256,289.087Z" transform="translate(-261.928 -210.96)"/><path class="z" d="M373.116,313.074H363.071a.4.4,0,0,1-.346-.3c-.047-.167.034-.3.176-.3h10.045a.4.4,0,0,1,.349.3C373.333,312.943,373.255,313.074,373.116,313.074Z" transform="translate(-266.874 -228.256)"/><path class="z" d="M379.124,294.7H357.781a.408.408,0,0,1-.346-.3c-.047-.165.034-.3.176-.3h21.343a.408.408,0,0,1,.349.3C379.347,294.563,379.269,294.7,379.124,294.7Z" transform="translate(-263.06 -215.004)"/><path class="z" d="M383.108,323.7H366.071a.408.408,0,0,1-.346-.3c-.047-.165.034-.3.176-.3h17.043a.4.4,0,0,1,.346.3C383.332,323.563,383.254,323.7,383.108,323.7Z" transform="translate(-269.037 -235.912)"/><path class="z" d="M385.119,330.877H368.07a.4.4,0,0,1-.346-.3c-.047-.165.031-.3.176-.3h17.052a.407.407,0,0,1,.346.3C385.345,330.743,385.264,330.877,385.119,330.877Z" transform="translate(-270.478 -241.089)"/><path class="z" d="M377.571,300.317H359.386a.408.408,0,0,1-.349-.3c-.045-.165.033-.3.179-.3H377.4a.4.4,0,0,1,.346.3C377.794,300.183,377.713,300.317,377.571,300.317Z" transform="translate(-264.216 -219.056)"/><path class="z" d="M368.8,306.237h-7.726a.408.408,0,0,1-.346-.3c-.047-.165.034-.3.176-.3h7.726a.407.407,0,0,1,.346.3C369.02,306.1,368.939,306.237,368.8,306.237Z" transform="translate(-265.432 -223.324)"/><path class="ac" d="M425.445,289.314H415.121a.407.407,0,0,1-.346-.3c-.047-.165.033-.3.176-.3h10.324a.4.4,0,0,1,.349.3C425.668,289.18,425.59,289.314,425.445,289.314Z" transform="translate(-304.4 -211.125)"/><path class="z" d="M272.175,398.217H268.19a.4.4,0,0,1-.346-.3c-.047-.165.031-.3.176-.3H272a.4.4,0,0,1,.346.3C272.4,398.083,272.32,398.217,272.175,398.217Z" transform="translate(-198.467 -289.639)"/><path class="ab" d="M300.392,398.217H292.9a.4.4,0,0,1-.346-.3c-.047-.165.031-.3.176-.3h7.492a.407.407,0,0,1,.346.3C300.615,398.083,300.534,398.217,300.392,398.217Z" transform="translate(-216.283 -289.639)"/><path class="q" d="M320.465,393.517H316.48a.4.4,0,0,1-.346-.3c-.047-.165.031-.3.176-.3h3.984a.4.4,0,0,1,.346.3C320.688,393.383,320.61,393.517,320.465,393.517Z" transform="translate(-233.283 -286.251)"/><path class="ac" d="M314.879,404.134H307.39a.4.4,0,0,1-.346-.3c-.047-.165.031-.3.176-.3h7.489a.4.4,0,0,1,.349.3C315.114,404,315.024,404.134,314.879,404.134Z" transform="translate(-226.73 -293.907)"/><path class="ad" d="M247.965,428.867H243.98a.4.4,0,0,1-.346-.3c-.047-.165.031-.3.176-.3h3.984a.4.4,0,0,1,.346.3C248.191,428.733,248.11,428.867,247.965,428.867Z" transform="translate(-181.013 -311.737)"/><path class="ab" d="M251.469,428.867H243.98a.4.4,0,0,1-.346-.3c-.047-.165.031-.3.176-.3H251.3a.407.407,0,0,1,.349.3C251.7,428.733,251.614,428.867,251.469,428.867Z" transform="translate(-181.013 -311.737)"/><path class="ae" d="M251.472,428.867H243.98a.4.4,0,0,1-.346-.3c-.047-.165.031-.3.176-.3H251.3a.407.407,0,0,1,.346.3C251.7,428.733,251.614,428.867,251.472,428.867Z" transform="translate(-181.013 -311.737)"/><path class="z" d="M245.88,376.047H228.92a.4.4,0,0,1-.346-.3c-.047-.165.031-.3.176-.3H245.7a.4.4,0,0,1,.346.3C246.1,375.913,246.025,376.047,245.88,376.047Z" transform="translate(-170.155 -273.655)"/><path class="z" d="M240.465,381.214H230.42a.4.4,0,0,1-.346-.3c-.047-.167.031-.3.176-.3H240.3a.4.4,0,0,1,.346.3C240.688,381.083,240.61,381.214,240.465,381.214Z" transform="translate(-171.236 -277.383)"/><path class="z" d="M247.305,405.2H237.26a.4.4,0,0,1-.346-.3c-.047-.165.031-.3.176-.3h10.045a.4.4,0,0,1,.346.3C247.531,405.063,247.45,405.2,247.305,405.2Z" transform="translate(-176.168 -294.672)"/><path class="z" d="M253.333,386.827H231.99a.4.4,0,0,1-.346-.3c-.047-.165.031-.3.176-.3h21.343a.4.4,0,0,1,.335.3C253.556,386.693,253.478,386.827,253.333,386.827Z" transform="translate(-172.368 -281.427)"/><path class="z" d="M257.336,415.827H240.3a.4.4,0,0,1-.332-.3c-.047-.165.031-.3.176-.3h17.043a.407.407,0,0,1,.346.3C257.563,415.693,257.482,415.827,257.336,415.827Z" transform="translate(-178.367 -302.335)"/><path class="z" d="M259.347,423.007h-17.04a.407.407,0,0,1-.349-.3c-.045-.165.033-.3.178-.3h17.04a.4.4,0,0,1,.346.3C259.57,422.873,259.492,423.007,259.347,423.007Z" transform="translate(-179.805 -307.512)"/><path class="z" d="M251.778,392.457H233.591a.4.4,0,0,1-.346-.3c-.047-.165.033-.3.176-.3h18.187a.4.4,0,0,1,.346.3C252,392.32,251.923,392.457,251.778,392.457Z" transform="translate(-173.522 -285.486)"/><path class="z" d="M243,398.367H235.28a.4.4,0,0,1-.346-.3c-.047-.165.031-.3.176-.3h7.724a.4.4,0,0,1,.346.3C243.227,398.233,243.149,398.367,243,398.367Z" transform="translate(-174.74 -289.747)"/><path class="ac" d="M299.654,381.457H289.33a.4.4,0,0,1-.346-.3c-.047-.165.031-.3.176-.3h10.324a.4.4,0,0,1,.346.3C299.878,381.318,299.8,381.457,299.654,381.457Z" transform="translate(-213.709 -277.556)"/><path class="ad" d="M219.6,283.924H201.676a.41.41,0,0,1-.36-.3c-.047-.165.039-.3.19-.3h17.919a.41.41,0,0,1,.363.3C219.833,283.8,219.749,283.924,219.6,283.924Z" transform="translate(-150.503 -207.239)"/><path class="ac" d="M295.43,300.317h-5.053a.413.413,0,0,1-.36-.3c-.047-.165.039-.3.19-.3h5.053a.413.413,0,0,1,.36.3C295.667,300.183,295.583,300.317,295.43,300.317Z" transform="translate(-214.453 -219.056)"/><path class="ac" d="M213.755,289.087H203.132a.413.413,0,0,1-.36-.3.212.212,0,0,1,.193-.3h10.62a.413.413,0,0,1,.363.3C213.984,288.953,213.908,289.087,213.755,289.087Z" transform="translate(-151.549 -210.96)"/><path class="ac" d="M216.017,319.457h-4.211a.413.413,0,0,1-.36-.3c-.047-.165.039-.3.19-.3h4.211a.413.413,0,0,1,.363.3C216.254,319.32,216.17,319.457,216.017,319.457Z" transform="translate(-157.807 -232.856)"/><path class="ae" d="M262.058,319.457h-7.913a.413.413,0,0,1-.363-.3.212.212,0,0,1,.193-.3h7.913a.407.407,0,0,1,.36.3A.215.215,0,0,1,262.058,319.457Z" transform="translate(-188.326 -232.856)"/><path class="ac" d="M243.879,332.054H215.384a.413.413,0,0,1-.363-.3.209.209,0,0,1,.193-.3h28.495a.41.41,0,0,1,.363.3.212.212,0,0,1-.193.3Z" transform="translate(-160.38 -241.94)"/><path class="ac" d="M272.749,446.317H250.192a.413.413,0,0,1-.363-.3c-.045-.165.039-.3.192-.3H272.57a.413.413,0,0,1,.363.3.212.212,0,0,1-.184.3Z" transform="translate(-185.48 -324.318)"/><path class="ac" d="M225.549,300.317H206.335a.413.413,0,0,1-.363-.3.212.212,0,0,1,.192-.3h19.214a.413.413,0,0,1,.36.3C225.778,300.183,225.7,300.317,225.549,300.317Z" transform="translate(-153.856 -219.056)"/><path class="ac" d="M261.918,454.2h-8.173a.4.4,0,0,1-.36-.3c-.047-.165.036-.3.19-.3h8.162a.41.41,0,0,1,.36.3C262.144,454.073,262.058,454.2,261.918,454.2Z" transform="translate(-188.044 -330.006)"/><path class="ac" d="M232.823,314.137H210.275a.413.413,0,0,1-.363-.3.212.212,0,0,1,.193-.3h22.548a.413.413,0,0,1,.363.3C233.061,314,232.977,314.137,232.823,314.137Z" transform="translate(-156.697 -229.02)"/><path class="ac" d="M270.48,437.787H247.932a.413.413,0,0,1-.363-.3c-.045-.165.039-.3.193-.3H270.31a.413.413,0,0,1,.363.3C270.717,437.653,270.634,437.787,270.48,437.787Z" transform="translate(-183.851 -318.168)"/><path class="ac" d="M327.715,454.2h-10.9a.4.4,0,0,1-.36-.3c-.047-.165.036-.3.19-.3h10.9a.41.41,0,0,1,.363.3C327.952,454.073,327.868,454.2,327.715,454.2Z" transform="translate(-233.515 -330.006)"/><path class="q" d="M216.637,324.987h-3.251a.413.413,0,0,1-.36-.3c-.047-.165.039-.3.19-.3h3.24a.407.407,0,0,1,.36.3C216.863,324.853,216.779,324.987,216.637,324.987Z" transform="translate(-158.946 -236.842)"/><path class="ac" d="M237.485,324.987H231.4a.413.413,0,0,1-.36-.3c-.047-.165.039-.3.19-.3h6.088a.413.413,0,0,1,.363.3.212.212,0,0,1-.193.3Z" transform="translate(-171.931 -236.842)"/><path class="ac" d="M265.55,324.987h-7a.413.413,0,0,1-.363-.3.212.212,0,0,1,.193-.3h7a.413.413,0,0,1,.36.3C265.788,324.853,265.7,324.987,265.55,324.987Z" transform="translate(-191.505 -236.842)"/><path class="ac" d="M296.458,324.987h-6.993a.413.413,0,0,1-.363-.3.212.212,0,0,1,.193-.3h6.993a.413.413,0,0,1,.363.3.212.212,0,0,1-.192.3Z" transform="translate(-213.791 -236.842)"/><path class="ad" d="M392.151,358.217H374.232a.413.413,0,0,1-.363-.3c-.045-.165.039-.3.193-.3h17.919a.413.413,0,0,1,.36.3C392.388,358.083,392.313,358.217,392.151,358.217Z" transform="translate(-274.909 -260.8)"/><path class="ac" d="M467.982,374.617h-5.051a.413.413,0,0,1-.363-.3c-.045-.164.039-.3.193-.3h5.05a.413.413,0,0,1,.363.3.212.212,0,0,1-.192.3Z" transform="translate(-338.86 -272.624)"/><path class="ac" d="M386.328,363.377H375.706a.408.408,0,0,1-.36-.3c-.047-.165.036-.3.19-.3h10.623a.413.413,0,0,1,.36.3C386.566,363.243,386.479,363.377,386.328,363.377Z" transform="translate(-275.973 -264.52)"/><path class="ac" d="M388.572,393.747h-4.211a.413.413,0,0,1-.363-.3c-.045-.165.039-.3.193-.3h4.21a.413.413,0,0,1,.36.3C388.81,393.613,388.734,393.747,388.572,393.747Z" transform="translate(-282.213 -286.416)"/><path class="ae" d="M434.632,393.747h-7.916a.413.413,0,0,1-.36-.3c-.047-.165.039-.3.19-.3h7.916a.413.413,0,0,1,.36.3C434.87,393.613,434.783,393.747,434.632,393.747Z" transform="translate(-312.751 -286.416)"/><path class="ac" d="M416.454,406.347h-28.5a.413.413,0,0,1-.36-.3c-.048-.165.039-.3.19-.3h28.5a.413.413,0,0,1,.363.3C416.691,406.213,416.607,406.347,416.454,406.347Z" transform="translate(-284.806 -295.501)"/><path class="ac" d="M399.857,369H377.306a.413.413,0,0,1-.36-.3c-.047-.165.039-.3.19-.3h22.551a.413.413,0,0,1,.36.3C400.095,368.863,400.008,369,399.857,369Z" transform="translate(-277.127 -268.572)"/><path class="ac" d="M398.106,374.617H378.892a.413.413,0,0,1-.36-.3.212.212,0,0,1,.193-.3h19.211a.413.413,0,0,1,.363.3.212.212,0,0,1-.193.3Z" transform="translate(-278.267 -272.624)"/><path class="ac" d="M388.758,380.537H380.6a.412.412,0,0,1-.36-.3c-.048-.165.039-.3.19-.3h8.162a.408.408,0,0,1,.36.3C388.995,380.4,388.911,380.537,388.758,380.537Z" transform="translate(-279.499 -276.892)"/><path class="ac" d="M405.4,388.457H382.846a.412.412,0,0,1-.36-.3c-.047-.165.039-.3.19-.3h22.546a.413.413,0,0,1,.36.3A.208.208,0,0,1,405.4,388.457Z" transform="translate(-281.122 -282.602)"/><path class="ac" d="M454.565,380.537h-10.9a.413.413,0,0,1-.36-.3c-.047-.165.039-.3.19-.3h10.9a.413.413,0,0,1,.363.3.212.212,0,0,1-.193.3Z" transform="translate(-324.971 -276.892)"/><path class="q" d="M389.181,399.287h-3.239a.413.413,0,0,1-.363-.3c-.045-.165.039-.3.193-.3h3.239a.413.413,0,0,1,.36.3C389.419,399.153,389.332,399.287,389.181,399.287Z" transform="translate(-283.352 -290.411)"/><path class="ac" d="M410.044,399.287h-6.088a.407.407,0,0,1-.36-.3c-.048-.165.036-.3.19-.3h6.088a.413.413,0,0,1,.363.3C410.281,399.153,410.2,399.287,410.044,399.287Z" transform="translate(-296.341 -290.411)"/><path class="ac" d="M438.122,399.287h-7a.413.413,0,0,1-.36-.3c-.047-.165.039-.3.19-.3h7a.413.413,0,0,1,.363.3.212.212,0,0,1-.193.3Z" transform="translate(-315.93 -290.411)"/><path class="ac" d="M469.032,399.287h-7a.413.413,0,0,1-.36-.3c-.047-.165.039-.3.19-.3h7a.413.413,0,0,1,.363.3C469.269,399.153,469.185,399.287,469.032,399.287Z" transform="translate(-338.215 -290.411)"/><path class="b" d="M256.474,370.878H227l-4.448-15.6h29.477Z" transform="translate(-165.822 -259.113)"/><path class="b" d="M424.271,439.075H394.795L390.35,423.48h29.474Z" transform="translate(-286.801 -308.283)"/><path class="p" d="M268.35,375.576h-5.023a5.8,5.8,0,0,1-5.232-4l-.477-1.674a2.952,2.952,0,0,1,2.955-4H265.6a5.8,5.8,0,0,1,5.232,4l.477,1.674A2.952,2.952,0,0,1,268.35,375.576Z" transform="translate(-190.993 -266.777)"/><path class="n" d="M274.947,373.723,278.8,375.9c.248.14.343.441.184.594l-2.539,2.428c-.2.184-.6,0-.692-.279l-1.311-4.6C274.359,373.731,274.649,373.555,274.947,373.723Z" transform="translate(-203.224 -272.363)"/><path class="w" d="M503.061,117.71l.028.371a29.156,29.156,0,0,0-3.279.441l-.07-.366A29.19,29.19,0,0,1,503.061,117.71Zm-6.571,1.244.106.357c-1.038.307-2.093.672-3.133,1.083l-.137-.346C494.377,119.632,495.44,119.264,496.49,118.954Zm-6.222,2.464.165.335c-.985.486-1.967,1.018-2.919,1.579l-.19-.321A33.375,33.375,0,0,1,490.267,121.418Zm-5.748,3.393.215.3c-.784.558-1.549,1.116-2.271,1.708l-.368.3-.237-.279.371-.3C482.951,125.944,483.721,125.364,484.519,124.811Zm3.069,4.255a12.418,12.418,0,0,1,2.913,1.56l-.218.3a12.048,12.048,0,0,0-2.832-1.51l-.056-.022.126-.349Zm-3.348-.776-.039.371a15.218,15.218,0,0,0-3.284.02l-.042-.371A15.792,15.792,0,0,1,484.24,128.291Zm8.669,4.7a13.935,13.935,0,0,1,1.674,2.919l-.34.145a13.589,13.589,0,0,0-1.632-2.841ZM479.4,129.131l.279.251a15.955,15.955,0,0,0-2,2.615l-.318-.193a16.112,16.112,0,0,1,2.034-2.673Zm-1.814-.123.112.354a18.1,18.1,0,0,0-3.039,1.264l-.176-.329a18.628,18.628,0,0,1,3.1-1.289Zm17.967,10.129a12.217,12.217,0,0,1,.131,3.371l-.371-.042a11.884,11.884,0,0,0-.125-3.265Zm-23.868-6.992.232.279a19.661,19.661,0,0,0-2.386,2.271l-.279-.246A20.014,20.014,0,0,1,471.684,132.144ZM476.427,135a10.56,10.56,0,0,0-.223,3.251l-.371.031a10.854,10.854,0,0,1,.232-3.365Zm18,10.584.332.17a7.935,7.935,0,0,1-1.094,1.61,7.847,7.847,0,0,1-1.06,1l-.232-.279a7.285,7.285,0,0,0,1.01-.954,7.482,7.482,0,0,0,1.032-1.549Zm-27.205-8.452.313.2a24.318,24.318,0,0,0-1.613,2.885l-.335-.162A25.131,25.131,0,0,1,467.219,137.13Zm9.694,4.314a14.018,14.018,0,0,0,1.468,2.935l-.31.2a14.483,14.483,0,0,1-1.51-3.011Zm12.556,8.092.1.357a8.553,8.553,0,0,1-3.376.265l.05-.371a8.159,8.159,0,0,0,3.226-.254Zm-8.988-2.645a11.968,11.968,0,0,0,2.67,1.889l-.17.332a12.374,12.374,0,0,1-2.754-1.953Zm-15.81-3.6a30.305,30.305,0,0,0-.884,3.189l-.363-.081a31.224,31.224,0,0,1,.893-3.228Zm-1.429,6.454c-.062.558-.112,1.1-.142,1.635s-.058,1.116-.07,1.674h-.371c0-.558.034-1.116.067-1.688s.084-1.1.145-1.655Zm-.137,6.621c.073,1.1.19,2.207.352,3.3l-.368.056c-.162-1.1-.279-2.218-.354-3.329Zm.974,6.552c.251,1.074.558,2.149.884,3.195l-.354.114c-.341-1.055-.642-2.14-.893-3.223Zm2.023,6.306c.421,1.019.89,2.031,1.4,3.008l-.329.17c-.508-.985-.982-2.006-1.4-3.036Z" transform="translate(-338.934 -87.832)"/><path class="w" d="M485.185,323.54c.293.469.6.937.915,1.4l-.307.212c-.318-.463-.628-.938-.924-1.409Z" transform="translate(-354.947 -236.23)"/><path class="f" d="M618.54,109.674l30.2-3.834-23.449.639Z" transform="translate(-451.319 -79.274)"/><path class="a" d="M626,67.19s22.356,9.082,28.112,10.784c0,0-18.759,8.2-24.063,11.689l.614-11.05-.558-3.326Z" transform="translate(-456.697 -51.409)"/><path class="b" d="M618.54,102.731l6.753-3.195,23.449-.639L624.748,96.21Z" transform="translate(-451.319 -72.331)"/><path class="b" d="M474.594,450.365a.955.955,0,0,0-.929,1.186l8.65,27.733a1.225,1.225,0,0,0,1.116.837l43.816-.977a.628.628,0,0,0,.594-.873l-8.7-27.755a1.675,1.675,0,0,0-1.593-1.116Z" transform="translate(-346.841 -326.971)"/><path class="aa" d="M506.751,475.377,483.5,464.007c-1.992-1.228-1.2.089-1.007.717l6.889,22.571a1.153,1.153,0,0,0,1.052.787l41.3-.915a.591.591,0,0,0,.558-.823L525.4,463.761c-.522-1.805-.681-1.211-1.426-.667l-16.4,12.277A.8.8,0,0,1,506.751,475.377Z" transform="translate(-353.004 -336.449)"/><path class="p" d="M482.945,455.929l23.737,11.822a.7.7,0,0,0,.737-.014L524,455.036c1.345-1.311-.05-1.325-.767-1.311l-40.314.9C482.2,454.62,481.681,455.223,482.945,455.929Z" transform="translate(-353.005 -330.087)"/><path class="af" d="M862.482,99.016l1.443-2.316h1.192l-2.255,3.348-.312,1.814h-1.055l.338-1.931-1.072-3.223h1.1Z" transform="translate(-625.952 -72.685)"/><path class="af" d="M878.2,99.571h-1.976l-.243,1.381H878.3l-.148.854H874.79l.9-5.156h3.349l-.154.859h-2.313l-.215,1.231h1.984Z" transform="translate(-636.068 -72.649)"/><path class="af" d="M892.121,100.21c.05-.279-.089-.5-.416-.645l-.683-.279c-.793-.354-1.169-.837-1.13-1.462a1.339,1.339,0,0,1,.279-.765,1.712,1.712,0,0,1,.731-.53,2.569,2.569,0,0,1,1.01-.181,1.752,1.752,0,0,1,1.208.46,1.481,1.481,0,0,1,.452,1.155h-1.032a.745.745,0,0,0-.156-.558.7.7,0,0,0-.533-.2,1.057,1.057,0,0,0-.617.162.662.662,0,0,0-.31.46c-.044.257.126.463.516.614l.469.176.279.126a1.469,1.469,0,0,1,.979,1.451,1.418,1.418,0,0,1-.293.79,1.641,1.641,0,0,1-.709.508,2.568,2.568,0,0,1-.988.167,2.2,2.2,0,0,1-.977-.232,1.524,1.524,0,0,1-.653-.619,1.594,1.594,0,0,1-.193-.837h1.016q-.05.837.837.854a1.085,1.085,0,0,0,.625-.165A.655.655,0,0,0,892.121,100.21Z" transform="translate(-646.568 -72.43)"/><path class="af" d="M914.551,99.016l1.44-2.316h1.192l-2.252,3.348-.313,1.814h-1.055l.335-1.931-1.069-3.223h1.094Z" transform="translate(-663.493 -72.685)"/><path class="af" d="M929.238,101.687a1.791,1.791,0,0,1-.9-.243,1.62,1.62,0,0,1-.619-.67,2.474,2.474,0,0,1-.279-1,4.081,4.081,0,0,1,.126-1.242,3.276,3.276,0,0,1,.525-1.158,2.364,2.364,0,0,1,.837-.748,2.216,2.216,0,0,1,1.052-.237,1.822,1.822,0,0,1,.913.246,1.626,1.626,0,0,1,.611.678,2.49,2.49,0,0,1,.257,1,4.191,4.191,0,0,1-.137,1.284,3.21,3.21,0,0,1-.528,1.141,2.36,2.36,0,0,1-.837.723A2.2,2.2,0,0,1,929.238,101.687Zm1.47-2.79.028-.338a1.616,1.616,0,0,0-.168-.954.706.706,0,0,0-.616-.34,1.117,1.117,0,0,0-1.03.558,3.351,3.351,0,0,0-.43,1.674,1.7,1.7,0,0,0,.165.965.7.7,0,0,0,.628.352,1.063,1.063,0,0,0,.921-.432,2.635,2.635,0,0,0,.477-1.3Z" transform="translate(-674.019 -72.459)"/><path class="af" d="M949.4,96.65l-.58,3.4a2.074,2.074,0,0,1-.709,1.351,2.141,2.141,0,0,1-1.471.483,2.007,2.007,0,0,1-.949-.24A1.4,1.4,0,0,1,945.1,101a1.72,1.72,0,0,1-.131-.943l.578-3.4h1.038L946,100.057a1.522,1.522,0,0,0,0,.371.628.628,0,0,0,.686.594.968.968,0,0,0,.717-.24,1.241,1.241,0,0,0,.363-.728l.58-3.4Z" transform="translate(-686.649 -72.649)"/><path class="af" d="M967.18,101.806l.9-5.156h1.479a2,2,0,0,1,.938.234,1.766,1.766,0,0,1,.675.647,2.231,2.231,0,0,1,.313.949,2.975,2.975,0,0,1,0,.631l-.025.187a2.929,2.929,0,0,1-.89,1.819,2.511,2.511,0,0,1-1.783.686Zm1.783-4.3-.6,3.443h.438a1.415,1.415,0,0,0,1.15-.525,2.711,2.711,0,0,0,.5-1.582v-.114a1.44,1.44,0,0,0-.223-.9.865.865,0,0,0-.7-.326Z" transform="translate(-702.678 -72.649)"/><path class="af" d="M984.968,101.806H983.93l.893-5.156h1.038Z" transform="translate(-714.754 -72.649)"/><path class="af" d="M991.17,101.806l.9-5.156h1.482a2.012,2.012,0,0,1,.937.234,1.76,1.76,0,0,1,.672.647,2.182,2.182,0,0,1,.312.949,3.164,3.164,0,0,1,0,.631l-.025.187a2.932,2.932,0,0,1-.893,1.819,2.511,2.511,0,0,1-1.783.686Zm1.786-4.3-.6,3.443h.441a1.415,1.415,0,0,0,1.15-.525,2.692,2.692,0,0,0,.5-1.582v-.114a1.422,1.422,0,0,0-.223-.9.859.859,0,0,0-.7-.326Z" transform="translate(-719.974 -72.649)"/><path class="af" d="M1015.378,101.806h-1.038l.893-5.156h1.038Z" transform="translate(-736.679 -72.649)"/><path class="af" d="M1026.849,97.509h-1.529l-.745,4.3h-1.038l.745-4.3h-1.512l.151-.859H1027Z" transform="translate(-742.757 -72.649)"/></g></svg>